<svg xmlns="http://www.w3.org/2000/svg" width="32.588" height="31.905" viewBox="0 0 32.588 31.905"><defs><style>.a{fill:#fff;}</style></defs><g transform="translate(56)"><path class="a" d="M28.26,31.905H2.327A3.305,3.305,0,0,1-1,28.63V7.264A3.305,3.305,0,0,1,2.327,3.988H8.2a1.329,1.329,0,1,1,0,2.659H2.327a.645.645,0,0,0-.669.617V28.63a.645.645,0,0,0,.669.617H28.26a.645.645,0,0,0,.669-.617V7.264a.645.645,0,0,0-.669-.617H22.273a1.329,1.329,0,0,1,0-2.659H28.26a3.305,3.305,0,0,1,3.327,3.276V28.63A3.305,3.305,0,0,1,28.26,31.905Zm-7.267-22.6H9.595A2.281,2.281,0,0,1,7.318,7.029v-1.9a2.28,2.28,0,0,1,1.9-2.245V2.376A2.378,2.378,0,0,1,11.593,0h7.4a2.379,2.379,0,0,1,2.376,2.376v.5a2.282,2.282,0,0,1,1.9,2.247v1.9A2.281,2.281,0,0,1,20.993,9.306ZM9.976,6.647H20.612V5.476a2.284,2.284,0,0,1-1.9-2.248V2.659H11.876v.569a2.284,2.284,0,0,1-1.9,2.248V6.647ZM20.993,5.508h0Z" transform="translate(-55 0)"/></g></svg>