<svg xmlns="http://www.w3.org/2000/svg" width="25" height="24.891" viewBox="0 0 25 24.891">
  <g id="application_on" transform="translate(-582 -367)">
    <path id="Path_25" data-name="Path 25" d="M31.809,10.563H29.215V8.5a.339.339,0,0,0-.339-.339H7.488a.339.339,0,0,0-.339.339V29.89a.339.339,0,0,0,.339.339H9.65v2.485a.339.339,0,0,0,.339.339H31.809a.339.339,0,0,0,.339-.339V10.9A.339.339,0,0,0,31.809,10.563ZM7.831,8.842H28.54V29.551H7.831V8.842ZM31.469,32.375H10.333V30.226H28.876a.339.339,0,0,0,.339-.339V11.242h2.254Z" transform="translate(574.852 358.837)" fill="#fff"/>
    <path id="Path_26" data-name="Path 26" d="M23.457,32.418a.339.339,0,0,1-.339-.289,1.538,1.538,0,0,0-2.954-.312.339.339,0,0,1-.441.194,7.078,7.078,0,0,1-1.524-.828.339.339,0,0,1-.078-.475,1.538,1.538,0,0,0-1.85-2.295.339.339,0,0,1-.452-.173,7.082,7.082,0,0,1-.492-1.663.339.339,0,0,1,.265-.39,1.538,1.538,0,0,0,.312-2.954.339.339,0,0,1-.194-.441,7.1,7.1,0,0,1,.828-1.524.339.339,0,0,1,.475-.078,1.538,1.538,0,0,0,2.312-1.871.339.339,0,0,1,.173-.448,7.085,7.085,0,0,1,1.663-.492.339.339,0,0,1,.39.282,1.538,1.538,0,0,0,2.954.312.339.339,0,0,1,.441-.194,7.078,7.078,0,0,1,1.524.828.339.339,0,0,1,.078.475,1.538,1.538,0,0,0,1.871,2.309.339.339,0,0,1,.452.173,7.085,7.085,0,0,1,.492,1.663.339.339,0,0,1-.285.384,1.538,1.538,0,0,0-1.29,1.358h0a1.541,1.541,0,0,0,.981,1.6.339.339,0,0,1,.194.441,7.1,7.1,0,0,1-.828,1.524.339.339,0,0,1-.475.078,1.538,1.538,0,0,0-2.309,1.871.339.339,0,0,1-.173.448,7.089,7.089,0,0,1-1.667.492ZM21.6,30.154a2.213,2.213,0,0,1,2.108,1.531,6.42,6.42,0,0,0,.9-.268,2.217,2.217,0,0,1,3.147-2.546,6.45,6.45,0,0,0,.448-.828,2.22,2.22,0,0,1-1.1-2.152h0a2.22,2.22,0,0,1,1.521-1.874,6.45,6.45,0,0,0-.268-.9,2.217,2.217,0,0,1-2.546-3.147,6.379,6.379,0,0,0-.828-.448,2.217,2.217,0,0,1-4.026-.424,6.42,6.42,0,0,0-.9.268,2.217,2.217,0,0,1-3.147,2.55,6.389,6.389,0,0,0-.448.828,2.217,2.217,0,0,1-.424,4.026,6.43,6.43,0,0,0,.265.9,2.217,2.217,0,0,1,2.546,3.147,6.379,6.379,0,0,0,.828.448,2.22,2.22,0,0,1,1.922-1.1Zm5.846-4.216Zm-5.113,2.376a2.9,2.9,0,1,0,0-.01Zm0-5.13a.923.923,0,1,0,0-.01Z" transform="translate(570.7 353.651)" fill="#fff"/>
    <rect id="Rectangle_31" data-name="Rectangle 31" width="2.081" height="0.679" transform="translate(587.676 369.444)" fill="#fff"/>
    <path id="Path_27" data-name="Path 27" d="M13.572,12.316l-.479-.482-.5.5-.5-.5-.482.482.5.5-.5.5.482.479.5-.5.5.5.479-.479-.5-.5Z" transform="translate(572.58 356.973)" fill="#fff"/>
  </g>
</svg>
