<?xml version="1.0" encoding="utf-8"?>
<!-- Generator: Adobe Illustrator 23.0.1, SVG Export Plug-In . SVG Version: 6.00 Build 0)  -->
<svg version="1.1" id="Layer_1" xmlns="http://www.w3.org/2000/svg" xmlns:xlink="http://www.w3.org/1999/xlink" x="0px" y="0px"
	 viewBox="0 0 20 20" style="enable-background:new 0 0 20 20;" xml:space="preserve">
<style type="text/css">
	.st0{fill:#067CA0;}
	.st1{fill:#FEFEFE;}
</style>
<g>
	<circle class="st0" cx="9.38" cy="3.88" r="2.88"/>
	<path class="st0" d="M4.16,19c-0.41-0.23-0.56-0.57-0.55-1.04c0.01-1.5,0.04-3-0.02-4.5C3.48,10.71,5.6,8.33,8.52,7.94
		c2.49-0.33,4.83,0.81,5.97,2.83c0.1,0.17,0.19,0.34,0.26,0.52c0.13,0.37-0.03,0.76-0.35,0.92c-0.34,0.17-0.76,0.04-0.98-0.3
		c-0.03-0.05-0.06-0.11-0.08-0.16c-1.41-2.74-5.22-3.25-7.3-0.97c-0.64,0.7-0.98,1.54-0.98,2.49c0,1.5-0.01,3,0.02,4.5
		C5.09,18.27,5,18.68,4.61,19C4.46,19,4.31,19,4.16,19z"/>
	<path class="st0" d="M11.03,14.89c1.51,0,2.91,0,4.3,0c0.12,0,0.24-0.01,0.36,0.01c0.44,0.05,0.75,0.42,0.73,0.87
		c-0.02,0.38-0.3,0.62-0.79,0.62c-1.42,0.01-2.85,0-4.27,0c-0.14,0-0.29,0-0.53,0c0.38,0.4,0.7,0.73,1.01,1.07
		c0.34,0.37,0.36,0.81,0.06,1.12c-0.3,0.31-0.75,0.28-1.11-0.09c-0.7-0.72-1.39-1.45-2.07-2.19c-0.34-0.37-0.33-0.74,0.01-1.12
		c0.68-0.74,1.37-1.47,2.07-2.19c0.36-0.37,0.79-0.39,1.11-0.08c0.3,0.29,0.29,0.72-0.04,1.08C11.61,14.27,11.35,14.54,11.03,14.89z
		"/>
	<path class="st1" d="M10.78,3.88c0,0.76-0.64,1.4-1.41,1.39c-0.77,0-1.4-0.64-1.39-1.4c0-0.77,0.64-1.4,1.4-1.4
		C10.15,2.48,10.78,3.12,10.78,3.88z"/>
</g>
</svg>
