<svg xmlns="http://www.w3.org/2000/svg" width="18.106" height="18" viewBox="0 0 18.106 18">
  <g id="assignlearner_on" transform="translate(-870 -707)">
    <g id="assign_learner_icon" transform="translate(869.066 705.96)">
      <path id="Path_1266" data-name="Path 1266" d="M3.4,0A3.4,3.4,0,1,1,0,3.4,3.4,3.4,0,0,1,3.4,0Z" transform="translate(6.6 1.04)" fill="#5877ff"/>
      <path id="Path_1260" data-name="Path 1260" d="M.99,11.44a3.934,3.934,0,0,1,.59-1.3,2.573,2.573,0,0,1,.83-.93.684.684,0,0,0,.37-.73c-.02-.59-.01-1.17,0-1.76,0-.47.22-.6.66-.42Q6.56,7.575,9.68,8.86a.89.89,0,0,0,.68,0c2.05-.85,4.11-1.69,6.16-2.52.59-.24.76-.11.75.52s0,1.23,0,1.85c0,.14-.01.27.13.35a3.57,3.57,0,0,1,1.58,2.41,1.883,1.883,0,0,1,.06.51v.72a5.133,5.133,0,0,1-.39,1.32,2.068,2.068,0,0,1-.99,1.07c-.27.12-.31.33-.31.59-.02.84-.02.85-.8,1.12-1.87.66-3.72,1.36-5.59,2.03-.25.09-.52.09-.77.19-.1.01-.2.01-.3.02-1.6-.38-3.1-1.07-4.66-1.6-.7-.24-1.38-.5-2.08-.75a.636.636,0,0,1-.5-.74.881.881,0,0,0-.54-1,2.5,2.5,0,0,1-1.05-1.76c-.04-.15-.01-.12-.09-.45a.433.433,0,0,0-.01-.05A4.739,4.739,0,0,1,.99,11.44Z" fill="#5877ff"/>
      <path id="Path_1261" data-name="Path 1261" d="M3.52,7.16c1.04.42,2.03.82,3.01,1.22.93.38,1.86.77,2.79,1.14a.452.452,0,0,1,.33.5c-.01,2.56-.01,5.11,0,7.67,0,.34-.07.41-.4.28q-2.7-1.005-5.42-1.96c-.24-.08-.34-.2-.31-.45s-.04-.46.3-.59a1.923,1.923,0,0,0,1.1-2.37,1.331,1.331,0,0,1-.05-.4c.03-.66-.52-1.09-.7-1.67-.75-.28-.65-.93-.65-1.53S3.52,7.81,3.52,7.16Z" fill="#fefefe"/>
      <path id="Path_1262" data-name="Path 1262" d="M16.53,7.19a19.945,19.945,0,0,1-.1,2.8c-.04.2-.09.33-.31.38a.468.468,0,0,0-.29.2,6.16,6.16,0,0,0-.64,1.38c-.08.32-.1.67-.17,1.01a2.005,2.005,0,0,0,1.21,2.02c.35.14.26.36.29.6.03.26-.09.36-.32.45-1.81.65-3.62,1.3-5.42,1.97-.35.13-.4.03-.4-.29q.015-3.84,0-7.67a.429.429,0,0,1,.29-.48c1.88-.75,3.75-1.53,5.63-2.29A.523.523,0,0,1,16.53,7.19Z" fill="#fefefe"/>
      <path id="Path_1263" data-name="Path 1263" d="M1.73,12.08a3.435,3.435,0,0,1,.85-2.04c.06-.07.11-.17.22-.12s.1.15.1.23a2.761,2.761,0,0,1-.06.4c-.1.42.08.64.48.53.44-.13.44.09.34.39-.07.21-.08.44.13.5.34.1.38.36.47.61A1.486,1.486,0,0,1,3.2,14.41a.716.716,0,0,1-.78-.32A3.976,3.976,0,0,1,1.73,12.08Z" fill="#fefefe"/>
      <path id="Path_1264" data-name="Path 1264" d="M15.86,12.1c.49-.08.66-.28.5-.73-.09-.26.01-.39.33-.3.44.12.61-.08.5-.53a1.741,1.741,0,0,1-.05-.22c0-.14-.06-.34.11-.4.14-.05.22.13.3.23a3.053,3.053,0,0,1,.08,3.92.776.776,0,0,1-1.08.24,1.616,1.616,0,0,1-.8-.99c-.06-.19-.09-.33.16-.47C16.29,12.67,16.1,12.39,15.86,12.1Z" fill="#fefefe"/>
      <path id="Path_1265" data-name="Path 1265" d="M12.63,4.46A2.585,2.585,0,0,1,9.98,7.15,2.573,2.573,0,0,1,7.37,4.47a2.632,2.632,0,1,1,5.26-.01Z" fill="#fefefe"/>
    </g>
  </g>
</svg>
