<?xml version="1.0" encoding="utf-8"?>
<!-- Generator: Adobe Illustrator 23.0.1, SVG Export Plug-In . SVG Version: 6.00 Build 0)  -->
<svg version="1.1" id="Layer_1" xmlns="http://www.w3.org/2000/svg" xmlns:xlink="http://www.w3.org/1999/xlink" x="0px" y="0px"
	 viewBox="0 0 20 20" style="enable-background:new 0 0 20 20;" xml:space="preserve">
<style type="text/css">
	.st0{fill:#067CA0;}
	.st1{fill:#FEFEFE;}
</style>
<g>
	<circle class="st0" cx="10" cy="4.44" r="3.4"/>
	<path class="st0" d="M0.99,11.44c0.18-0.63,0.32-0.89,0.59-1.3c0.23-0.35,0.46-0.73,0.83-0.93c0.32-0.18,0.38-0.4,0.37-0.73
		c-0.02-0.59-0.01-1.17,0-1.76C2.78,6.25,3,6.12,3.44,6.3C5.52,7.15,7.6,8,9.68,8.86c0.22,0.09,0.46,0.09,0.68,0
		c2.05-0.85,4.11-1.69,6.16-2.52c0.59-0.24,0.76-0.11,0.75,0.52c-0.01,0.62,0,1.23,0,1.85c0,0.14-0.01,0.27,0.13,0.35
		c0.91,0.55,1.35,1.42,1.58,2.41c0.01,0.02,0.06,0.23,0.06,0.51v0.72c-0.1,0.45-0.17,0.9-0.39,1.32c-0.23,0.45-0.5,0.86-0.99,1.07
		c-0.27,0.12-0.31,0.33-0.31,0.59c-0.02,0.84-0.02,0.85-0.8,1.12c-1.87,0.66-3.72,1.36-5.59,2.03c-0.25,0.09-0.52,0.09-0.77,0.19
		c-0.1,0.01-0.2,0.01-0.3,0.02c-1.6-0.38-3.1-1.07-4.66-1.6c-0.7-0.24-1.38-0.5-2.08-0.75c-0.37-0.13-0.55-0.36-0.5-0.74
		c0.06-0.47-0.1-0.77-0.54-1c-0.68-0.36-0.86-1.08-1.05-1.76c-0.04-0.15-0.01-0.12-0.09-0.45c0-0.02-0.01-0.04-0.01-0.05
		C0.93,12.26,0.91,11.85,0.99,11.44z"/>
	<path class="st1" d="M3.52,7.16c1.04,0.42,2.03,0.82,3.01,1.22c0.93,0.38,1.86,0.77,2.79,1.14c0.25,0.1,0.33,0.23,0.33,0.5
		c-0.01,2.56-0.01,5.11,0,7.67c0,0.34-0.07,0.41-0.4,0.28c-1.8-0.67-3.61-1.32-5.42-1.96c-0.24-0.08-0.34-0.2-0.31-0.45
		c0.02-0.24-0.04-0.46,0.3-0.59c0.94-0.38,1.4-1.42,1.1-2.37c-0.04-0.13-0.05-0.26-0.05-0.4c0.03-0.66-0.52-1.09-0.7-1.67
		C3.42,10.25,3.52,9.6,3.52,9C3.51,8.41,3.52,7.81,3.52,7.16z"/>
	<path class="st1" d="M16.53,7.19c-0.06,0.96,0.09,1.88-0.1,2.8c-0.04,0.2-0.09,0.33-0.31,0.38c-0.11,0.03-0.24,0.1-0.29,0.2
		c-0.24,0.45-0.52,0.89-0.64,1.38c-0.08,0.32-0.1,0.67-0.17,1.01c-0.15,0.72,0.42,1.71,1.21,2.02c0.35,0.14,0.26,0.36,0.29,0.6
		c0.03,0.26-0.09,0.36-0.32,0.45c-1.81,0.65-3.62,1.3-5.42,1.97c-0.35,0.13-0.4,0.03-0.4-0.29c0.01-2.56,0.01-5.12,0-7.67
		c0-0.24,0.05-0.38,0.29-0.48c1.88-0.75,3.75-1.53,5.63-2.29C16.37,7.22,16.43,7.21,16.53,7.19z"/>
	<path class="st1" d="M1.73,12.08c0.05-0.79,0.36-1.46,0.85-2.04C2.64,9.97,2.69,9.87,2.8,9.92c0.1,0.04,0.1,0.15,0.1,0.23
		c-0.01,0.13-0.03,0.27-0.06,0.4c-0.1,0.42,0.08,0.64,0.48,0.53c0.44-0.13,0.44,0.09,0.34,0.39c-0.07,0.21-0.08,0.44,0.13,0.5
		c0.34,0.1,0.38,0.36,0.47,0.61c0.28,0.7-0.32,1.72-1.06,1.83c-0.33,0.05-0.61-0.04-0.78-0.32C2.02,13.47,1.76,12.81,1.73,12.08z"/>
	<path class="st1" d="M15.86,12.1c0.49-0.08,0.66-0.28,0.5-0.73c-0.09-0.26,0.01-0.39,0.33-0.3c0.44,0.12,0.61-0.08,0.5-0.53
		c-0.02-0.07-0.04-0.15-0.05-0.22c0-0.14-0.06-0.34,0.11-0.4c0.14-0.05,0.22,0.13,0.3,0.23c1.05,1.4,0.93,2.51,0.08,3.92
		c-0.23,0.38-0.66,0.45-1.08,0.24c-0.41-0.21-0.66-0.56-0.8-0.99c-0.06-0.19-0.09-0.33,0.16-0.47C16.29,12.67,16.1,12.39,15.86,12.1
		z"/>
	<path class="st1" d="M12.63,4.46c0,1.56-1.12,2.69-2.65,2.69C8.47,7.14,7.37,6.01,7.37,4.47c0-1.56,1.12-2.73,2.63-2.73
		C11.5,1.74,12.63,2.9,12.63,4.46z"/>
</g>
</svg>
