<svg xmlns="http://www.w3.org/2000/svg" width="55" height="48" viewBox="0 0 55 48">
  <g id="batches" transform="translate(0 -606)">
    <rect id="Rectangle_2" data-name="Rectangle 2" width="55" height="48" transform="translate(0 606)" fill="rgba(255,255,255,0)"/>
    <path id="Path_1258" data-name="Path 1258" d="M17.5,14.526a4.263,4.263,0,1,0-4.263-4.263A4.263,4.263,0,0,0,17.5,14.526Zm0-6.947a2.684,2.684,0,1,1-2.684,2.684A2.684,2.684,0,0,1,17.5,7.579Zm7.895,9.253a3.505,3.505,0,1,0-3.489-3.505,3.505,3.505,0,0,0,3.489,3.505Zm0-5.416a1.926,1.926,0,1,1-1.911,1.911A1.926,1.926,0,0,1,25.395,11.416Zm0,5.637a6.584,6.584,0,0,0-2.1.363,8.889,8.889,0,0,0-11.589,0,6.584,6.584,0,0,0-2.1-.363A7.121,7.121,0,0,0,2.5,24.158a.789.789,0,0,0,.789.789H31.711a.789.789,0,0,0,.789-.789A7.121,7.121,0,0,0,25.395,17.053ZM9.605,18.632a5.227,5.227,0,0,1,.868.079,8.968,8.968,0,0,0-1.832,4.658h-4.5A5.526,5.526,0,0,1,9.605,18.632Zm9.474,4.737H10.221a7.326,7.326,0,0,1,14.558,0Zm7.279,0a8.921,8.921,0,0,0-1.832-4.658,5.226,5.226,0,0,1,.868-.079,5.526,5.526,0,0,1,5.463,4.737ZM9.605,16.832a3.505,3.505,0,1,0-3.489-3.505,3.505,3.505,0,0,0,3.489,3.505Zm0-5.416a1.926,1.926,0,1,1-1.911,1.911,1.926,1.926,0,0,1,1.911-1.911Z" transform="translate(10.5 615)" fill="#666"/>
  </g>
</svg>
