<svg xmlns="http://www.w3.org/2000/svg" width="41.974" height="36.214" viewBox="0 0 41.974 36.214">
  <g id="Course_home" transform="translate(-947.5 -232.286)">
    <path id="Shape_3" data-name="Shape 3" d="M53.408,87.95H50.5a1.7,1.7,0,0,0-.481-.463l-2.9-1.77a9.969,9.969,0,0,0-11.64.872,9.977,9.977,0,0,0-11.641-.872l-2.9,1.77a1.7,1.7,0,0,0-.481.463h-2.9A2.593,2.593,0,0,0,15,90.562v26.069a2.592,2.592,0,0,0,2.566,2.612H53.406a2.593,2.593,0,0,0,2.568-2.612V90.562A2.592,2.592,0,0,0,53.408,87.95ZM37.194,89.7a6.615,6.615,0,0,1,8.176-1l2.067,1.263v20.592H40.484a6.931,6.931,0,0,0-3.29.825Zm-11.59-1a6.616,6.616,0,0,1,8.175,1v21.678a6.952,6.952,0,0,0-3.289-.823H23.536V89.961Zm-7.19,2.729h1.707V112.29a1.722,1.722,0,0,0,1.707,1.738H30.49a3.559,3.559,0,0,1,3.035,1.738H18.414Zm34.145,24.341H37.45a3.559,3.559,0,0,1,3.033-1.738h8.661a1.722,1.722,0,0,0,1.707-1.738V91.426h1.707Z" transform="translate(933 148.757)" fill="#fff" stroke="rgba(0,0,0,0)" stroke-width="1"/>
  </g>
</svg>
