<svg xmlns="http://www.w3.org/2000/svg" width="22" height="22" viewBox="0 0 22 22">
  <g id="cource_thumbnail" transform="translate(-2743 -242)">
    <rect id="Rectangle_267" data-name="Rectangle 267" width="22" height="22" transform="translate(2743 242)" fill="#fff" opacity="0"/>
    <g id="noun_Pencil_534796" transform="translate(2744 242.981)">
      <path id="Path_84" data-name="Path 84" d="M4.654,20.019H.833A.833.833,0,0,1,0,19.185V15.362a1.663,1.663,0,0,1,.488-1.181L14.166.493a1.709,1.709,0,0,1,2.362,0l2.983,2.987a1.673,1.673,0,0,1,0,2.362L5.834,19.53A1.657,1.657,0,0,1,4.654,20.019ZM1.667,18.351H4.655L18.333,4.663,15.35,1.672,1.668,15.36v2.992Zm15-10.842a.831.831,0,0,1-.589-.244L12.745,3.929A.834.834,0,1,1,13.923,2.75l3.333,3.336a.834.834,0,0,1-.589,1.424ZM5,17.516a.832.832,0,0,1-.667-.333,7.541,7.541,0,0,0-1.5-1.5.834.834,0,0,1,1-1.334,9.21,9.21,0,0,1,1.831,1.832A.833.833,0,0,1,5,17.516Z" transform="translate(0 0)" fill="#0199D6"/>
    </g>
  </g>
</svg>
