<svg xmlns="http://www.w3.org/2000/svg" width="10" height="9.97" viewBox="0 0 10 9.97">
  <path id="Path_57" data-name="Path 57" d="M9.651,8.06l-3.1-3.1,3.1-3.1a.937.937,0,0,0,0-1.313l-.3-.3A1.252,1.252,0,0,0,8.7,0h0A1.252,1.252,0,0,0,8.04.239L4.935,3.4,1.831.3A.937.937,0,0,0,.517.3L.278.537a.959.959,0,0,0-.3.657,1.252,1.252,0,0,0,.239.657l3.1,3.1-3.1,3.1a.937.937,0,0,0,0,1.313l.3.3a.959.959,0,0,0,.657.3.959.959,0,0,0,.657-.3l3.1-3.1,3.1,3.1a.959.959,0,0,0,.657.3.9.9,0,0,0,.657-.239l.3-.3a.959.959,0,0,0,.3-.657.989.989,0,0,0-.3-.716Z" transform="translate(0.05)" fill="#fff"/>
</svg>
