<svg xmlns="http://www.w3.org/2000/svg" xmlns:xlink="http://www.w3.org/1999/xlink" width="55" height="48" viewBox="0 0 55 48">
  <defs>
    <clipPath id="clip-path">
      <rect id="Rectangle_988" data-name="Rectangle 988" width="55" height="48"/>
    </clipPath>
  </defs>
  <g id="e_commerce" clip-path="url(#clip-path)">
    <rect id="Rectangle_987" data-name="Rectangle 987" width="55" height="48" fill="#fff" opacity="0"/>
    <g id="noun_cart_2452955" transform="translate(15.75 12)">
      <path id="Path_928" data-name="Path 928" d="M.9,1.9C.034,1.9.034,0,.9,0h4.18c.265,0,.531.285.6.759l2.853,13.95h9.421l1.393-4.365H12.308c-.863,0-.863-1.9,0-1.9h7.63l.6-1.8H10.716c-.863,0-.863-1.9,0-1.9H21.133l.531-1.613H7.6c-.863,0-.863-1.9,0-1.9H22.659c.464,0,.8.664.6,1.329L19.009,16.038c-.133.38-.332.569-.663.569H8c-.265,0-.531-.19-.6-.664L4.546,1.9Z" transform="translate(0)" fill="#1d2858" stroke="#1d2858" stroke-width="0.2"/>
      <path id="Path_929" data-name="Path 929" d="M115.189,185c1.194,0,2.189,1.423,2.189,3.132,0,1.8-1,3.132-2.189,3.132S113,189.935,113,188.132C113,186.423,114,185,115.189,185Zm0,1.9c-.464,0-.863.569-.863,1.234s.4,1.234.863,1.234.862-.569.862-1.234S115.654,186.9,115.189,186.9Z" transform="translate(-105.269 -167.444)" fill="#1d2858" stroke="#1d2858" stroke-width="0.2"/>
      <path id="Path_930" data-name="Path 930" d="M212.123,185c1.261,0,2.189,1.423,2.189,3.132,0,1.8-.929,3.132-2.189,3.132-1.194,0-2.123-1.329-2.123-3.132C210,186.423,210.929,185,212.123,185Zm0,1.9c-.464,0-.8.569-.8,1.234s.332,1.234.8,1.234.863-.569.863-1.234S212.587,186.9,212.123,186.9Z" transform="translate(-195.834 -167.444)" fill="#1d2858" stroke="#1d2858" stroke-width="0.2"/>
    </g>
  </g>
</svg>
