<svg xmlns="http://www.w3.org/2000/svg" width="25" height="17.621" viewBox="0 0 25 17.621">
  <g id="Gamified_Package_on" transform="translate(-87 -31)">
    <path id="Path_1" data-name="Path 1" d="M6.685,41.745c-1.026,2.921-1.737,12.711.947,13.816,2.132.868,5.763-3.869,7.816-7.342.237-.553,5.369-.553,5.684,0,1.974,3.474,5.606,8.211,7.737,7.342,2.763-1.105,1.974-10.9.947-13.816A5.105,5.105,0,0,0,22,38.981c-1.263.868-6.158.868-7.421,0A5.192,5.192,0,0,0,6.685,41.745Zm17.132-1.263h1.658v1.737H23.818Zm-2.211,3.79V42.692h1.816v1.579Zm4.263,0V42.692h1.816v1.579Zm-2.053.474h1.658v1.737H23.818ZM11.028,41.35h1.737v1.263h1.263V44.35H12.765v1.263H11.028V44.35H9.765V42.613h1.263Zm13.58-1.816a3.948,3.948,0,1,1-3.948,3.948A3.976,3.976,0,0,1,24.607,39.534Zm-12.711,0a3.948,3.948,0,1,1-3.948,3.948A3.909,3.909,0,0,1,11.9,39.534Z" transform="translate(81.234 -7.045)" fill="#fff" fill-rule="evenodd"/>
  </g>
</svg>
