<svg xmlns="http://www.w3.org/2000/svg" width="55" height="48" viewBox="0 0 55 48">
  <g id="ic_apps_on" transform="translate(-0.5 -638.5)">
    <g id="ic_apps" transform="translate(71 650)">
      <path id="Path_1256" data-name="Path 1256" d="M21.927,25H1.607A2.59,2.59,0,0,1-1,22.433V5.692A2.59,2.59,0,0,1,1.607,3.125h4.6a1.042,1.042,0,1,1,0,2.083h-4.6a.506.506,0,0,0-.524.483V22.433a.506.506,0,0,0,.524.483h20.32a.506.506,0,0,0,.524-.483V5.692a.506.506,0,0,0-.524-.483H17.236a1.042,1.042,0,0,1,0-2.083h4.691a2.59,2.59,0,0,1,2.607,2.567V22.433A2.59,2.59,0,0,1,21.927,25ZM16.233,7.292H7.3A1.787,1.787,0,0,1,5.517,5.507V4.017A1.787,1.787,0,0,1,7.006,2.257v-.4A1.863,1.863,0,0,1,8.867,0h5.8a1.864,1.864,0,0,1,1.861,1.861v.395a1.788,1.788,0,0,1,1.489,1.76V5.507A1.787,1.787,0,0,1,16.233,7.292ZM7.6,5.208h8.333V4.291a1.79,1.79,0,0,1-1.489-1.761V2.083H9.089v.446A1.79,1.79,0,0,1,7.6,4.291v.918Zm8.632-.893h0Z" transform="translate(-55 0)" fill="#5877ff"/>
      <path id="Path_1227" data-name="Path 1227" d="M2.4,24.393a.8.8,0,0,1-.8-.8v-2.4a.8.8,0,0,1,1.6,0v2.4A.8.8,0,0,1,2.4,24.393Zm9.6,0a.8.8,0,0,1-.8-.8v-5.6a.8.8,0,1,1,1.6,0v5.6A.8.8,0,0,1,12,24.393Zm-4.8,0a.8.8,0,0,1-.8-.8v-8.8a.8.8,0,1,1,1.6,0v8.8A.8.8,0,0,1,7.2,24.393Zm9.6,0a.8.8,0,0,1-.8-.8v-12a.8.8,0,1,1,1.6,0v12A.8.8,0,0,1,16.8,24.393Zm1.6,0H.8a.8.8,0,1,1,0-1.6H18.4a.8.8,0,1,1,0,1.6Z" transform="translate(-52.866 -2.396)" fill="#5877ff"/>
    </g>
    <rect id="Rectangle_2" data-name="Rectangle 2" width="55" height="48" transform="translate(0.5 638.5)" fill="rgba(255,255,255,0)"/>
  </g>
</svg>
