<svg xmlns="http://www.w3.org/2000/svg" width="14.995" height="15" viewBox="0 0 14.995 15">
  <g id="ic_close" transform="translate(-1181 -455)">
    <path id="Path_899" data-name="Path 899" d="M22.184,8.026a1.451,1.451,0,0,0-2.039,0l-5.04,5.04-5.04-5.04a1.442,1.442,0,0,0-2.039,2.039l5.04,5.04-5.04,5.04a1.451,1.451,0,0,0,0,2.039,1.44,1.44,0,0,0,2.039,0l5.04-5.04,5.04,5.04a1.44,1.44,0,0,0,2.039,0,1.451,1.451,0,0,0,0-2.039l-5.04-5.04,5.04-5.04A1.451,1.451,0,0,0,22.184,8.026Z" transform="translate(1173.393 447.393)" fill="#ff0000"/>
  </g>
</svg>
