<svg xmlns="http://www.w3.org/2000/svg" width="22" height="34" viewBox="0 0 22 34">
  <g id="Group_2226" data-name="Group 2226" transform="translate(-109 -126)">
    <rect id="Rectangle_906" data-name="Rectangle 906" width="22" height="34" transform="translate(109 126)" fill="#ddd"/>
    <g id="Group_2225" data-name="Group 2225">
      <g id="Group_2220" data-name="Group 2220">
        <circle id="Ellipse_70" data-name="Ellipse 70" cx="2" cy="2" r="2" transform="translate(115 129)" fill="#b7b7b7"/>
        <circle id="Ellipse_71" data-name="Ellipse 71" cx="2" cy="2" r="2" transform="translate(121 129)" fill="#b7b7b7"/>
      </g>
      <g id="Group_2221" data-name="Group 2221" transform="translate(0 6)">
        <circle id="Ellipse_70-2" data-name="Ellipse 70" cx="2" cy="2" r="2" transform="translate(115 129)" fill="#b7b7b7"/>
        <circle id="Ellipse_71-2" data-name="Ellipse 71" cx="2" cy="2" r="2" transform="translate(121 129)" fill="#b7b7b7"/>
      </g>
      <g id="Group_2222" data-name="Group 2222" transform="translate(0 12)">
        <circle id="Ellipse_70-3" data-name="Ellipse 70" cx="2" cy="2" r="2" transform="translate(115 129)" fill="#b7b7b7"/>
        <circle id="Ellipse_71-3" data-name="Ellipse 71" cx="2" cy="2" r="2" transform="translate(121 129)" fill="#b7b7b7"/>
      </g>
      <g id="Group_2223" data-name="Group 2223" transform="translate(0 18)">
        <circle id="Ellipse_70-4" data-name="Ellipse 70" cx="2" cy="2" r="2" transform="translate(115 129)" fill="#b7b7b7"/>
        <circle id="Ellipse_71-4" data-name="Ellipse 71" cx="2" cy="2" r="2" transform="translate(121 129)" fill="#b7b7b7"/>
      </g>
      <g id="Group_2224" data-name="Group 2224" transform="translate(0 24)">
        <circle id="Ellipse_70-5" data-name="Ellipse 70" cx="2" cy="2" r="2" transform="translate(115 129)" fill="#b7b7b7"/>
        <circle id="Ellipse_71-5" data-name="Ellipse 71" cx="2" cy="2" r="2" transform="translate(121 129)" fill="#b7b7b7"/>
      </g>
    </g>
  </g>
</svg>
