<svg xmlns="http://www.w3.org/2000/svg" width="30.849" height="30.849" viewBox="0 0 30.849 30.849">
  <path id="Icon_metro-delicious" data-name="Icon metro-delicious" d="M28.279,1.928H7.713A5.157,5.157,0,0,0,2.571,7.07V27.635a5.156,5.156,0,0,0,5.142,5.142H28.279a5.154,5.154,0,0,0,5.14-5.142V7.07a5.156,5.156,0,0,0-5.14-5.142Zm3.212,25.707a3.227,3.227,0,0,1-3.212,3.214H17.995v-13.5H4.5V7.07A3.229,3.229,0,0,1,7.713,3.856H17.995v13.5h13.5V27.635Z" transform="translate(-2.571 -1.928)" fill="#fff"/>
</svg>
