<svg xmlns="http://www.w3.org/2000/svg" width="26" height="26" viewBox="0 0 26 26">
  <g id="ic_office_on" transform="translate(-265.5 -119)">
    <rect id="Rectangle_1505" data-name="Rectangle 1505" width="26" height="26" transform="translate(265.5 119)" fill="rgba(255,255,255,0)"/>
    <g id="Layer_x0020_1" transform="translate(-2918 -1970.98)">
      <path id="Path_1263" data-name="Path 1263" d="M3198.856,2095.41l-.026,15.88-11.591-1.606a2.62,2.62,0,0,1,.984-.486c.331-.131.589-.231.914-.36.633-.25,1.288-.564,1.88-.728l0-10.831ZM3187,2109.544a1.176,1.176,0,0,0,.2.183,1.251,1.251,0,0,0,.266.127c.186.077.381.139.581.209.4.137.739.273,1.143.425l6.867,2.538c3.048,1.069,2.17,1.249,4.708.487l3.641-1.066c.656-.195.942-.146,1.012-.454v-18.029c-.133-.276-.065-.186-.476-.306l-1.828-.527c-.8-.227-1.6-.466-2.427-.711-.881-.262-1.6-.646-2.415-.311L3187,2096.329Z" fill="#5877ff" fill-rule="evenodd"/>
    </g>
  </g>
</svg>
