<svg xmlns="http://www.w3.org/2000/svg" width="117" height="117" viewBox="0 0 117 117">
  <g id="ic_Silver" transform="translate(-348 -267)">
    <rect id="Rectangle_2" data-name="Rectangle 2" width="117" height="117" transform="translate(348 267)" fill="#fff" opacity="0"/>
    <g id="noun_Badge_1145254" transform="translate(360.9 280.9)">
      <g id="Group_3098" data-name="Group 3098" transform="translate(16.1 5.1)">
        <path id="Path_1323" data-name="Path 1323" d="M60.321,69.7A24.735,24.735,0,0,0,54.7,72.4L48.74,76.3a5.654,5.654,0,0,1-5.358,0L37.42,72.4A29.819,29.819,0,0,0,31.8,69.7l-3.889-1.3L21,88.6l12.1-4.3L40.531,95,45.2,79.5l8.3,15.5,6.481-11.8,11.148,1.1-8.21-15.4Z" transform="translate(-16.1 -15.533)" fill="#c4c9cd" fill-rule="evenodd"/>
        <path id="Path_1324" data-name="Path 1324" d="M75.59,31.407,72.5,26.163a30.725,30.725,0,0,1-2.121-4.906L68.607,15.5a5.449,5.449,0,0,0-3.447-3.3l-6.011-1.692a33.723,33.723,0,0,1-5.127-2.03l-5.48-2.876a6.075,6.075,0,0,0-4.862,0L38.11,8.484a33.723,33.723,0,0,1-5.127,2.03l-6.011,1.692a5.449,5.449,0,0,0-3.447,3.3l-1.768,5.752a30.724,30.724,0,0,1-2.121,4.906L16.63,31.407a5.367,5.367,0,0,0,0,4.652L19.636,41.3a30.724,30.724,0,0,1,2.121,4.906l1.768,5.752a5.449,5.449,0,0,0,3.447,3.3l6.011,1.692a33.722,33.722,0,0,1,5.127,2.03l5.48,2.876a6.075,6.075,0,0,0,4.862,0l5.48-2.876a33.722,33.722,0,0,1,5.127-2.03l6.011-1.692a5.449,5.449,0,0,0,3.447-3.3l1.768-5.752A30.725,30.725,0,0,1,72.408,41.3l3.005-5.245A4.834,4.834,0,0,0,75.59,31.407Zm-21.922,4.4,1.68,9.728-9.281-4.483-9.281,4.483,1.68-9.728L31.039,28.87l10.342-1.523,4.685-8.713,4.685,8.8L61.093,28.87Z" transform="translate(-16.1 -5.1)" fill="#c4c9cd"/>
      </g>
    </g>
  </g>
</svg>
