<svg xmlns="http://www.w3.org/2000/svg" width="26" height="26" viewBox="0 0 26 26"><defs><style>.a{fill:rgba(255,255,255,0);}.b{fill:#5877ff;}</style></defs><g transform="translate(-687.4 -118.691)"><rect class="a" width="26" height="26" transform="translate(687.4 118.691)"/><path class="b" d="M3.672,20.767a.692.692,0,0,0,.243.54.753.753,0,0,0,.549.243h5.29a.871.871,0,0,1,.621.252.82.82,0,0,1,.27.612.834.834,0,0,1-.27.612.828.828,0,0,1-1.224,0,.815.815,0,0,0-.558-.234.7.7,0,0,0-.531.225.768.768,0,0,0-.216.549.732.732,0,0,0,.216.54,2.411,2.411,0,0,0,3.392.009,2.3,2.3,0,0,0,.7-1.691A2.411,2.411,0,0,0,9.754,20H4.464a.774.774,0,0,0-.558.225A.71.71,0,0,0,3.672,20.767Zm0-2.708a.669.669,0,0,0,.243.522.712.712,0,0,0,.549.216h9.887a2.389,2.389,0,1,0-1.7-4.1.829.829,0,0,0-.207.567.74.74,0,0,0,.207.531.7.7,0,0,0,.54.207.732.732,0,0,0,.549-.207.836.836,0,0,1,.612-.252.875.875,0,0,1,.873.864.865.865,0,0,1-.261.621.844.844,0,0,1-.612.261H4.464a.774.774,0,0,0-.558.225A.743.743,0,0,0,3.672,18.059Zm2.384-2.105c0,.072.054.108.153.108H7.5a.262.262,0,0,0,.2-.126,2.9,2.9,0,0,1,.945-1.215,2.592,2.592,0,0,1,1.43-.54l.468-.063a.152.152,0,0,0,.171-.171l.063-.45a3.656,3.656,0,0,1,1.242-2.438,3.867,3.867,0,0,1,5.137-.009A3.706,3.706,0,0,1,18.4,13.5l.063.513a.143.143,0,0,0,.162.162h1.466a2.86,2.86,0,0,1,2.078.855,2.878,2.878,0,0,1,0,4.111,2.86,2.86,0,0,1-2.078.855H13.874c-.1,0-.153.054-.153.162v1.233c0,.108.054.162.153.162h6.217a4.3,4.3,0,0,0,2.231-.6,4.457,4.457,0,0,0,2.213-3.869,4.266,4.266,0,0,0-.378-1.817,4.834,4.834,0,0,0,1.026-3A4.591,4.591,0,0,0,24.8,10.43a4.741,4.741,0,0,0-1.008-1.5,4.669,4.669,0,0,0-1.5-1,4.753,4.753,0,0,0-1.844-.369A4.528,4.528,0,0,0,16.96,9.116a5.061,5.061,0,0,0-2.384-.549A5.261,5.261,0,0,0,11.2,9.746,5.159,5.159,0,0,0,9.34,12.76a4.4,4.4,0,0,0-2.033,1.107,4.489,4.489,0,0,0-1.233,1.961v.036C6.065,15.909,6.056,15.945,6.056,15.954ZM18.228,9.989a3.146,3.146,0,0,1,2.231-.918,3.226,3.226,0,0,1,3.2,3.194A3.473,3.473,0,0,1,23.2,13.93a4.237,4.237,0,0,0-3.122-1.287h-.3A5.282,5.282,0,0,0,18.228,9.989Z" transform="translate(686.176 115.475)"/></g></svg>