<?xml version="1.0" encoding="utf-8"?>
<!-- Generator: Adobe Illustrator 23.0.3, SVG Export Plug-In . SVG Version: 6.00 Build 0)  -->
<svg version="1.1" id="Layer_1" xmlns="http://www.w3.org/2000/svg" xmlns:xlink="http://www.w3.org/1999/xlink" x="0px" y="0px"
	 viewBox="0 0 103 78" style="enable-background:new 0 0 103 78;" xml:space="preserve">
<style type="text/css">
	.st0{fill:#FFFFFF;}
	.st1{fill:#989898;}
</style>
<g>
	<g transform="matrix(1, 0, 0, 1, 445, 157)">
		<rect id="Rectangle_504-2" x="-436" y="-151" class="st0" width="85" height="60"/>
	</g>
	<path class="st1" d="M68.2,45.7c0-7.7,0-15.4,0-23.1c0-0.1,0-0.3-0.2-0.3c-1.5-0.4-2.9-0.8-4.4-1.3c-2.4-0.7-4.7-1.4-7.1-2
		c-0.2-0.1-0.4,0-0.6,0c-1.1,0.4-2.3,0.9-3.4,1.3c-2.9,1.1-5.7,2.2-8.6,3.2c-3,1.1-6,2.2-9,3.4c-0.2,0.1-0.2,0.1-0.2,0.3
		c0,7.9,0,15.7,0,23.6c0,0.2,0,0.2,0.2,0.3c1.7,0.6,3.4,1.3,5.1,1.9c2.4,0.9,4.8,1.8,7.3,2.7c2.4,0.9,4.8,1.8,7.2,2.7
		c0.6,0.2,1.1,0.4,1.7,0.7c0,0,0.1,0,0.1,0c0,0,0.1,0,0.1,0c1.2-0.3,2.3-0.6,3.5-1c2.7-0.7,5.4-1.5,8-2.2c0.2-0.1,0.3-0.1,0.3-0.3
		C68.2,52.2,68.2,49,68.2,45.7z M56.3,27.3c0,8,0,16,0,24c0,0.8,0,1.7,0,2.5c0,0.2,0,0.2-0.2,0.2c-0.9-0.1-1.8-0.3-2.7-0.4
		c-1-0.1-2-0.3-3-0.4c-1-0.1-2.1-0.3-3.1-0.4c-1.4-0.2-2.9-0.4-4.3-0.6c-1.5-0.2-2.9-0.4-4.4-0.6c-1.1-0.2-2.3-0.3-3.4-0.5
		c-0.1,0-0.1,0-0.2,0c0,0,0,0,0,0c0.8-0.3,1.6-0.6,2.4-0.9c1.5-0.6,3-1.2,4.5-1.8c0.2-0.1,0.2-0.2,0.2-0.3c0-6.3,0-12.7,0-19
		c0-0.2,0.1-0.3,0.3-0.4c2.8-0.6,5.5-1.3,8.3-2c1.8-0.4,3.6-0.9,5.4-1.3c0.2,0,0.2,0,0.2,0.2C56.3,26.1,56.3,26.7,56.3,27.3z"/>
</g>
</svg>
