<svg xmlns="http://www.w3.org/2000/svg" xmlns:xlink="http://www.w3.org/1999/xlink" width="103" height="78" viewBox="0 0 103 78">
  <defs>
    <filter id="Rectangle_519" x="0" y="0" width="103" height="78" filterUnits="userSpaceOnUse">
      <feOffset dy="3" input="SourceAlpha"/>
      <feGaussianBlur stdDeviation="3" result="blur"/>
      <feFlood flood-opacity="0.161"/>
      <feComposite operator="in" in2="blur"/>
      <feComposite in="SourceGraphic"/>
    </filter>
  </defs>
  <g id="Group_1549" data-name="Group 1549" transform="translate(-349 -247)">
    <g transform="matrix(1, 0, 0, 1, 349, 247)" filter="url(#Rectangle_519)">
      <rect id="Rectangle_519-2" data-name="Rectangle 519" width="85" height="60" transform="translate(9 6)" fill="#fff"/>
    </g>
    <g id="Group_1532" data-name="Group 1532" transform="translate(350.578 233.5)">
      <g id="Group_1503" data-name="Group 1503">
        <path id="Path_951" data-name="Path 951" d="M43.711,46.285a2.507,2.507,0,0,0,1-.563,3.119,3.119,0,0,0,.754-1.244,4.615,4.615,0,0,0,.216-1.5,5.238,5.238,0,0,0-.23-1.667,3.077,3.077,0,0,0-.674-1.142,2.349,2.349,0,0,0-1.063-.649,5.1,5.1,0,0,0-1.34-.135h-2.6v7.046H42.45A4.361,4.361,0,0,0,43.711,46.285ZM41.2,45.247V40.578h.64A6.405,6.405,0,0,1,43,40.646a1.337,1.337,0,0,1,.659.332,1.59,1.59,0,0,1,.4.68,4.221,4.221,0,0,1,.145,1.256,4.564,4.564,0,0,1-.145,1.291,1.477,1.477,0,0,1-.374.679,1.3,1.3,0,0,1-.574.293,3.844,3.844,0,0,1-.859.068H41.2Z" fill="#999"/>
        <path id="Path_952" data-name="Path 952" d="M50.028,46.553a3.291,3.291,0,0,0,2.481-.964,3.7,3.7,0,0,0,.926-2.669,3.713,3.713,0,0,0-.933-2.688,3.308,3.308,0,0,0-2.492-.966,3.859,3.859,0,0,0-1.519.277,2.763,2.763,0,0,0-.91.634,3.294,3.294,0,0,0-.656.968,4.457,4.457,0,0,0-.322,1.807,3.635,3.635,0,0,0,.928,2.641A3.3,3.3,0,0,0,50.028,46.553ZM48.6,41.086a1.969,1.969,0,0,1,2.829-.007,2.653,2.653,0,0,1,.531,1.807,2.694,2.694,0,0,1-.546,1.839,1.9,1.9,0,0,1-2.8,0,3.3,3.3,0,0,1-.014-3.635Z" fill="#999"/>
        <path id="Path_953" data-name="Path 953" d="M57.521,40.483a1.456,1.456,0,0,1,1.486,1.182l1.408-.336a2.782,2.782,0,0,0-.722-1.3,2.934,2.934,0,0,0-2.1-.764,3.113,3.113,0,0,0-2.387.972,3.849,3.849,0,0,0-.909,2.733,3.665,3.665,0,0,0,.9,2.621,3.321,3.321,0,0,0,4.18.4,3.089,3.089,0,0,0,1.054-1.715l-1.379-.437a2.11,2.11,0,0,1-.585,1.135,1.435,1.435,0,0,1-.976.36,1.565,1.565,0,0,1-1.25-.567,2.95,2.95,0,0,1-.481-1.9,2.756,2.756,0,0,1,.488-1.822A1.6,1.6,0,0,1,57.521,40.483Z" fill="#999"/>
        <path id="Path_954" data-name="Path 954" d="M67.578,34.478,60.6,27.5H32.422v45H67.578ZM66.172,71.094H33.828V28.906h26.19l6.154,6.154Z" fill="#999"/>
        <rect id="Rectangle_507" data-name="Rectangle 507" width="21.074" height="1.406" transform="translate(39.463 61.308)" fill="#999"/>
        <rect id="Rectangle_508" data-name="Rectangle 508" width="21.074" height="1.406" transform="translate(39.463 56.328)" fill="#999"/>
      </g>
    </g>
  </g>
</svg>
