<svg xmlns="http://www.w3.org/2000/svg" width="30.833" height="37" viewBox="0 0 30.833 37"><defs><style>.a{fill:#fff;}</style></defs><path class="a" d="M26.251,37H4.582A4.587,4.587,0,0,1,0,32.418V4.582A4.587,4.587,0,0,1,4.582,0H26.253a4.586,4.586,0,0,1,4.58,4.582V32.42A4.586,4.586,0,0,1,26.251,37ZM4.582,3.083a1.5,1.5,0,0,0-1.5,1.5V32.42a1.5,1.5,0,0,0,1.5,1.5H26.253a1.5,1.5,0,0,0,1.5-1.5V4.582a1.5,1.5,0,0,0-1.5-1.5Zm12.1,29.077a1.544,1.544,0,0,1-1.536-1.673l.214-2.5L13.426,26.4a1.542,1.542,0,0,1,.631-2.692L16.5,23.14l.916-2.333a1.541,1.541,0,0,1,2.755-.233l1.3,2.146,2.5.15a1.54,1.54,0,0,1,1.073,2.547l-1.64,1.895.631,2.425a1.54,1.54,0,0,1-2.09,1.808l-2.309-.974L17.515,31.92a1.549,1.549,0,0,1-.831.241ZM17.8,26l.15.123a1.54,1.54,0,0,1,.557,1.321l-.017.191.162-.1a1.537,1.537,0,0,1,1.429-.12l.177.074-.048-.185a1.537,1.537,0,0,1,.327-1.4l.126-.145-.191-.012a1.544,1.544,0,0,1-1.229-.742l-.1-.163-.069.177a1.534,1.534,0,0,1-1.085.937Zm5.33-15.21H7.708a1.542,1.542,0,1,1,0-3.083H23.125a1.542,1.542,0,0,1,0,3.083Zm0,4.625H7.708a1.542,1.542,0,1,1,0-3.083H23.125a1.542,1.542,0,0,1,0,3.083Zm-9.25,4.625H7.708a1.542,1.542,0,0,1,0-3.083h6.167a1.542,1.542,0,0,1,0,3.083Z" transform="translate(0 0)"/></svg>