<svg xmlns="http://www.w3.org/2000/svg" width="55" height="48" viewBox="0 0 55 48">
  <g id="Group_7" data-name="Group 7" transform="translate(-127 186)">
    <rect id="Rectangle_1" data-name="Rectangle 1" width="55" height="48" transform="translate(127 -186)" fill="none"/>
    <g id="Group_6" data-name="Group 6" transform="translate(128.852 -186.783)">
      <g id="Group_4" data-name="Group 4" transform="translate(11.017 10.597)">
        <g id="Group_3" data-name="Group 3" transform="translate(6.51 6.757)">
          <g id="Group_1" data-name="Group 1" transform="translate(3.623)">
            <path id="Path_1" data-name="Path 1" d="M47.48,40.016a3.852,3.852,0,1,1,3.8-3.9A3.855,3.855,0,0,1,47.48,40.016Z" transform="translate(-43.581 -32.313)" fill="#682875"/>
          </g>
          <g id="Group_2" data-name="Group 2" transform="translate(0 7.696)">
            <path id="Path_2" data-name="Path 2" d="M32.436,63.083a.5.5,0,0,1-.5-.552c.37-3.428,1.9-5.2,4.664-5.412a.5.5,0,0,1,.33.092,4.23,4.23,0,0,0,2.486.818h.051a4.208,4.208,0,0,0,2.512-.879.5.5,0,0,1,.328-.1c2.774.144,4.344,1.876,4.8,5.3a.5.5,0,0,1-.488.564l-14.18.176Z" transform="translate(-31.937 -57.047)" fill="#682875"/>
          </g>
        </g>
        <path id="Path_3" data-name="Path 3" d="M41.123,57.736,35.98,61.72l2.364.966a12.715,12.715,0,0,1-24.051-5.575.654.654,0,1,0-1.309.017A14.025,14.025,0,0,0,39.56,63.184l2.443,1Z" transform="translate(-12.373 -42.193)" fill="#682875"/>
        <path id="Path_4" data-name="Path 4" d="M31.308,11.632A14.048,14.048,0,0,0,13.46,18.361l-2.443-1,.879,6.447,5.144-3.984-2.364-.966a12.716,12.716,0,0,1,24.051,5.575.654.654,0,1,0,1.308-.017A13.977,13.977,0,0,0,31.308,11.632Z" transform="translate(-11.017 -10.597)" fill="#682875"/>
      </g>
    </g>
  </g>
</svg>
