<svg xmlns="http://www.w3.org/2000/svg" width="55" height="48" viewBox="0 0 55 48"><defs><style>.a{fill:rgba(255,255,255,0);}.b{fill:#5877ff;}</style></defs><g transform="translate(-0.5 -71.5)"><rect class="a" width="55" height="48" transform="translate(0.5 71.5)"/><path class="b" d="M3.672,22.3a.772.772,0,0,0,.271.6.84.84,0,0,0,.612.271h5.9a.971.971,0,0,1,.693.281.915.915,0,0,1,.3.683.93.93,0,0,1-.3.683.924.924,0,0,1-1.365,0,.91.91,0,0,0-.622-.261.782.782,0,0,0-.592.251.857.857,0,0,0-.241.612.817.817,0,0,0,.241.6,2.69,2.69,0,0,0,3.784.01,2.561,2.561,0,0,0,.783-1.887,2.69,2.69,0,0,0-2.68-2.7h-5.9a.864.864,0,0,0-.622.251A.792.792,0,0,0,3.672,22.3Zm0-3.021a.747.747,0,0,0,.271.582.794.794,0,0,0,.612.241H15.587a2.665,2.665,0,1,0,0-5.33,2.572,2.572,0,0,0-1.9.753.925.925,0,0,0-.231.632.826.826,0,0,0,.231.592.78.78,0,0,0,.6.231.817.817,0,0,0,.612-.231.932.932,0,0,1,.683-.281.977.977,0,0,1,.974.964.965.965,0,0,1-.291.693.942.942,0,0,1-.683.291H4.555a.864.864,0,0,0-.622.251A.829.829,0,0,0,3.672,19.274Zm2.66-2.349c0,.08.06.12.171.12H7.938a.292.292,0,0,0,.221-.141A3.237,3.237,0,0,1,9.213,15.55a2.892,2.892,0,0,1,1.6-.6l.522-.07a.17.17,0,0,0,.191-.191l.07-.5a4.079,4.079,0,0,1,1.385-2.72,4.315,4.315,0,0,1,5.731-.01,4.135,4.135,0,0,1,1.4,2.73l.07.572a.16.16,0,0,0,.181.181h1.636a3.191,3.191,0,0,1,2.319.954,3.211,3.211,0,0,1,0,4.587,3.191,3.191,0,0,1-2.319.954H15.055c-.11,0-.171.06-.171.181v1.375c0,.12.06.181.171.181h6.936A4.8,4.8,0,0,0,24.48,22.5a4.973,4.973,0,0,0,2.469-4.316,4.759,4.759,0,0,0-.422-2.028,5.393,5.393,0,0,0,1.144-3.343,5.123,5.123,0,0,0-.422-2.048,5.29,5.29,0,0,0-1.124-1.676A5.21,5.21,0,0,0,24.45,7.972a5.3,5.3,0,0,0-2.058-.412A5.052,5.052,0,0,0,18.5,9.3a5.646,5.646,0,0,0-2.66-.612A5.87,5.87,0,0,0,12.074,10,5.756,5.756,0,0,0,10,13.362,4.9,4.9,0,0,0,7.727,14.6a5.009,5.009,0,0,0-1.375,2.188v.04C6.342,16.875,6.332,16.915,6.332,16.925ZM19.913,10.27A3.51,3.51,0,0,1,22.4,9.246a3.6,3.6,0,0,1,3.573,3.563,3.875,3.875,0,0,1-.512,1.857,4.727,4.727,0,0,0-3.483-1.435h-.331A5.893,5.893,0,0,0,19.913,10.27Z" transform="translate(12.328 78.44)"/></g></svg>