<svg xmlns="http://www.w3.org/2000/svg" width="26" height="26" viewBox="0 0 26 26">
  <g id="Icon_Inline_Image_Off" transform="translate(-851 -119)">
    <path id="Path_1277" data-name="Path 1277" d="M22,22H2a2,2,0,0,1-2-2V4A2,2,0,0,1,2,2H22a2,2,0,0,1,2,2V20A2,2,0,0,1,22,22Zm0-2v0ZM22,4,2,4,2,20l20,0Zm-5,7a3,3,0,1,1,3-3A3,3,0,0,1,17,11Zm0-4a1,1,0,1,0,1,1A1,1,0,0,0,17,7ZM1,18a1,1,0,0,1-.659-1.753l8-7a1,1,0,0,1,1.3-.016l6,5a1,1,0,1,1-1.281,1.537L9.015,11.314,1.658,17.752A.989.989,0,0,1,1,18Zm22,0a.994.994,0,0,1-.624-.219L18,14.28l-4.375,3.5a1,1,0,1,1-1.25-1.562l5-4a1,1,0,0,1,1.25,0l5,4A1,1,0,0,1,23,18Z" transform="translate(852.001 120)" fill="#666"/>
    <rect id="Rectangle_1506" data-name="Rectangle 1506" width="26" height="26" transform="translate(851 119)" fill="rgba(255,255,255,0)"/>
  </g>
</svg>
