<svg xmlns="http://www.w3.org/2000/svg" width="26" height="26" viewBox="0 0 26 26">
  <g id="Icon_ePub_Off" transform="translate(-741 -119)">
    <path id="Path_1268" data-name="Path 1268" d="M30.141,13.835V3.171a6.791,6.791,0,0,0-5.065-.35V13.485A6.794,6.794,0,0,1,30.141,13.835ZM25.909,4.62a6.014,6.014,0,0,1,3.5.1.4.4,0,0,1,.233.533.411.411,0,0,1-.384.267.48.48,0,0,1-.149-.034,5.191,5.191,0,0,0-3.017-.066.42.42,0,0,1-.5-.316A.4.4,0,0,1,25.909,4.62Zm0,2.133a6,6,0,0,1,3.5.1.405.405,0,0,1,.233.533.411.411,0,0,1-.384.266.493.493,0,0,1-.149-.034,5.183,5.183,0,0,0-3.017-.066.42.42,0,0,1-.5-.317A.407.407,0,0,1,25.909,6.754Zm0,2.133a6.014,6.014,0,0,1,3.5.1.405.405,0,0,1,.233.533.411.411,0,0,1-.384.266.493.493,0,0,1-.149-.034A5.382,5.382,0,0,0,26.075,9.7a.421.421,0,0,1-.5-.317A.44.44,0,0,1,25.909,8.886Zm-.316,2.633a.429.429,0,0,1,.316-.5,6.01,6.01,0,0,1,3.5.1.4.4,0,0,1,.233.533.411.411,0,0,1-.384.267.494.494,0,0,1-.149-.034,5.536,5.536,0,0,0-3.033-.049A.4.4,0,0,1,25.593,11.519Z" transform="translate(729.255 119)" fill="#666"/>
    <path id="Path_1269" data-name="Path 1269" d="M17.5,13.487V2.823a6.706,6.706,0,0,0-5.065.367V13.853A6.711,6.711,0,0,1,17.5,13.487ZM13.22,4.622a6.014,6.014,0,0,1,3.5.1.405.405,0,0,1,.233.533.411.411,0,0,1-.384.267.478.478,0,0,1-.149-.034A5.187,5.187,0,0,0,13.4,5.422a.421.421,0,0,1-.5-.316A.413.413,0,0,1,13.22,4.622Zm0,2.133a6,6,0,0,1,3.5.1.406.406,0,0,1,.233.533.411.411,0,0,1-.384.266.49.49,0,0,1-.149-.034A5.179,5.179,0,0,0,13.4,7.555a.41.41,0,1,1-.184-.8Zm0,2.133a6.014,6.014,0,0,1,3.5.1.406.406,0,0,1,.233.533.411.411,0,0,1-.384.266.49.49,0,0,1-.149-.034A5.2,5.2,0,0,0,13.4,9.688a.41.41,0,1,1-.184-.8Zm.184,2.95a.419.419,0,0,1-.184-.817,6.01,6.01,0,0,1,3.5.1.405.405,0,0,1,.233.533.412.412,0,0,1-.384.267.491.491,0,0,1-.149-.034A5.473,5.473,0,0,0,13.4,11.838Z" transform="translate(735.996 118.998)" fill="#666"/>
    <rect id="Rectangle_1627" data-name="Rectangle 1627" width="12.464" height="1.817" transform="translate(747.765 140.683)" fill="#666"/>
    <rect id="Rectangle_1628" data-name="Rectangle 1628" width="7.481" height="0.633" transform="translate(750.249 139.201)" fill="#666"/>
    <path id="Path_1270" data-name="Path 1270" d="M18.612,11.685v1.55h2.568v9.181H3.549V13.235h2.4v-1.55H1.866V24.232H22.861V11.685Z" transform="translate(741.634 114.101)" fill="#666"/>
    <rect id="Rectangle_1506" data-name="Rectangle 1506" width="26" height="26" transform="translate(741 119)" fill="rgba(255,255,255,0)"/>
  </g>
</svg>
