<?xml version="1.0" encoding="UTF-8"?>
<!-- Generator: Adobe Illustrator 22.1.0, SVG Export Plug-In . SVG Version: 6.00 Build 0)  -->
<svg version="1.1" id="Layer_1" xmlns="http://www.w3.org/2000/svg" xmlns:xlink="http://www.w3.org/1999/xlink" x="0px" y="0px" viewBox="0 0 15.7 16.2" style="enable-background:new 0 0 15.7 16.2;" xml:space="preserve">
<style type="text/css">
	.st0{fill:#FFFFFF;}
</style>
<path class="st0" d="M7.8,1.1c-0.6,0-1,0.4-1,1c0,0.3,0.1,0.5,0.3,0.7l4.3,4.3H1.9c-0.6,0-1,0.4-1,1c0,0.6,0.4,1,1,1  c0,0,0.2,0,0.2,0h9.4l-4.3,4.3c-0.4,0.4-0.4,1,0,1.4s1,0.4,1.4,0c0,0,0,0,0,0l6-6c0.4-0.4,0.4-1,0-1.4l-6-6C8.4,1.2,8.1,1.1,7.8,1.1  z"/>
</svg>