<svg xmlns="http://www.w3.org/2000/svg" viewBox="0 0 40.528 42.729">
  <defs>
    <style>
      .cls-1 {
        fill: #0b7ba1;
      }
    </style>
  </defs>
  <g id="Instructor" transform="translate(-399.077 7485.864)">
    <path id="instructor_2" class="cls-1" d="M24.949,28.872a8.872,8.872,0,1,1,8.872,8.872A8.875,8.875,0,0,1,24.949,28.872ZM50.288,48.107a2.839,2.839,0,1,0,2.839,2.839A2.847,2.847,0,0,0,50.288,48.107Zm11.64.355V53.43a1.424,1.424,0,0,1-1.42,1.42h-.568c0,.071-.071.071-.071.142l.426.426a1.372,1.372,0,0,1,0,1.987l-3.478,3.478a1.372,1.372,0,0,1-1.987,0l-.426-.426c-.071,0-.071.071-.142.071v.639a1.424,1.424,0,0,1-1.42,1.42H47.875a1.424,1.424,0,0,1-1.42-1.42V60.6c-.071,0-.071-.071-.142-.071l-.426.426a1.372,1.372,0,0,1-1.987,0l-3.478-3.478a1.372,1.372,0,0,1,0-1.987l.426-.426c0-.071-.071-.071-.071-.142h-.568a1.424,1.424,0,0,1-1.42-1.42V48.533a1.424,1.424,0,0,1,1.42-1.42h.568c0-.071.071-.071.071-.142l-.426-.426a1.372,1.372,0,0,1,0-1.987L43.9,41.08a1.372,1.372,0,0,1,1.987,0l.426.426c.071,0,.071-.071.142-.071v-.568a1.424,1.424,0,0,1,1.42-1.42h4.968a1.424,1.424,0,0,1,1.42,1.42v.568c.071,0,.071.071.142.071l.426-.426a1.372,1.372,0,0,1,1.987,0L60.3,44.558a1.372,1.372,0,0,1,0,1.987l-.426.426c0,.071.071.071.071.142h.568A1.323,1.323,0,0,1,61.928,48.462Zm-5.962,2.484a5.678,5.678,0,1,0-5.678,5.678A5.695,5.695,0,0,0,55.966,50.946Zm-17.177,8.02A3.24,3.24,0,0,1,37.8,56.2a3.51,3.51,0,0,1-1.278-2.7V48.533a3.51,3.51,0,0,1,1.278-2.7,3.626,3.626,0,0,1,.994-2.768l3.478-3.478a.07.07,0,0,0,.071-.071,6.212,6.212,0,0,0-1.136-.142H26.3a4.907,4.907,0,0,0-4.9,4.9V61.309a1.424,1.424,0,0,0,1.42,1.42h19.59c-.071-.071-.142-.071-.213-.142Z" transform="translate(377.677 -7505.864)"/>
  </g>
</svg>
