<svg xmlns="http://www.w3.org/2000/svg" viewBox="0 0 50.245 45">
  <defs>
    <style>
      .cls-1 {
        fill: #0b7ba1;
      }
    </style>
  </defs>
  <g id="Institute" transform="translate(-394 7575)">
    <path id="institute_management" class="cls-1" d="M46.028,24.239H10.972a.955.955,0,0,1,0-1.91H46.028a.984.984,0,0,1,.955.955A.914.914,0,0,1,46.028,24.239ZM28.5,12.61,8.725,21.992H48.275Zm1.742,30.506h5.674v-.393H30.241Zm.169-.955V42.5h5.281v-.337Zm4.607-17.528H31.14a1.124,1.124,0,1,0,0,2.247V39.913a.851.851,0,0,0-.73.843V41.88h5.281V40.756a.806.806,0,0,0-.73-.843V26.936a1.127,1.127,0,0,0,1.124-1.124A1.064,1.064,0,0,0,35.017,24.633ZM21.14,43.116h5.674v-.393H21.14Zm.169-.955V42.5H26.59v-.337Zm4.607-17.528H22.039a1.124,1.124,0,1,0,0,2.247V39.913a.851.851,0,0,0-.73.843V41.88H26.59V40.756a.806.806,0,0,0-.73-.843V26.936a1.127,1.127,0,0,0,1.124-1.124A1.064,1.064,0,0,0,25.916,24.633ZM12.039,43.116h5.674v-.393H12.039Zm.225-.955V42.5h5.281v-.337Zm4.551-17.528H12.938a1.124,1.124,0,1,0,0,2.247V39.913a.851.851,0,0,0-.73.843V41.88h5.281V40.756a.806.806,0,0,0-.73-.843V26.936a1.127,1.127,0,0,0,1.124-1.124A1.064,1.064,0,0,0,16.815,24.633Zm33.539-2.247a.206.206,0,0,0,.169.056.473.473,0,0,0,.393-.225.425.425,0,0,0,.056-.225.473.473,0,0,0-.225-.393L28.725,10.756h0a.611.611,0,0,0-.281-.056h-.056L6.309,21.6a.485.485,0,0,0-.225.562.534.534,0,0,0,.562.225L28.5,11.655ZM8.725,47.779a.9.9,0,1,0,0,1.8h28.09c-.169-.562-.281-1.18-.393-1.742H8.725Zm1.067-2.191a.9.9,0,0,0,0,1.8H36.421c0-.281-.056-.618-.056-.9a4.252,4.252,0,0,1,.056-.843H9.792ZM36.815,43.4H10.972a.9.9,0,1,0,0,1.8H36.477A6.013,6.013,0,0,1,36.815,43.4Zm7.247-7.247V26.936a1.124,1.124,0,0,0,0-2.247H40.185a1.124,1.124,0,0,0,0,2.247V38.228A10.389,10.389,0,0,1,44.062,36.149Zm12.247,9.045V47.61a.864.864,0,0,1-.843.843h-1.18a2.013,2.013,0,0,1-.225.618,7.959,7.959,0,0,1-.449,1.011l.843.843a.815.815,0,0,1,0,1.18L52.77,53.79a.815.815,0,0,1-1.18,0l-.9-.787c-.225.112-.449.225-.73.337s-.618.225-.9.337v1.18a.864.864,0,0,1-.843.843H45.8a.864.864,0,0,1-.843-.843v-1.18c-.337-.112-.618-.225-.955-.337L43.331,53l-.843.843a.814.814,0,0,1-1.18,0l-1.685-1.685a.815.815,0,0,1,0-1.18l.843-.843c-.112-.225-.281-.506-.393-.787a4.944,4.944,0,0,1-.281-.843h-1.18a.864.864,0,0,1-.843-.843V45.251a.864.864,0,0,1,.843-.843h1.18a4.943,4.943,0,0,1,.281-.843,3.432,3.432,0,0,1,.393-.787l-.843-.843a.815.815,0,0,1,0-1.18l1.685-1.685a.814.814,0,0,1,1.18,0l.843.843.674-.337a4.21,4.21,0,0,1,.9-.281v-1.18a.864.864,0,0,1,.843-.843h2.416a.864.864,0,0,1,.843.843V39.3a3.249,3.249,0,0,1,.787.281c.225.112.562.281.843.393l.843-.843a.815.815,0,0,1,1.18,0l1.685,1.685a.815.815,0,0,1,0,1.18l-.843.843a3.776,3.776,0,0,1,.337.674c.112.281.225.618.337.955h1.292A.711.711,0,0,1,56.309,45.194Zm-1.685.843H53.612a.913.913,0,0,1-.843-.618c-.112-.337-.281-1.011-.393-1.292a5.852,5.852,0,0,0-.562-1.011.85.85,0,0,1,.112-1.067l.73-.73-.506-.506-.73.73a.78.78,0,0,1-1.011.112,7.81,7.81,0,0,0-1.18-.618,7.235,7.235,0,0,0-1.18-.337.9.9,0,0,1-.674-.843V38.846h-.73v1.011a.913.913,0,0,1-.618.843c-.337.112-1.011.281-1.292.393a9.091,9.091,0,0,0-1.011.562.85.85,0,0,1-1.067-.112l-.73-.73-.506.506.73.73a.85.85,0,0,1,.112,1.067,3.885,3.885,0,0,0-.562,1.067,4.664,4.664,0,0,0-.337,1.18v.056a.962.962,0,0,1-.9.674h-.955v.73h1.011a.9.9,0,0,1,.843.674,4.087,4.087,0,0,0,.337,1.18,6.4,6.4,0,0,0,.562,1.067.85.85,0,0,1-.112,1.067l-.73.73.506.506.73-.73a.85.85,0,0,1,1.067-.112,9.089,9.089,0,0,0,1.011.562,10.482,10.482,0,0,0,1.236.393.847.847,0,0,1,.674.843v1.011h.73V53a.9.9,0,0,1,.674-.843,4.541,4.541,0,0,0,1.236-.393,5.853,5.853,0,0,0,1.011-.562.85.85,0,0,1,1.067.112l.73.73.506-.506-.73-.73a.85.85,0,0,1-.112-1.067,5.286,5.286,0,0,0,.674-1.236,6.792,6.792,0,0,0,.281-1.011.847.847,0,0,1,.843-.674h1.011v-.787Zm-3.315.393a4.27,4.27,0,1,1-4.27-4.27A4.268,4.268,0,0,1,51.309,46.43Zm-1.685,0a2.584,2.584,0,1,0-2.584,2.584A2.614,2.614,0,0,0,49.624,46.43Z" transform="translate(387.936 -7585.7)"/>
  </g>
</svg>
