<svg xmlns="http://www.w3.org/2000/svg" width="35.001" height="42" viewBox="0 0 35.001 42">
  <g id="iStudent_home" transform="translate(-678 -371)">
    <path id="Shape_6" data-name="Shape 6" d="M37.977,172.25v-3.5h-3.5a1.75,1.75,0,0,1,0-3.5h7.012a3.5,3.5,0,0,0,3.489-3.489v-3.508a1.748,1.748,0,0,1,1.75-1.751h1.748l0-7a14,14,0,0,0-28,0v1.75a15.427,15.427,0,0,0,3.1,9.39,1.522,1.522,0,0,1,.106.2,1.594,1.594,0,0,1,.175.328,137.1,137.1,0,0,0,.117.583v10.5a1.75,1.75,0,1,1-3.5,0v-9.929a18.991,18.991,0,0,1-3.5-11.071V149.5a17.5,17.5,0,0,1,35,0v7a3.509,3.509,0,0,1-3.5,3.5h0v1.758a7,7,0,0,1-6.988,6.988h-.013v3.5a1.75,1.75,0,1,1-3.5,0Zm-2.57-18.507a3.371,3.371,0,0,1-.929-2.493,1.75,1.75,0,0,1,3.5-.03,11.823,11.823,0,0,0,1.274.033l.476,0,.477,0a12.649,12.649,0,0,0,1.273-.033,1.751,1.751,0,0,1,3.5.031,3.371,3.371,0,0,1-.929,2.493,4.565,4.565,0,0,1-3.443,1.011l-.428,0-.45,0-.449,0c-.165,0-.33,0-.5,0A4.5,4.5,0,0,1,35.406,153.744Z" transform="translate(661.023 239)" fill="#fff"/>
  </g>
</svg>
