<svg xmlns="http://www.w3.org/2000/svg" xmlns:xlink="http://www.w3.org/1999/xlink" width="55" height="48" viewBox="0 0 55 48">
  <defs>
    <clipPath id="clip-path">
      <rect id="Rectangle_982" data-name="Rectangle 982" width="55" height="48"/>
    </clipPath>
  </defs>
  <g id="licence" clip-path="url(#clip-path)">
    <rect id="Rectangle_981" data-name="Rectangle 981" width="55" height="48" fill="#fff" opacity="0"/>
    <g id="noun_Certificate_878663" transform="translate(17 11)">
      <path id="Path_925" data-name="Path 925" d="M18.71,26.371H3.266A3.269,3.269,0,0,1,0,23.105V3.266A3.269,3.269,0,0,1,3.266,0H18.711a3.269,3.269,0,0,1,3.265,3.266V23.107A3.269,3.269,0,0,1,18.71,26.371ZM3.266,2.2A1.069,1.069,0,0,0,2.2,3.266V23.107a1.069,1.069,0,0,0,1.068,1.067H18.711a1.069,1.069,0,0,0,1.067-1.068V3.266A1.069,1.069,0,0,0,18.71,2.2Zm8.626,20.724A1.1,1.1,0,0,1,10.8,21.73l.153-1.779-1.38-1.134a1.1,1.1,0,0,1,.449-1.918l1.738-.405.653-1.662a1.1,1.1,0,0,1,1.964-.166l.923,1.53,1.782.107a1.1,1.1,0,0,1,.765,1.815l-1.169,1.35.449,1.728a1.1,1.1,0,0,1-1.49,1.289l-1.646-.694-1.5.961a1.1,1.1,0,0,1-.592.171Zm.792-4.39.107.088a1.1,1.1,0,0,1,.4.942l-.012.136.115-.074a1.1,1.1,0,0,1,1.019-.086l.126.053L14.4,19.46a1.1,1.1,0,0,1,.233-1l.09-.1-.136-.009a1.1,1.1,0,0,1-.876-.529l-.07-.116-.049.126a1.093,1.093,0,0,1-.774.668l-.135.031Zm3.8-10.841H5.494a1.1,1.1,0,0,1,0-2.2H16.482a1.1,1.1,0,0,1,0,2.2Zm0,3.3H5.494a1.1,1.1,0,1,1,0-2.2H16.482a1.1,1.1,0,0,1,0,2.2Zm-6.593,3.3h-4.4a1.1,1.1,0,1,1,0-2.2h4.4a1.1,1.1,0,0,1,0,2.2Z" fill="#1d2858"/>
    </g>
  </g>
</svg>
