<?xml version="1.0" encoding="utf-8"?>
<!-- Generator: Adobe Illustrator 23.0.2, SVG Export Plug-In . SVG Version: 6.00 Build 0)  -->
<svg version="1.1" id="Layer_1" xmlns="http://www.w3.org/2000/svg" xmlns:xlink="http://www.w3.org/1999/xlink" x="0px" y="0px"
	 viewBox="0 0 850 200" style="enable-background:new 0 0 850 200;" xml:space="preserve">
<style type="text/css">
	.st0{fill:#00205B;}
</style>
<g>
	<path class="st0" d="M420.3,69.9c9.9,0.2,20.3-7.6,19.8-18.3c-0.5-9.6-9.6-14.5-18.2-14.6c-9.7-0.2-20.2,7.1-19.6,17.6
		C402.6,63.8,411.5,69.7,420.3,69.9"/>
	<path class="st0" d="M521.6,111.4c-1.3,13.8-14.5,34.1-28.5,34.1c-9.4,0-12.3-5.5-11.3-12.4c0.8-5.9,1.4-8.6,1.4-8.6l5.4-31.4
		l18.9,0.4C518.8,93.4,522.4,101.6,521.6,111.4 M528.2,81.1h-71l-10.6,54.3c-4.1,3.2-8.9,6.5-13.4,6.5c-7.4,0-10.8-6.6-10.4-12.2
		c1.4-9.5,8.6-48.5,8.6-48.5h-33c0,0-8.7,41.1-8.3,54.5c-4.1,4.1-10.1,8.3-14.9,8.3c-6.1,0-7.8-4.4-8.1-9.7c-0.3-5.1,2-14.3,2-14.3
		l14.3-78.9h-32.9l-13.5,68.8c0,0-3.8,15.5-3.3,24.2c0.9,16.3,12.9,26.5,28.9,26.5c12.9,0,23.1-4.7,31.6-11
		c4.2,7,11.3,11.2,21.1,11.2c10.9,0,20.4-4.6,28.6-10.6l-7.6,38.8h34.3l6.3-33.3c7.5,4.6,11.3,4.7,21.1,4.7c10,0,23.7-2.5,33.7-9.1
		c14.8-9.9,26-25,25-44.6C556,89.6,544.3,81.1,528.2,81.1"/>
	<path class="st0" d="M595.1,69.9c9.9,0.2,20.3-7.6,19.8-18.3c-0.5-9.6-9.7-14.5-18.2-14.6c-9.7-0.2-20.2,7.1-19.6,17.6
		C577.5,63.8,586.4,69.7,595.1,69.9"/>
	<path class="st0" d="M817.5,131.9c-2.7,2.1-5.2,4.9-8.8,5.6c-6.2,1.2-9.3-4.3-11.8-9.2c-3.7-7.1-9.5-17.8-23.8-14.8l33-24.4
		l-9.9-11.9l-53.1,38.5l13.7-74.7h-33.1l-18.8,95.2c-11.6,7.3-19.3,10-29.5,10c-11.4,0-20.3-7.1-20.9-18.4
		c-0.8-15.3,6.4-34.4,25.2-34.4h21.7l2.5-12.5c-7.5-0.8-12.8-1.8-21.8-1.8c-4.6,0-10.7,0.3-15.1,1c-25.5,3-50.2,17.9-48.7,46.1
		c0.2,3.7,0.9,7.1,2,10.1c-3.8,2.8-8.1,5.5-12.1,5.5c-7.4,0-10.4-6.1-10.1-11.7c0.7-8.9,8.6-49.1,8.6-49.1h-33c0,0-9.8,44.3-8.6,56
		c1.6,14.2,10.3,23.7,25.1,23.7c13.9,0,25-7.4,35-15.9c9,11.1,25.2,15.9,39.9,15.9c14.8,0,26.8-4,36.8-9.5l-1.4,7h26.7
		c4.2-7.9,14.4-29.3,24.5-29.3c8.7,0,15.5,13.2,23.1,23c4.9,6.3,13.2,10,21.7,8.4c11.2-2.1,21.7-12.2,28.5-20.9L817.5,131.9z"/>
	<path class="st0" d="M286.5,66.9c0.1-0.4,0.2-0.9,0.2-1.3c1.1-5.6,4.5-8.7,10.1-8.8l37.4-0.1l3.1-15.6h-43.7h0
		c-18.6,0-36.1,0.3-40.2,23.9c-0.3,1.7-2.5,12.4-5.2,26.3H248l-13.2,67.1h34.4l10.1-51.7h45.1l3.3-16.8l-45.5,0.1L286.5,66.9z"/>
	<path class="st0" d="M166.5,158.6h-39.9l-10.1-51.7H74.8l-3.3-16.8h41.7L108.6,67c-0.1-0.4-0.2-0.9-0.2-1.3
		c-1.1-5.6-4.2-8.5-9.9-8.6H65l-3.1-15.6h43.7h0c18.5,0,38.3,0.3,42.4,23.9c0.3,1.7,2.5,12.4,5.2,26.3h0.1L166.5,158.6z
		 M203.4,163.4V36.6c0-25.8-25.8-25.8-25.8-25.8H50.8C25,10.8,25,36.6,25,36.6v126.8c0,25.8,25.8,25.8,25.8,25.8h126.8
		C203.4,189.2,203.4,163.4,203.4,163.4"/>
</g>
</svg>
