<svg xmlns="http://www.w3.org/2000/svg" width="24" height="24" viewBox="0 0 24 24">
  <g id="manage_licensesleft" transform="translate(-3.352)">
    <path id="Path_1252" data-name="Path 1252" d="M15.352,12.846a2.412,2.412,0,0,1,2.23,1.317,1.885,1.885,0,0,1-.606,2.277v1.835a1.526,1.526,0,0,1-1.623,1.406,1.526,1.526,0,0,1-1.623-1.406V16.44a1.884,1.884,0,0,1-.608-2.277,2.412,2.412,0,0,1,2.23-1.317M27.352,24V8.525H9.56V3.3A1.637,1.637,0,0,1,11.3,1.8h8.107a1.637,1.637,0,0,1,1.736,1.5V5.831h2.079V3.3a2.922,2.922,0,0,0-.3-1.264A3.856,3.856,0,0,0,19.407,0H11.3A4.423,4.423,0,0,0,9.844.25,3.346,3.346,0,0,0,7.489,3.3v5.22H3.352V24Z" fill="#666" fill-rule="evenodd"/>
  </g>
</svg>
