<svg xmlns="http://www.w3.org/2000/svg" width="44.336" height="39.434" viewBox="0 0 44.336 39.434">
  <g id="manageecommerce" transform="translate(-2.5 -7.7)">
    <path id="Path_83" data-name="Path 83" d="M18.271,30.936,15,17.918H40.341l-2.1,8.585,3.966,2.24,3.033-12.5a2.211,2.211,0,0,0-2.146-2.706H13.931l-1.073-4.2a2.146,2.146,0,0,0-2.1-1.633H4.693a2.193,2.193,0,1,0,0,4.386H9.032l5.412,21.557a2.146,2.146,0,0,0,2.1,1.633h12.6l-.887-4.339H18.271Z" fill="#fff"/>
    <circle id="Ellipse_13" data-name="Ellipse 13" cx="3.873" cy="3.873" r="3.873" transform="translate(15.705 37.282)" fill="#fff"/>
    <path id="Path_84" data-name="Path 84" d="M80,66.827l-4.059-5.6,2.52-1.027a1.319,1.319,0,0,0,.14-2.38L67.026,51.2a1.322,1.322,0,0,0-1.96,1.4l2.66,13.065a1.349,1.349,0,0,0,2.333.607l1.773-2.053,4.059,5.6a.984.984,0,0,0,1.4.233l2.52-1.82A1.025,1.025,0,0,0,80,66.827Z" transform="translate(-33.358 -23.106)" fill="#fff"/>
  </g>
</svg>
