<svg xmlns="http://www.w3.org/2000/svg" width="25" height="25" viewBox="0 0 25 25">
  <g id="ic_Assessment_off" transform="translate(-109 -527)">
    <rect id="Rectangle_10" data-name="Rectangle 10" width="25" height="25" transform="translate(109 527)" fill="rgba(255,255,255,0)"/>
    <g id="Group_171" data-name="Group 171" transform="translate(17 -134)">
      <path id="Path_1179" data-name="Path 1179" d="M12.5,2.5a10,10,0,1,0,10,10A10.009,10.009,0,0,0,12.5,2.5Zm0,18.442A8.442,8.442,0,1,1,20.942,12.5,8.455,8.455,0,0,1,12.5,20.942Z" transform="translate(92.5 661.5)" fill="#212c5b"/>
      <path id="Path_1192" data-name="Path 1192" d="M16,9.889a3.678,3.678,0,0,0-3.667,3.667.733.733,0,1,0,1.467,0,2.2,2.2,0,1,1,4.4,0,2.473,2.473,0,0,1-.81,1.81,18.93,18.93,0,0,1-1.849,1.528.733.733,0,0,0-.275.573v.978a.733.733,0,1,0,1.467,0v-.619a13.7,13.7,0,0,0,1.726-1.451,4.057,4.057,0,0,0,1.207-2.819A3.678,3.678,0,0,0,16,9.889Zm0,10.267a.978.978,0,1,0,.978.978A.978.978,0,0,0,16,20.156Z" transform="translate(88.667 658.111)" fill="#212c5b"/>
    </g>
  </g>
</svg>
