<svg xmlns="http://www.w3.org/2000/svg" width="20.931" height="25" viewBox="0 0 20.931 25">
  <g id="ms_office_on" transform="translate(-3187 -2091.98)">
    <path id="Path_40" data-name="Path 40" d="M3200.473,2095.878l-.03,18.045-13.172-1.824a2.974,2.974,0,0,1,1.119-.552c.375-.149.669-.262,1.039-.409.719-.284,1.464-.641,2.137-.827l0-12.308ZM3187,2111.939a1.345,1.345,0,0,0,.229.208,1.413,1.413,0,0,0,.3.145c.212.087.433.158.659.238.455.156.84.31,1.3.483l7.8,2.884c3.463,1.215,2.466,1.419,5.349.554l4.138-1.211c.745-.221,1.07-.166,1.15-.517v-20.487c-.15-.314-.074-.212-.541-.348l-2.077-.6c-.91-.258-1.821-.53-2.757-.808-1-.3-1.815-.734-2.744-.353L3187,2096.923Z" fill="#fff" fill-rule="evenodd"/>
  </g>
</svg>
