<svg xmlns="http://www.w3.org/2000/svg" width="11.81" height="12" viewBox="0 0 11.81 12"><defs><style>.a{fill:none;}.b{fill:#666;}</style></defs><g transform="translate(-5.7 -5)"><path class="a" d="M19.127,14.5a3.827,3.827,0,1,0,3.827,3.827A3.835,3.835,0,0,0,19.127,14.5Z" transform="translate(-8.32 -8.233)"/><path class="b" d="M15.007,13.293a5.277,5.277,0,1,0-1.24,1.16l.027.027,2.267,2.267a.872.872,0,0,0,.6.253.817.817,0,0,0,.6-.253.845.845,0,0,0,0-1.2Zm-4.133.36a3.48,3.48,0,1,1,3.48-3.48A3.483,3.483,0,0,1,10.873,13.653Z" transform="translate(0)"/></g></svg>