<svg xmlns="http://www.w3.org/2000/svg" width="46.828" height="40" viewBox="0 0 46.828 40">
  <g id="noun_people_24072" transform="translate(-15.2 -20.301)">
    <path id="Path_1242" data-name="Path 1242" d="M62.028,51.1A12.04,12.04,0,0,0,55.794,40.56a7.505,7.505,0,0,1-1.531,1.417A10.085,10.085,0,0,1,60.077,51.1c0,1.314-1.889,2.436-4.755,3.065a17.646,17.646,0,0,0-8.417-10.1,11.239,11.239,0,0,1-1.535,1.423,15.614,15.614,0,0,1,8.854,14.05c0,1.952-2.652,3.374-4.5,3.789l-3.286-6.483.751,7.656a38.344,38.344,0,0,1-8.575.933,46.477,46.477,0,0,1-8.29-.73l.792-7.859-3.342,6.763c-2.7-.775-4.737-2.483-4.769-4.068a15.406,15.406,0,0,1,8.854-14.051,11.239,11.239,0,0,1-1.535-1.423,17.646,17.646,0,0,0-8.417,10.1c-2.867-.628-4.755-1.75-4.755-3.065a10.085,10.085,0,0,1,5.813-9.119,7.541,7.541,0,0,1-1.531-1.417A12.039,12.039,0,0,0,15.2,51.1c0,2.546,2.667,4.153,6.207,4.949a17.557,17.557,0,0,0-.354,3.492c0,5.42,8.82,7.846,17.561,7.846s17.561-2.425,17.561-7.846a17.552,17.552,0,0,0-.354-3.492C59.361,55.249,62.028,53.643,62.028,51.1Z" transform="translate(0 -7.083)" fill="#fff"/>
    <path id="Path_1243" data-name="Path 1243" d="M30.379,35.66a6.169,6.169,0,0,0,1.3-.14,11.1,11.1,0,0,1-.713-1.87,4.178,4.178,0,0,1-.588.06,4.228,4.228,0,0,1,0-8.456,4.159,4.159,0,0,1,1.4.258,11.173,11.173,0,0,1,1.07-1.689A6.177,6.177,0,1,0,30.379,35.66Z" transform="translate(-3.146 -1.05)" fill="#fff"/>
    <path id="Path_1244" data-name="Path 1244" d="M67.371,25.252a4.228,4.228,0,0,1,0,8.456,4.074,4.074,0,0,1-.588-.06,11.1,11.1,0,0,1-.713,1.87,6.179,6.179,0,1,0-1.17-11.7,11.224,11.224,0,0,1,1.07,1.689A4.19,4.19,0,0,1,67.371,25.252Z" transform="translate(-17.375 -1.048)" fill="#fff"/>
    <path id="Path_1245" data-name="Path 1245" d="M46.479,37.862a8.78,8.78,0,1,0-8.78-8.78A8.79,8.79,0,0,0,46.479,37.862Zm0-15.609a6.829,6.829,0,1,1-6.829,6.829A6.837,6.837,0,0,1,46.479,22.252Z" transform="translate(-7.866)" fill="#fff"/>
  </g>
</svg>
