<svg xmlns="http://www.w3.org/2000/svg" width="14.4" height="18" viewBox="0 0 14.4 18"><defs><style>.a{fill:none;}.b{fill:#666;}</style></defs><g transform="translate(-10)"><path class="a" d="M15,21.2H27.6V7.7L24.9,5H15Z" transform="translate(-4.1 -4.1)"/><path class="b" d="M23.5,17.1H10.9V.9h9.9L19.9,0H10V18H24.4V4.5l-.9-.9Z"/><path class="b" d="M66.494,7.5l-.9-.9h-2.7V3.9l-.9-.9V7.5Z" transform="translate(-42.633 -2.459)"/><rect class="b" width="5.496" height="0.984" transform="translate(23.356 4.849) rotate(-135)"/><g transform="translate(13.072 8.304)"><path class="b" d="M27.121,46.135h2.74l5.506,5.519V52.2H32.359l-5.238-5.238Z" transform="translate(-27.111 -46.135)"/><g transform="translate(0)"><path class="b" d="M63.353,64.122l.518-.6v-.535H62.22Z" transform="translate(-55.893 -59.953)"/><path class="b" d="M51.6,48.51l2.04-1.572-.013-.8H50.912l-.843.841Z" transform="translate(-45.929 -46.135)"/><path class="b" d="M28.87,63.765l-1.8,1.8v.548h4.147Z" transform="translate(-27.068 -60.592)"/></g></g></g></svg>