<svg height='100px' width='100px'  fill="#5877FF" xmlns="http://www.w3.org/2000/svg" viewBox="0 0 24 24" enable-background="new 0 0 24 24" x="0px" y="0px"><g><path d="M2 18c-.552 0-1-.447-1-1v-14c0-.552.448-1 1-1s1 .448 1 1v14c0 .553-.448 1-1 1zM22 18c-.553 0-1-.447-1-1v-14c0-.552.447-1 1-1s1 .448 1 1v14c0 .553-.447 1-1 1zM12 24c-.552 0-1-.447-1-1v-6c0-.553.448-1 1-1s1 .447 1 1v6c0 .553-.448 1-1 1zM16 24c-.419 0-.809-.265-.948-.684l-2-6c-.175-.524.108-1.091.632-1.265.527-.176 1.09.108 1.265.632l2 6c.175.524-.108 1.091-.632 1.265-.106.035-.213.052-.317.052zM8 24c-.104 0-.211-.017-.316-.052-.524-.174-.807-.74-.632-1.265l2-6c.174-.523.74-.808 1.265-.632.524.174.807.74.632 1.265l-2 6c-.14.419-.53.684-.949.684zM23 4h-22c-.552 0-1-.448-1-1s.448-1 1-1h22c.553 0 1 .448 1 1s-.447 1-1 1zM23 18h-22c-.552 0-1-.447-1-1s.448-1 1-1h22c.553 0 1 .447 1 1s-.447 1-1 1zM6.133 14.267c-.256 0-.512-.098-.707-.293-.391-.391-.391-1.023 0-1.414l4.767-4.767c.391-.391 1.023-.391 1.414 0l1.86 1.86 3.692-3.693c.391-.391 1.023-.391 1.414 0 .391.39.391 1.023 0 1.414l-4.399 4.4c-.375.375-1.039.375-1.414 0l-1.86-1.86-4.06 4.06c-.195.195-.451.293-.707.293zM12 4c-.552 0-1-.448-1-1v-2c0-.552.448-1 1-1s1 .448 1 1v2c0 .552-.448 1-1 1z"></path></g></svg>