<svg xmlns="http://www.w3.org/2000/svg" width="30" height="31" viewBox="0 0 30 31">
  <g id="persentage_square" transform="translate(-198 -123)">
    <g id="persenr_sqare" transform="translate(198.456 123)">
      <g id="Rectangle_471" data-name="Rectangle 471" transform="translate(-0.456)" fill="#fff" stroke="#ddd" stroke-width="1">
        <path d="M0,0H26a4,4,0,0,1,4,4V27a4,4,0,0,1-4,4H0a0,0,0,0,1,0,0V0A0,0,0,0,1,0,0Z" stroke="none"/>
        <path d="M1,.5H26A3.5,3.5,0,0,1,29.5,4V27A3.5,3.5,0,0,1,26,30.5H1A.5.5,0,0,1,.5,30V1A.5.5,0,0,1,1,.5Z" fill="none"/>
      </g>
    </g>
    <text id="_" data-name="%" transform="translate(207 144)" fill="#666" font-size="16" font-family="SegoeUI, Segoe UI"><tspan x="0" y="0">%</tspan></text>
  </g>
</svg>
