<svg xmlns="http://www.w3.org/2000/svg" viewBox="0 0 34.406 45">
  <defs>
    <style>
      .cls-1 {
        fill: #fff;
      }
    </style>
  </defs>
  <g id="reports_2" transform="translate(-5.7)">
    <path id="Path_53" data-name="Path 53" class="cls-1" d="M33.975,9.625h6.75L32.1,1V7.75A1.881,1.881,0,0,0,33.975,9.625Z" transform="translate(-1.65 -0.063)"/>
    <path id="Path_54" data-name="Path 54" class="cls-1" d="M32.325,11.438a3.761,3.761,0,0,1-3.75-3.75V0H8.512A2.762,2.762,0,0,0,5.7,2.813V42.188A2.821,2.821,0,0,0,8.512,45H37.294a2.821,2.821,0,0,0,2.813-2.812V11.438ZM14.419,22.969a2.774,2.774,0,0,1,.938.188l2.906-3.094a1.89,1.89,0,0,1-.281-1.031,2.156,2.156,0,0,1,4.313,0,.845.845,0,0,1-.094.469L24.356,21a1.908,1.908,0,0,1,1.406-.563,1.637,1.637,0,0,1,1.125.375l2.531-2.906a2,2,0,0,1-.281-1.125,2.156,2.156,0,1,1,2.156,2.156,3.331,3.331,0,0,1-.937-.187l-2.625,3a2.737,2.737,0,0,1,.188.844,2.156,2.156,0,1,1-4.312,0,.7.7,0,0,1,.094-.469l-2.156-1.5a2.129,2.129,0,0,1-1.5.563,1.584,1.584,0,0,1-.937-.281L16.2,24a2,2,0,0,1,.281,1.125,2.156,2.156,0,0,1-4.313,0A2.333,2.333,0,0,1,14.419,22.969ZM26.887,41.063H9.544V39.188H26.887Zm9.375-4.125H9.544V35.063H36.263Zm0-4.219H9.544V30.844H36.263Z"/>
  </g>
</svg>
