<svg xmlns="http://www.w3.org/2000/svg" width="25" height="25.038" viewBox="0 0 25 25.038">
  <g id="scrom_on" transform="translate(-552 -341)">
    <path id="Path_22" data-name="Path 22" d="M12.117,20.844l1.109,1.109h-2.6v.573h2.6l-1.109,1.109.42.382,1.8-1.8-1.8-1.8Z" transform="translate(547.337 332.006)" fill="#fff"/>
    <rect id="Rectangle_17" data-name="Rectangle 17" width="0.573" height="0.573" transform="translate(555.67 353.959)" fill="#fff"/>
    <rect id="Rectangle_18" data-name="Rectangle 18" width="0.573" height="0.573" transform="translate(556.817 353.959)" fill="#fff"/>
    <path id="Path_23" data-name="Path 23" d="M8.634,28.227l-.42-.42-1.8,1.8,1.8,1.8.42-.382L7.526,29.909h2.6v-.573h-2.6Z" transform="translate(549.214 328.713)" fill="#fff"/>
    <rect id="Rectangle_19" data-name="Rectangle 19" width="0.573" height="0.573" transform="translate(559.913 358.049)" fill="#fff"/>
    <rect id="Rectangle_20" data-name="Rectangle 20" width="0.573" height="0.573" transform="translate(561.06 358.049)" fill="#fff"/>
    <path id="Path_24" data-name="Path 24" d="M24.862,11.72,22.148,9.006H20.39V3.96L16.261-.207H-.138V24.831H20.351v-3.4h2.982V19.862h1.453V11.72ZM22.3,10l1.567,1.567H22.3ZM16.414.787,19.4,3.769H16.414Zm3.4,23.471H.435V.366H15.841V4.342h3.976V9.006h-5.81v1.3H12.438V21.429h7.378Zm2.982-3.4H13.012V10.917h.994V19.9h8.83v.956Zm-8.219-1.567V9.617h7.148V12.14H24.25v7.148Z" transform="translate(552.138 341.207)" fill="#fff"/>
    <rect id="Rectangle_21" data-name="Rectangle 21" width="4.931" height="0.573" transform="translate(567.864 354.379)" fill="#fff"/>
    <rect id="Rectangle_22" data-name="Rectangle 22" width="7.339" height="0.573" transform="translate(567.864 356.329)" fill="#fff"/>
    <rect id="Rectangle_23" data-name="Rectangle 23" width="7.339" height="0.573" transform="translate(567.864 358.317)" fill="#fff"/>
    <rect id="Rectangle_24" data-name="Rectangle 24" width="7.492" height="0.573" transform="translate(554.179 345.625)" fill="#fff"/>
    <rect id="Rectangle_25" data-name="Rectangle 25" width="12.347" height="0.573" transform="translate(554.179 347.498)" fill="#fff"/>
  </g>
</svg>
