<svg xmlns="http://www.w3.org/2000/svg" width="46" height="40" viewBox="0 0 46 40">
  <g id="search_icon" transform="translate(-995 -93)">
    <g id="Rectangle_216" data-name="Rectangle 216" transform="translate(995 93)" fill="#f3f7fc" stroke="#ddd" stroke-width="1">
      <path d="M0,0H42a4,4,0,0,1,4,4V36a4,4,0,0,1-4,4H0a0,0,0,0,1,0,0V0A0,0,0,0,1,0,0Z" stroke="none"/>
      <path d="M1,.5H42A3.5,3.5,0,0,1,45.5,4V36A3.5,3.5,0,0,1,42,39.5H1A.5.5,0,0,1,.5,39V1A.5.5,0,0,1,1,.5Z" fill="none"/>
    </g>
    <g id="Group_1120" data-name="Group 1120" transform="translate(1010 105.5)">
      <path id="Path_887" data-name="Path 887" d="M9.87,5.72a5.337,5.337,0,0,1-.05.69c.01-.07.02-.13.03-.2a4.927,4.927,0,0,1-.34,1.25c.03-.06.05-.11.08-.17a6.016,6.016,0,0,1-.45.83l-.15.21c-.03.05-.12.14.04-.04a.392.392,0,0,0-.08.1c-.1.12-.2.24-.31.35s-.23.21-.35.31c-.02.02-.08.08-.1.08.03,0,.16-.12.05-.04-.07.05-.14.1-.2.14a5.729,5.729,0,0,1-.84.46c.06-.02.12-.05.18-.07a4.969,4.969,0,0,1-1.24.34l.2-.03a5.652,5.652,0,0,1-1.3,0l.2.03a5.136,5.136,0,0,1-1.25-.35c.05.03.11.05.17.08a5.565,5.565,0,0,1-.83-.45c-.07-.04-.14-.1-.21-.15-.04-.03-.14-.11.05.04-.03-.03-.07-.05-.1-.08-.12-.1-.23-.2-.35-.32s-.21-.22-.31-.34a.392.392,0,0,1-.08-.1c.01.04.12.16.04.05-.06-.07-.1-.14-.15-.2a5.306,5.306,0,0,1-.45-.85c.02.06.05.12.07.18A5.379,5.379,0,0,1,1.5,6.22c.01.07.02.13.03.2a5.236,5.236,0,0,1,0-1.37c-.01.06-.02.12-.03.19a5.379,5.379,0,0,1,.34-1.25c-.02.06-.05.12-.07.17a4.444,4.444,0,0,1,.45-.83l.15-.21c.03-.05.11-.14-.04.05.03-.03.05-.07.08-.1.1-.12.2-.24.31-.35s.23-.22.35-.32c.02-.02.08-.08.1-.08-.03,0-.16.12-.05.04.06-.05.13-.09.2-.14a4.527,4.527,0,0,1,.84-.45,1.336,1.336,0,0,0-.18.07A4.927,4.927,0,0,1,5.23,1.5l-.2.03a5.652,5.652,0,0,1,1.3,0l-.2-.03a4.855,4.855,0,0,1,1.24.34c-.06-.03-.12-.05-.18-.08a5.063,5.063,0,0,1,.83.44l.21.15c.04.03.14.12-.05-.04.03.03.07.05.1.08.12.1.23.2.35.32s.21.23.31.35a.392.392,0,0,1,.08.1c0-.03-.11-.16-.03-.04.05.06.09.13.14.2a4.61,4.61,0,0,1,.45.85,1.066,1.066,0,0,0-.07-.19,4.927,4.927,0,0,1,.34,1.25c-.01-.06-.01-.13-.02-.19a5.071,5.071,0,0,1,.04.68.745.745,0,0,0,.74.74.758.758,0,0,0,.74-.74,5.669,5.669,0,0,0-1.03-3.28A5.793,5.793,0,0,0,7.58.33a5.657,5.657,0,0,0-6.24,1.7A6.007,6.007,0,0,0,.01,5.34a5.7,5.7,0,0,0,.8,3.34,5.589,5.589,0,0,0,2.46,2.23,5.776,5.776,0,0,0,3.57.41,5.72,5.72,0,0,0,4.42-4.65,6.09,6.09,0,0,0,.08-.95.745.745,0,0,0-.74-.74A.756.756,0,0,0,9.87,5.72Z" transform="translate(0.006 0.002)" fill="#333"/>
      <path id="Path_888" data-name="Path 888" d="M9.26,9.49c.58.54,1.17,1.08,1.76,1.62.93.86,1.87,1.72,2.8,2.58.21.19.42.39.64.59V13.23c-.16.17-.31.34-.46.5h1.05c-.58-.54-1.17-1.08-1.76-1.62-.93-.86-1.87-1.72-2.8-2.58-.21-.19-.42-.39-.64-.59V9.99c.16-.17.31-.34.46-.5A.742.742,0,0,0,9.26,8.44c-.16.18-.32.34-.47.51a.761.761,0,0,0,0,1.05c.58.54,1.17,1.08,1.76,1.62.93.86,1.87,1.72,2.8,2.58.21.19.42.39.64.59a.761.761,0,0,0,1.05,0c.16-.17.31-.34.46-.5a.761.761,0,0,0,0-1.05c-.58-.54-1.17-1.08-1.76-1.62-.93-.86-1.87-1.72-2.8-2.58-.21-.19-.42-.39-.64-.59a.761.761,0,0,0-1.05,0A.739.739,0,0,0,9.26,9.49Z" transform="translate(0.006 0.002)" fill="#333"/>
    </g>
  </g>
</svg>
