<svg xmlns="http://www.w3.org/2000/svg" width="28.365" height="40" viewBox="0 0 28.365 40">
  <path id="user_icon_white_40" d="M-210.32,41.513a14.2,14.2,0,0,0-9.5-13.385,8.848,8.848,0,0,0,4.185-7.509,8.865,8.865,0,0,0-8.854-8.854,8.864,8.864,0,0,0-8.854,8.854,8.848,8.848,0,0,0,4.176,7.5,14.2,14.2,0,0,0-9.516,13.39c0,.128,0,.255.007.381a1.143,1.143,0,0,0-.007.132v8.561a1.178,1.178,0,0,0,1.178,1.178H-211.5a1.178,1.178,0,0,0,1.178-1.178V42.025a1.2,1.2,0,0,0-.007-.131C-210.323,41.768-210.32,41.641-210.32,41.513Zm-20.668-20.893a6.505,6.505,0,0,1,6.5-6.5,6.505,6.505,0,0,1,6.5,6.5,6.505,6.505,0,0,1-6.5,6.5A6.505,6.505,0,0,1-230.988,20.619Zm18.311,21.575v7.214h-23.652V42.2a1.2,1.2,0,0,0,.012-.219c-.006-.155-.012-.311-.012-.467A11.839,11.839,0,0,1-224.5,29.687a11.839,11.839,0,0,1,11.826,11.826c0,.156-.006.311-.012.466A1.137,1.137,0,0,0-212.677,42.194Z" transform="translate(238.685 -11.765)" fill="#fff"/>
</svg>
