<svg xmlns="http://www.w3.org/2000/svg" width="34.038" height="48" viewBox="0 0 34.038 48">
  <path id="user_icon_white_48" d="M-204.647,47.463a17.045,17.045,0,0,0-11.4-16.062,10.618,10.618,0,0,0,5.022-9.011,10.638,10.638,0,0,0-10.625-10.625A10.637,10.637,0,0,0-232.276,22.39a10.617,10.617,0,0,0,5.011,9,17.046,17.046,0,0,0-11.42,16.068c0,.153,0,.305.009.457a1.374,1.374,0,0,0-.009.158V58.351a1.414,1.414,0,0,0,1.414,1.414h31.21a1.414,1.414,0,0,0,1.414-1.414V48.078a1.447,1.447,0,0,0-.009-.157C-204.651,47.769-204.647,47.616-204.647,47.463Zm-24.8-25.072a7.806,7.806,0,0,1,7.8-7.8,7.806,7.806,0,0,1,7.8,7.8,7.806,7.806,0,0,1-7.8,7.8A7.806,7.806,0,0,1-229.448,22.39Zm21.973,25.89v8.656h-28.382V48.286a1.434,1.434,0,0,0,.014-.262c-.007-.186-.014-.373-.014-.561a14.207,14.207,0,0,1,14.191-14.191,14.207,14.207,0,0,1,14.191,14.191c0,.188-.007.374-.015.559A1.364,1.364,0,0,0-207.475,48.281Z" transform="translate(238.685 -11.765)" fill="#682875"/>
</svg>
