<svg xmlns="http://www.w3.org/2000/svg" viewBox="0 0 42.73 45">
  <defs>
    <style>
      .cls-1, .cls-3 {
        fill: none;
      }

      .cls-2 {
        fill: #fff;
      }

      .cls-3 {
        stroke: #000;
        stroke-linecap: round;
        stroke-linejoin: round;
      }
    </style>
  </defs>
  <g id="student_2" transform="translate(-7.271 -5)">
    <path id="Path_50" data-name="Path 50" class="cls-1" d="M49.238,27.052a.366.366,0,0,0-.1-.031.53.53,0,0,0-.415.135l-.007.009v0l0,0c0-.009,0-.017,0-.025A9.079,9.079,0,0,0,46.84,23.2a2.109,2.109,0,0,0-.422-.179c-.018.294.317.74.353,1.177a7.756,7.756,0,0,0-3.177-1.177c-.309-.012-.644-.009-.987,0a11.107,11.107,0,0,1-6.7-.15c-4-.371-4.638,3.788-4.687,4.263,0,.012,0,.023,0,.034h0a.537.537,0,0,0-.427-.144.416.416,0,0,0-.17.073.943.943,0,0,0-.3.472c-.039.559-.065,1.125-.073,1.71.008.055.013.108.023.163a3.724,3.724,0,0,0,.807,1.874.608.608,0,0,0,.515.225.432.432,0,0,0,.222-.116,13.888,13.888,0,0,0,4.376,6.611,5.762,5.762,0,0,0,7.618-.059,13.956,13.956,0,0,0,4.3-6.553.432.432,0,0,0,.222.116.553.553,0,0,0,.445-.158,3.508,3.508,0,0,0,.878-1.94C49.863,28.276,49.675,27.256,49.238,27.052Z" transform="translate(-11.488 -8.922)"/>
    <path id="Path_51" data-name="Path 51" class="cls-2" d="M49.817,68.96c-2.424-8.336-6.9-8.623-7.864-8.847-1.9-.445-4.194-.255-5.419-.638-.215,1.795-3.669,3.222-7.9,3.222s-7.684-1.427-7.9-3.222c-1.225.383-3.522.193-5.42.638-.964.225-5.441.511-7.863,8.847a4.556,4.556,0,0,0,.322,3.372C9.76,76.084,20.2,77.24,28.635,77.237s18.875-1.153,20.86-4.906A4.555,4.555,0,0,0,49.817,68.96Z" transform="translate(0 -27.237)"/>
    <line id="Line_7" data-name="Line 7" class="cls-3" transform="translate(19.725 18.242)"/>
    <path id="Path_52" data-name="Path 52" class="cls-2" d="M28.17,23.365a17.863,17.863,0,0,0,4.054,6.441A10.01,10.01,0,0,0,35.477,32a6.576,6.576,0,0,0,5.006,0,10.092,10.092,0,0,0,3.357-2.3,17.964,17.964,0,0,0,3.957-6.36c.673-.2,1.379-1.459,1.666-3.069.313-1.748.018-3.272-.657-3.526.025-.427.04-.858.039-1.3C48.831,9.113,45.117,5.43,39.26,5.037c-5.106-.342-8.953,1.686-10.705,5.059a10.967,10.967,0,0,0-1.055,4.1,10.489,10.489,0,0,0-.312,2.5h.019c0,.007,0,.013,0,.02l-.037,0c-.747.13-1.087,1.723-.76,3.559C26.708,21.962,27.469,23.266,28.17,23.365Zm19.5-2.848a3.508,3.508,0,0,1-.878,1.94.551.551,0,0,1-.445.159.43.43,0,0,1-.222-.116,13.952,13.952,0,0,1-4.3,6.553,5.762,5.762,0,0,1-7.618.059A13.89,13.89,0,0,1,29.833,22.5a.433.433,0,0,1-.222.116.607.607,0,0,1-.515-.225,3.72,3.72,0,0,1-.807-1.874c-.01-.055-.015-.108-.023-.163.009-.584.034-1.15.073-1.71a.943.943,0,0,1,.3-.472A.407.407,0,0,1,28.8,18.1a.538.538,0,0,1,.426.144h0c0-.011,0-.023,0-.034.049-.476.684-4.635,4.687-4.263a11.107,11.107,0,0,0,6.7.15c.343-.007.677-.01.987,0a7.752,7.752,0,0,1,3.177,1.177c-.035-.436-.371-.882-.353-1.177a2.109,2.109,0,0,1,.422.179,9.079,9.079,0,0,1,1.869,3.942c0,.009,0,.017,0,.025l0,0v0l.007-.009a.531.531,0,0,1,.415-.135.4.4,0,0,1,.1.031C47.693,18.334,47.88,19.354,47.672,20.517Z" transform="translate(-9.506)"/>
  </g>
</svg>
