<?xml version="1.0" encoding="utf-8"?>
<!-- Generator: Adobe Illustrator 22.0.1, SVG Export Plug-In . SVG Version: 6.00 Build 0)  -->
<svg version="1.1" id="Layer_1" xmlns="http://www.w3.org/2000/svg" xmlns:xlink="http://www.w3.org/1999/xlink" x="0px" y="0px"
	 viewBox="0 0 116.8 113.7" style="enable-background:new 0 0 116.8 113.7;" xml:space="preserve">
<style type="text/css">
	.st0{clip-path:url(#SVGID_2_);fill:#FFFFFF;}
</style>
<g>
	<defs>
		<rect id="SVGID_1_" y="0" width="116.8" height="113.7"/>
	</defs>
	<clipPath id="SVGID_2_">
		<use xlink:href="#SVGID_1_"  style="overflow:visible;"/>
	</clipPath>
	<path class="st0" d="M56.1,57.1c-6.8,0.1-12.4-5.4-12.5-12.2C43.5,38,49,32.4,55.8,32.3c6.8-0.1,12.4,5.4,12.5,12.2
		C68.4,51.4,62.9,57,56.1,57.1"/>
	<path class="st0" d="M33.5,76.4c-0.5,0-0.9-0.2-1.2-0.5c-0.3-0.3-0.5-0.8-0.4-1.3c1.2-11,6.1-16.7,15-17.4c0.4,0,0.8,0.1,1.1,0.3
		c2.4,1.7,5.1,2.6,8,2.6c0.1,0,0.1,0,0.2,0c2.9,0,5.7-1,8.1-2.8c0.3-0.2,0.7-0.3,1.1-0.3c8.9,0.5,14,6,15.4,17
		c0.1,0.5-0.1,0.9-0.4,1.3c-0.3,0.3-0.7,0.5-1.2,0.6L33.5,76.4L33.5,76.4z"/>
	<path class="st0" d="M103.4,60.5L86.9,73.4l7.6,3.1c-9.5,18.8-32.2,27.3-51.9,19.3C27.4,89.6,17.4,75,17.2,58.5
		c0-1.1-1-2.1-2.1-2.1c-1.2,0-2.1,1-2.1,2.1c0.2,18.1,11.2,34.2,28,41.1c5.4,2.2,11.1,3.3,17,3.3c17,0,32.8-9.8,40.4-25l7.8,3.2
		L103.4,60.5z"/>
	<path class="st0" d="M76.2,13.9C54.4,5,29.3,14.5,18.9,35.5L11,32.3l2.8,20.7l16.5-12.8l-7.6-3.1C32.3,18.3,55,9.8,74.6,17.8
		c15.2,6.2,25.2,20.8,25.4,37.2c0,1.1,1,2.1,2.1,2.1c1.2,0,2.1-1,2.1-2.1C104,36.9,93,20.8,76.2,13.9"/>
</g>
</svg>
