<svg xmlns="http://www.w3.org/2000/svg" width="67.834" height="48" viewBox="0 0 67.834 48">
  <path id="User_Groups_Icon_Dark_48" d="M451.252,408.442a11.249,11.249,0,0,0-7.524-10.6,7.012,7.012,0,1,0-7.4,0,11.285,11.285,0,0,0-5.519,4.2,17.1,17.1,0,0,0-7.852-5.677,10.625,10.625,0,1,0-11.218-.007,17.1,17.1,0,0,0-7.871,5.684,11.284,11.284,0,0,0-5.506-4.193,7.012,7.012,0,1,0-7.4,0,11.25,11.25,0,0,0-7.537,10.6c0,.1,0,.2.006.3a.94.94,0,0,0-.006.1v6.78a.933.933,0,0,0,.933.933h15.965v6.747a1.414,1.414,0,0,0,1.414,1.414h31.21a1.414,1.414,0,0,0,1.414-1.414v-6.747h15.965a.933.933,0,0,0,.933-.933v-6.78a.934.934,0,0,0-.006-.1C451.25,408.644,451.252,408.543,451.252,408.442Zm-16.368-16.547a5.146,5.146,0,1,1,5.146,5.146A5.152,5.152,0,0,1,434.884,391.895Zm-25.331-4.548a7.8,7.8,0,1,1,7.8,7.8A7.806,7.806,0,0,1,409.553,387.347Zm-20.039,4.548a5.146,5.146,0,1,1,5.146,5.146A5.152,5.152,0,0,1,389.514,391.895Zm-4.23,22.8v-5.71a.949.949,0,0,0,.009-.173c0-.123-.009-.246-.009-.37a9.362,9.362,0,0,1,17.44-4.735,16.9,16.9,0,0,0-2.408,8.713c0,.153,0,.305.009.457a1.368,1.368,0,0,0-.009.158v1.66Zm46.242-1.458v8.656H403.144v-8.651a1.4,1.4,0,0,0,.014-.262c-.007-.186-.014-.373-.014-.561a14.191,14.191,0,1,1,28.382,0c0,.187-.007.374-.015.559A1.348,1.348,0,0,0,431.526,413.238Zm17.86-4.256V414.7H434.354v-1.66a1.4,1.4,0,0,0-.009-.157c.005-.152.009-.3.009-.458a16.9,16.9,0,0,0-2.408-8.713,9.362,9.362,0,0,1,17.44,4.736c0,.124,0,.247-.01.369A.878.878,0,0,0,449.386,408.982Z" transform="translate(-383.418 -376.722)" fill="#682875"/>
</svg>
