<svg xmlns="http://www.w3.org/2000/svg" width="56.528" height="40" viewBox="0 0 56.528 40">
  <path id="User_Groups_Icon_white_40" d="M72.111,40.869a9.375,9.375,0,0,0-6.27-8.833,5.844,5.844,0,1,0-6.17,0,9.4,9.4,0,0,0-4.6,3.5A14.25,14.25,0,0,0,48.529,30.8a8.854,8.854,0,1,0-9.348-.006,14.25,14.25,0,0,0-6.559,4.737,9.4,9.4,0,0,0-4.588-3.494,5.844,5.844,0,1,0-6.17,0,9.374,9.374,0,0,0-6.28,8.837c0,.084,0,.168,0,.251a.75.75,0,0,0,0,.087v5.65a.778.778,0,0,0,.778.778h13.3v5.622a1.178,1.178,0,0,0,1.178,1.178H56.851a1.178,1.178,0,0,0,1.178-1.178V47.635h13.3a.778.778,0,0,0,.778-.778v-5.65a.809.809,0,0,0,0-.086C72.109,41.037,72.111,40.954,72.111,40.869ZM58.471,27.08a4.288,4.288,0,1,1,4.288,4.288A4.293,4.293,0,0,1,58.471,27.08ZM37.362,23.29a6.5,6.5,0,1,1,6.5,6.5A6.505,6.505,0,0,1,37.362,23.29Zm-16.7,3.79a4.288,4.288,0,1,1,4.288,4.288A4.293,4.293,0,0,1,20.663,27.08Zm-3.525,19V41.322a.764.764,0,0,0,.008-.144c0-.1-.008-.205-.008-.309a7.8,7.8,0,0,1,14.533-3.946,14.086,14.086,0,0,0-2.007,7.261c0,.128,0,.255.007.381a1.148,1.148,0,0,0-.007.132V46.08Zm38.535-1.215v7.214H32.021V44.87a1.2,1.2,0,0,0,.012-.219c-.006-.155-.012-.311-.012-.467a11.826,11.826,0,1,1,23.652,0c0,.156-.006.311-.012.466A1.137,1.137,0,0,0,55.673,44.865Zm14.883-3.546V46.08H58.029V44.7a1.164,1.164,0,0,0-.007-.131c0-.127.007-.254.007-.382a14.086,14.086,0,0,0-2.007-7.261,7.8,7.8,0,0,1,14.533,3.946c0,.1,0,.206-.008.308A.756.756,0,0,0,70.556,41.319Z" transform="translate(-15.583 -14.436)" fill="#fff"/>
</svg>
