<svg xmlns="http://www.w3.org/2000/svg" width="60" height="60" viewBox="0 0 60 60"><defs><style>.a{fill:#eee;}.b{fill:#682875;}</style></defs><g transform="translate(-104 -220)"><rect class="a" width="60" height="60" rx="11" transform="translate(104 220)"/><g transform="translate(63.297 -71.643)"><g transform="translate(51.703 304.249)"><path class="b" d="M80.263,323.888a9.82,9.82,0,1,1,9.818-9.818A9.829,9.829,0,0,1,80.263,323.888Zm0-17.1a7.277,7.277,0,1,0,7.275,7.278A7.285,7.285,0,0,0,80.263,306.792Z" transform="translate(-60.914 -304.249)"/><path class="b" d="M89.131,358.085H52.974a1.271,1.271,0,0,1-1.262-1.423c1.053-8.727,5-13.192,12.061-13.65a1.27,1.27,0,0,1,.839.247,10.662,10.662,0,0,0,12.874,0,1.274,1.274,0,0,1,.84-.248c7.067.455,11.014,4.92,12.067,13.65a1.271,1.271,0,0,1-1.262,1.423Zm-34.689-2.543H87.663c-1.075-6.364-3.913-9.47-9.057-9.958a13.185,13.185,0,0,1-15.112,0C58.353,346.074,55.517,349.18,54.442,355.542Z" transform="translate(-51.703 -323.298)"/></g></g></g></svg>