<svg xmlns="http://www.w3.org/2000/svg" width="55" height="48" viewBox="0 0 55 48">
  <g id="certification_off" transform="translate(-17 -761)">
    <path id="certification_off-2" data-name="certification_off" d="M17.737,25H3.1A3.1,3.1,0,0,1,0,21.9V3.1A3.1,3.1,0,0,1,3.1,0H17.739a3.1,3.1,0,0,1,3.1,3.1V21.905a3.1,3.1,0,0,1-3.1,3.1ZM3.1,2.083A1.014,1.014,0,0,0,2.083,3.1V21.905A1.013,1.013,0,0,0,3.1,22.917H17.739A1.013,1.013,0,0,0,18.75,21.9V3.1a1.014,1.014,0,0,0-1.013-1.013ZM11.273,21.73a1.043,1.043,0,0,1-1.038-1.13l.145-1.686L9.072,17.839A1.042,1.042,0,0,1,9.5,16.02l1.648-.384.619-1.576a1.042,1.042,0,0,1,1.861-.157l.875,1.45,1.69.1a1.041,1.041,0,0,1,.725,1.721l-1.108,1.28.426,1.639a1.04,1.04,0,0,1-1.412,1.222l-1.56-.658-1.426.911a1.047,1.047,0,0,1-.561.163Zm.751-4.161.1.083a1.041,1.041,0,0,1,.376.893l-.011.129.109-.07a1.039,1.039,0,0,1,.966-.081l.12.05-.032-.125a1.038,1.038,0,0,1,.221-.944l.085-.1-.129-.008a1.043,1.043,0,0,1-.83-.5l-.067-.11-.047.12a1.036,1.036,0,0,1-.733.633Zm3.6-10.277H5.208a1.042,1.042,0,0,1,0-2.083H15.625a1.042,1.042,0,0,1,0,2.083Zm0,3.125H5.208a1.042,1.042,0,1,1,0-2.083H15.625a1.042,1.042,0,0,1,0,2.083Zm-6.25,3.125H5.208a1.042,1.042,0,0,1,0-2.083H9.375a1.042,1.042,0,0,1,0,2.083Z" transform="translate(34 773)" fill="#682875"/>
    <rect id="Rectangle_532" data-name="Rectangle 532" width="55" height="48" transform="translate(17 761)" fill="rgba(255,255,255,0)"/>
  </g>
</svg>
