<svg xmlns="http://www.w3.org/2000/svg" width="55" height="48" viewBox="0 0 55 48">
  <g id="ic_scorescard_left_panel_hover" transform="translate(0 -314)">
    <g id="ic_scorescard" transform="translate(4035.965 -1348.5)">
      <g id="Group_3277" data-name="Group 3277" transform="translate(-4025.965 1675.5)">
        <g id="Group_3276" data-name="Group 3276" transform="translate(0)">
          <path id="Path_1278" data-name="Path 1278" d="M-572.972,281.1a3.309,3.309,0,0,1-3.306,3.306h-27.417A3.309,3.309,0,0,1-607,281.1V266.806a3.309,3.309,0,0,1,3.306-3.306h27.417a3.309,3.309,0,0,1,3.306,3.306ZM-574.43,266.9a2.386,2.386,0,0,0-2.382-2.382h-27.32a2.386,2.386,0,0,0-2.382,2.382V281.1a2.386,2.386,0,0,0,2.382,2.382h27.32a2.386,2.386,0,0,0,2.382-2.382Z" transform="translate(607.486 -263.063)" fill="#0B7BA1"/>
          <path id="Path_1279" data-name="Path 1279" d="M-573,280.683a3.8,3.8,0,0,1-3.792,3.792h-27.417A3.8,3.8,0,0,1-608,280.683V266.392a3.8,3.8,0,0,1,3.792-3.792h27.417A3.8,3.8,0,0,1-573,266.392Zm-4.083,2.771h0a2.633,2.633,0,0,0,2.625-2.819h0A2.634,2.634,0,0,1-577.083,283.454ZM-604.4,263.524a2.807,2.807,0,0,0-2.625,3.014v14.1a2.662,2.662,0,0,0,2.625,2.819h0a2.662,2.662,0,0,1-2.625-2.819v-14.1a2.867,2.867,0,0,1,2.625-3.014h27.32a2.836,2.836,0,0,1,2.625,3.014h0a2.836,2.836,0,0,0-2.625-3.014Zm29.458,2.917a1.9,1.9,0,0,0-1.9-1.9h-27.271a1.9,1.9,0,0,0-1.9,1.9v14.146a1.9,1.9,0,0,0,1.9,1.9h27.271a1.9,1.9,0,0,0,1.9-1.9Z" transform="translate(608 -262.6)" fill="#0B7BA1"/>
        </g>
      </g>
      <g id="Group_3279" data-name="Group 3279" transform="translate(-4024.993 1683.715)">
        <g id="Group_3278" data-name="Group 3278" transform="translate(0 0)">
          <path id="Path_1280" data-name="Path 1280" d="M-606,279.5v9.819a2.886,2.886,0,0,0,2.965,2.819h28.243a2.694,2.694,0,0,0,2.771-2.819V279.5Zm19.444,9.236h-18.472v-1.458h18.472Zm5.3-7.243,1.507,3.014,3.306.486-2.382,2.333.583,3.306-2.965-1.556-2.965,1.556.583-3.306-2.382-2.333,3.306-.486Z" transform="translate(606 -279.5)" fill="#0B7BA1"/>
        </g>
      </g>
      <g id="Group_3284" data-name="Group 3284" transform="translate(-4022.465 1678.757)">
        <g id="Group_3280" data-name="Group 3280" transform="translate(0 0.097)">
          <path id="Path_1281" data-name="Path 1281" d="M-597.932,270.667c-.049-.1-.049-.194-.1-.292a.486.486,0,0,0-.194-.243c-.1-.049-.194-.146-.292-.146a.947.947,0,0,0-.389-.049.98.98,0,0,0-.535.146,1.31,1.31,0,0,0-.389.34,1.457,1.457,0,0,0-.194.486,2,2,0,0,0-.049.535,1.824,1.824,0,0,0,.049.535,1.457,1.457,0,0,0,.194.486.9.9,0,0,0,.389.34.98.98,0,0,0,.535.146.915.915,0,0,0,.389-.1c.1-.049.195-.146.292-.194a.785.785,0,0,0,.194-.34,1.146,1.146,0,0,0,.1-.389h.681a1.344,1.344,0,0,1-.146.632,1.744,1.744,0,0,1-.34.486,2.007,2.007,0,0,1-.535.34,1.435,1.435,0,0,1-.632.1,2.015,2.015,0,0,1-.778-.146,1.328,1.328,0,0,1-.583-.437,2.762,2.762,0,0,1-.389-.632,2.2,2.2,0,0,1-.146-.778,2.016,2.016,0,0,1,.146-.778,1.4,1.4,0,0,1,.389-.632,1.328,1.328,0,0,1,.583-.437,2.015,2.015,0,0,1,.778-.146,2.841,2.841,0,0,1,.632.1,1.519,1.519,0,0,1,.486.243,1.059,1.059,0,0,1,.34.438,1.638,1.638,0,0,1,.194.583l-.681-.194Z" transform="translate(600.8 -269.5)" fill="#0B7BA1"/>
        </g>
        <g id="Group_3281" data-name="Group 3281" transform="translate(3.694 0)">
          <path id="Path_1282" data-name="Path 1282" d="M-591.693,269.3h.729l1.507,3.889h-.729l-.389-1.021h-1.555l-.389,1.021h-.681Zm-.243,2.382h1.167l-.583-1.653h0Z" transform="translate(593.2 -269.3)" fill="#0B7BA1"/>
        </g>
        <g id="Group_3282" data-name="Group 3282" transform="translate(7.778 0)">
          <path id="Path_1283" data-name="Path 1283" d="M-584.8,269.3h1.847a1.451,1.451,0,0,1,.972.292,1.057,1.057,0,0,1,.34.778.971.971,0,0,1-.1.438.446.446,0,0,1-.194.292.261.261,0,0,1-.194.146.24.24,0,0,1-.146.049h0c.049,0,.1.049.194.049.049.049.146.1.195.146a1.062,1.062,0,0,1,.146.243.948.948,0,0,1,.049.389,2.57,2.57,0,0,0,.049.632,1.068,1.068,0,0,0,.146.389h-.729a.692.692,0,0,1-.1-.292v-.292a1.079,1.079,0,0,0-.049-.437.7.7,0,0,0-.1-.34.486.486,0,0,0-.243-.194.947.947,0,0,0-.389-.049h-1.021v1.6h-.681V269.3Zm.681,1.8H-583a.725.725,0,0,0,.486-.146.645.645,0,0,0,.146-.486c0-.146,0-.243-.049-.292a.672.672,0,0,0-.146-.194c-.049-.049-.146-.049-.194-.1h-1.361V271.1Z" transform="translate(584.8 -269.3)" fill="#0B7BA1"/>
        </g>
        <g id="Group_3283" data-name="Group 3283" transform="translate(11.618 0)">
          <path id="Path_1284" data-name="Path 1284" d="M-576.9,269.3h1.6a2.015,2.015,0,0,1,.778.146,1.519,1.519,0,0,1,.535.438,1.507,1.507,0,0,1,.292.632,3.78,3.78,0,0,1,.1.778,3.78,3.78,0,0,1-.1.778,1.507,1.507,0,0,1-.292.632,1.62,1.62,0,0,1-.535.438,1.851,1.851,0,0,1-.778.146h-1.6Zm.681,3.354h.68a2.157,2.157,0,0,0,.632-.1.6.6,0,0,0,.389-.292,1.729,1.729,0,0,0,.194-.437,1.824,1.824,0,0,0,.049-.535,1.823,1.823,0,0,0-.049-.535,1.2,1.2,0,0,0-.194-.437.756.756,0,0,0-.389-.292,2.157,2.157,0,0,0-.632-.1h-.68Z" transform="translate(576.9 -269.3)" fill="#0B7BA1"/>
        </g>
      </g>
    </g>
    <rect id="Rectangle_1704" data-name="Rectangle 1704" width="55" height="48" transform="translate(0 314)" fill="rgba(255,255,255,0)"/>
  </g>
</svg>
