<svg xmlns="http://www.w3.org/2000/svg" width="55" height="48" viewBox="0 0 55 48">
  <g id="Group_1" data-name="Group 1" transform="translate(-978 -285)">
    <rect id="Rectangle_1" data-name="Rectangle 1" width="55" height="48" transform="translate(978 285)" fill="none"/>
    <path id="Icon_metro-delicious" data-name="Icon metro-delicious" d="M22.572,1.928h-16a4.012,4.012,0,0,0-4,4v16a4.011,4.011,0,0,0,4,4h16a4.01,4.01,0,0,0,4-4v-16A4.011,4.011,0,0,0,22.572,1.928Zm2.5,20a2.511,2.511,0,0,1-2.5,2.5h-8v-10.5H4.072v-8a2.512,2.512,0,0,1,2.5-2.5h8v10.5h10.5v8Z" transform="translate(991.429 295.072)" fill="#682875"/>
  </g>
</svg>
