<svg xmlns="http://www.w3.org/2000/svg" width="55" height="48" viewBox="0 0 55 48">
  <g id="Group_1" data-name="Group 1" transform="translate(-345 -409)">
    <rect id="Rectangle_1" data-name="Rectangle 1" width="55" height="48" transform="translate(345 409)" fill="none"/>
    <path id="Icon_Events" data-name="Icon Events" d="M20.452,3.514,18.761,5.206a9.607,9.607,0,1,1-7.989-2.723V4.906a7.193,7.193,0,1,0,6.285,2L15.366,8.6a4.809,4.809,0,1,1-4.594-1.236V9.93a2.375,2.375,0,0,0-1.2,2.063,2.4,2.4,0,0,0,4.8,0,2.36,2.36,0,0,0-1.2-2.063V0h-.883A12.2,12.2,0,0,0,.086,10.358,12,12,0,1,0,20.455,3.514Z" transform="translate(360.028 421)" fill="#682875"/>
  </g>
</svg>
