<svg xmlns="http://www.w3.org/2000/svg" width="55" height="48" viewBox="0 0 55 48">
  <g id="Group_1" data-name="Group 1" transform="translate(-1539 -411)">
    <rect id="Rectangle_1" data-name="Rectangle 1" width="55" height="48" transform="translate(1539 411)" fill="none"/>
    <path id="User_Groups_Icon_Dark_48" d="M420.157,393.9a6.092,6.092,0,0,0-4.075-5.74,3.8,3.8,0,1,0-4.007,0,6.112,6.112,0,0,0-2.989,2.275,9.261,9.261,0,0,0-4.252-3.074,5.754,5.754,0,1,0-6.075,0,9.26,9.26,0,0,0-4.263,3.078,6.111,6.111,0,0,0-2.982-2.271,3.8,3.8,0,1,0-4.007,0,6.092,6.092,0,0,0-4.082,5.74c0,.054,0,.108,0,.162a.519.519,0,0,0,0,.054v3.672a.505.505,0,0,0,.505.505h8.646v3.654a.766.766,0,0,0,.766.766h16.9a.766.766,0,0,0,.766-.766v-3.654h8.646a.505.505,0,0,0,.505-.505v-3.672a.519.519,0,0,0,0-.054C420.156,394.005,420.157,393.95,420.157,393.9Zm-8.864-8.961a2.787,2.787,0,1,1,2.787,2.787A2.787,2.787,0,0,1,411.293,384.935Zm-13.718-2.463A4.224,4.224,0,1,1,401.8,386.7,4.224,4.224,0,0,1,397.575,382.472Zm-10.852,2.463a2.787,2.787,0,1,1,2.787,2.787A2.787,2.787,0,0,1,386.723,384.935Zm-2.291,12.347V394.19a.517.517,0,0,0,0-.094c0-.067,0-.133,0-.2a5.07,5.07,0,0,1,9.445-2.564,9.153,9.153,0,0,0-1.3,4.719c0,.083,0,.165,0,.247a.757.757,0,0,0,0,.086v.9Zm25.042-.79v4.688H394.1V396.5a.758.758,0,0,0,.008-.142c0-.1-.008-.2-.008-.3a7.685,7.685,0,0,1,15.37,0c0,.1,0,.2-.008.3a.727.727,0,0,0,.008.141Zm9.672-2.3v3.1h-8.141v-.9a.761.761,0,0,0,0-.085c0-.082,0-.162,0-.248a9.153,9.153,0,0,0-1.3-4.719,5.07,5.07,0,0,1,9.445,2.565c0,.067,0,.134-.005.2a.474.474,0,0,0,.005.089Z" transform="translate(1164.575 45.287)" fill="#682875"/>
  </g>
</svg>
