<svg xmlns="http://www.w3.org/2000/svg" width="55" height="48" viewBox="0 0 55 48">
  <g id="quitionbank_workflow" transform="translate(0 -767)">
    <g id="quitionbank_workflow-2" data-name="quitionbank_workflow" transform="translate(2254 8071)">
      <path id="Path_931" data-name="Path 931" d="M36.7,23.8a3.672,3.672,0,0,0-3.815,3.308.573.573,0,0,0,.573.64h.9a.549.549,0,0,0,.551-.485,1.847,1.847,0,0,1,3.352-.617,1.313,1.313,0,0,1-.088,1.389,3.172,3.172,0,0,1-.86.794,3.013,3.013,0,0,0-1.478,2.624.58.58,0,0,0,.573.617h.882a.576.576,0,0,0,.573-.529,1.078,1.078,0,0,1,.617-1.059,5.133,5.133,0,0,0,1.323-1.257,3.349,3.349,0,0,0,.265-3.506A3.71,3.71,0,0,0,36.7,23.8Z" transform="translate(-2262.878 -7309.209)" fill="#0B7BA1"/>
      <circle id="Ellipse_5" data-name="Ellipse 5" cx="1.235" cy="1.235" r="1.235" transform="translate(-2227.283 -7276.323)" fill="#0B7BA1"/>
      <path id="Path_1292" data-name="Path 1292" d="M70.168,507.928A10.073,10.073,0,0,0,86.479,500.1L88.4,500h0a12.006,12.006,0,0,1-19.856,9.078l-1.892,1.341-.311-3.425L66,503.569l3.138,1.437,3.114,1.437Z" transform="translate(-2302.395 -7780)" fill="#0B7BA1"/>
      <path id="Path_1293" data-name="Path 1293" d="M11-1a11.907,11.907,0,0,1,8.359,3.4l2.084-1.317.216,6.922L15.575,4.748l2.084-1.317A10.074,10.074,0,0,0,.916,11c0,.24,0,.5.024.743l-1.916.144C-.976,11.6-1,11.287-1,11A12.021,12.021,0,0,1,11-1Z" transform="translate(-2237 -7291)" fill="#0B7BA1"/>
    </g>
    <rect id="Rectangle_532" data-name="Rectangle 532" width="55" height="48" transform="translate(0 767)" fill="rgba(255,255,255,0)"/>
  </g>
</svg>
