<svg xmlns="http://www.w3.org/2000/svg" width="55" height="48" viewBox="0 0 55 48">
  <g id="modules_icon_blue_30x40" transform="translate(-0.5 -169.5)">
    <rect id="Rectangle_2" data-name="Rectangle 2" width="55" height="48" transform="translate(0.5 169.5)" fill="rgba(255,255,255,0)"/>
    <path id="Shape_3" data-name="Shape 3" d="M37.5,86.414H35.8a1,1,0,0,0-.282-.271l-1.7-1.036A5.839,5.839,0,0,0,27,85.617a5.844,5.844,0,0,0-6.818-.511l-1.7,1.036a.994.994,0,0,0-.282.271H16.5a1.519,1.519,0,0,0-1.5,1.53v15.269a1.518,1.518,0,0,0,1.5,1.53H37.5a1.519,1.519,0,0,0,1.5-1.53V87.944A1.518,1.518,0,0,0,37.5,86.414ZM28,87.438a3.875,3.875,0,0,1,4.789-.586l1.211.74V99.653H29.927a4.06,4.06,0,0,0-1.927.483Zm-6.789-.586A3.875,3.875,0,0,1,26,87.438v12.7a4.072,4.072,0,0,0-1.927-.482H20V87.592ZM17,88.45h1v12.221a1.009,1.009,0,0,0,1,1.018h5.073a2.084,2.084,0,0,1,1.778,1.018H17Zm20,14.257H28.15a2.085,2.085,0,0,1,1.777-1.018H35a1.009,1.009,0,0,0,1-1.018V88.45h1Z" transform="translate(1 98.757)" fill="#0B7BA1" stroke="rgba(0,0,0,0)" stroke-width="1"/>
  </g>
</svg>
