<svg xmlns="http://www.w3.org/2000/svg" width="55" height="48" viewBox="0 0 55 48">
  <g id="Report_Builder_01_" transform="translate(-0.5 -412.5)">
    <g id="Group_3321" data-name="Group 3321" transform="translate(-934 -86.4)">
      <g id="Group_3320" data-name="Group 3320" transform="translate(954.443 513.584)">
        <g id="noun_report_1546905">
          <path id="Path_1338" data-name="Path 1338" d="M20.616,18.169H24.4A.585.585,0,0,0,24.4,17H20.616a.584.584,0,0,0,0,1.168Z" transform="translate(-19.666 -17.001)" fill="#682875"/>
          <path id="Path_1339" data-name="Path 1339" d="M20.616,29.363h6.306a.584.584,0,1,0,0-1.168H20.616a.584.584,0,0,0,0,1.168Z" transform="translate(-19.666 -25.089)" fill="#682875"/>
          <path id="Path_1340" data-name="Path 1340" d="M51.946,29.363h4.533a.584.584,0,1,0,0-1.168H51.946a.584.584,0,0,0,0,1.168Z" transform="translate(-42.302 -25.089)" fill="#682875"/>
          <path id="Path_1341" data-name="Path 1341" d="M59.35,41.659a.584.584,0,0,0-.584-.584H54.979a.584.584,0,0,0,0,1.168h3.787A.584.584,0,0,0,59.35,41.659Z" transform="translate(-44.494 -34.395)" fill="#682875"/>
          <path id="Path_1342" data-name="Path 1342" d="M41.914,18.169h1.133a.584.584,0,0,0,0-1.168H41.914a.584.584,0,1,0,0,1.168Z" transform="translate(-35.054 -17.001)" fill="#682875"/>
          <path id="Path_1343" data-name="Path 1343" d="M23.656,36.72a.584.584,0,0,0-.584.584v.258a3.235,3.235,0,1,0,3.764,3.764h.257a.584.584,0,0,0,.584-.584A4.027,4.027,0,0,0,23.656,36.72Zm.584,1.228a2.863,2.863,0,0,1,2.21,2.21H24.24Zm-.584,4.863a2.069,2.069,0,0,1-.584-4.053v1.984a.584.584,0,0,0,.584.584H25.64a2.074,2.074,0,0,1-1.984,1.486Z" transform="translate(-19.945 -31.249)" fill="#682875"/>
          <path id="Path_1344" data-name="Path 1344" d="M32.3,56.984H29.883a.584.584,0,1,0,0,1.168h1.059L27.127,61.5l-2.8-1.912a.585.585,0,0,0-.789.121l-2.026,2.572-1.8-1.891a.584.584,0,1,0-.847.8l2.26,2.38a.584.584,0,0,0,.424.183h.027a.586.586,0,0,0,.432-.222l2.106-2.673,2.722,1.86a.583.583,0,0,0,.714-.044l4.156-3.646v.952a.584.584,0,1,0,1.168,0V57.568a.584.584,0,0,0-.574-.584Z" transform="translate(-18.711 -45.89)" fill="#682875"/>
        </g>
      </g>
      <g id="noun_Certificate_878663_1_" data-name="noun_Certificate_878663 (1)" transform="translate(951 509)">
        <path id="Path_1318" data-name="Path 1318" d="M18.731,26.4H3.269A3.273,3.273,0,0,1,0,23.131V3.269A3.273,3.273,0,0,1,3.269,0H18.732A3.272,3.272,0,0,1,22,3.269V23.132A3.272,3.272,0,0,1,18.731,26.4ZM3.269,2.2A1.07,1.07,0,0,0,2.2,3.269V23.132A1.07,1.07,0,0,0,3.269,24.2H18.732A1.07,1.07,0,0,0,19.8,23.131V3.269A1.07,1.07,0,0,0,18.731,2.2Z" fill="#682875"/>
      </g>
    </g>
    <rect id="Rectangle_2" data-name="Rectangle 2" width="55" height="48" transform="translate(0.5 412.5)" fill="rgba(255,255,255,0)"/>
  </g>
</svg>
