<svg xmlns="http://www.w3.org/2000/svg" width="55" height="48" viewBox="0 0 55 48">
  <g id="ic_form_off" transform="translate(14.5 13.5)">
    <rect id="Rectangle_4" data-name="Rectangle 4" width="55" height="48" transform="translate(-14.5 -13.5)" fill="rgba(255,255,255,0)"/>
    <path id="Path_958" data-name="Path 958" d="M26.393,11.816H24.255V6.182a.88.88,0,0,0-.9-.869H3.173a.867.867,0,0,0-.89.869v8.887a.889.889,0,0,0,.89.894H5.311V21.6a.926.926,0,0,0,.9.923h9.79l2.9,3.068a.892.892,0,0,0,.658.276.881.881,0,0,0,.329-.067.9.9,0,0,0,.563-.838V22.522h5.94a.914.914,0,0,0,.89-.923V12.712a.89.89,0,0,0-.89-.9ZM4.076,14.17V7.111H22.462v7.063h-9.29a.89.89,0,0,0-.65.284l-1.606,1.715v-1.1a.9.9,0,0,0-.9-.9Zm21.413,6.559H19.554a.88.88,0,0,0-.9.871v1.1L17.043,21a.877.877,0,0,0-.65-.27H7.1V15.961H9.12v2.466a.892.892,0,0,0,1.545.613l2.895-3.076h9.792a.9.9,0,0,0,.9-.894V13.61h1.233ZM15.706,9.014A1.509,1.509,0,0,1,17.3,7.756c.871,0,1.726.4,1.726,1.36,0,.884-1.013,1.223-1.233,1.544-.164.238-.109.571-.557.571a.433.433,0,0,1-.436-.455c0-.809,1.19-.993,1.19-1.659a.572.572,0,0,0-.653-.585c-.871,0-.53.9-1.19.9a.411.411,0,0,1-.441-.416Zm2.114,3.216a.557.557,0,1,1-.557-.557.557.557,0,0,1,.557.557Zm-2.375,5.3a.71.71,0,1,1-.709-.71.71.71,0,0,1,.709.71Zm3.1,0a.71.71,0,1,1-.71-.71.71.71,0,0,1,.71.71Zm3.1,0a.71.71,0,1,1-.709-.71.71.71,0,0,1,.709.71Zm-5.967-4.822H7.552a.449.449,0,0,1,0-.9H15.68a.449.449,0,0,1,0,.9Z" transform="translate(-2.283 -5.313)" fill="#0B7BA1"/>
  </g>
</svg>
