<svg xmlns="http://www.w3.org/2000/svg" width="55" height="48" viewBox="0 0 55 48">
  <g id="logout_left" transform="translate(0 -852)">
    <rect id="Rectangle_2" data-name="Rectangle 2" width="55" height="48" transform="translate(0 852)" fill="rgba(255,255,255,0)"/>
    <path id="Shape_4" data-name="Shape 4" d="M12.741,23.555A1.991,1.991,0,0,1,12,22v0H8.5A2.5,2.5,0,0,1,6,19.5V18a1,1,0,0,1,2,0v1.5a.5.5,0,0,0,.5.5H12V5.01a2,2,0,0,1,1.5-1.936L17.66,2H8.507A.509.509,0,0,0,8,2.507V4A1,1,0,1,1,6,4V2.507A2.51,2.51,0,0,1,8.507,0H21.9A2.1,2.1,0,0,1,24,2.1a.949.949,0,0,1-.056.276A.949.949,0,0,1,24,2.654V20.285a2.008,2.008,0,0,1-1.58,1.954l-8,1.716A2.051,2.051,0,0,1,14,24,1.987,1.987,0,0,1,12.741,23.555ZM14,5.011V21h0v1l8-1.717V2.947Zm-7.706,9.7a1,1,0,0,1,0-1.414L7.586,12H1a1,1,0,1,1,0-2H7.586L6.293,8.707A1,1,0,0,1,7.707,7.293l3,3a1,1,0,0,1,0,1.414l-3,3a1,1,0,0,1-1.414,0Z" transform="translate(15 864)" fill="#682875" stroke="rgba(0,0,0,0)" stroke-width="1"/>
  </g>
</svg>
