<svg xmlns="http://www.w3.org/2000/svg" width="55" height="48" viewBox="0 0 55 48">
  <g id="Group_3" data-name="Group 3" transform="translate(-355 -401)">
    <g id="icon_Community" transform="translate(370.024 412.982)">
      <path id="Layer_1" data-name="Layer 1" d="M18.373,19.793a1.192,1.192,0,0,1-.482.777,1.178,1.178,0,0,1-.69.222,1.158,1.158,0,0,1-.965-.482,1.182,1.182,0,1,1,2.137-.516M10.3,19.93a3.537,3.537,0,0,0-4.931-3.577,7.672,7.672,0,0,1-1.038-3.2A3.537,3.537,0,0,0,6.212,7.356,7.721,7.721,0,0,1,8.938,5.373a3.542,3.542,0,0,0,6.094,0,7.586,7.586,0,0,1,2.726,1.978,3.542,3.542,0,0,0,1.882,5.792A7.586,7.586,0,0,1,18.6,16.352a3.545,3.545,0,0,0-4.927,3.571,7.629,7.629,0,0,1-3.378,0m-2.586.391a1.176,1.176,0,0,1-2.113-.521,1.19,1.19,0,1,1,2.137.509M2.4,9.327a1.182,1.182,0,0,1,1.124-.82,1.221,1.221,0,0,1,.367.064,1.193,1.193,0,0,1-.352,2.33,1.086,1.086,0,0,1-.367-.064,1.187,1.187,0,0,1-.69-.589A1.168,1.168,0,0,1,2.4,9.326m9.583-6.953A1.187,1.187,0,1,1,10.8,3.56a1.187,1.187,0,0,1,1.187-1.187m9.569,6.953a1.187,1.187,0,0,1-.073.9,1.172,1.172,0,0,1-.69.589,1.066,1.066,0,0,1-.367.064,1.178,1.178,0,1,1,1.129-1.534M23.8,8.619a3.551,3.551,0,0,0-3.377-2.458,3.281,3.281,0,0,0-.57.048,9.974,9.974,0,0,0-4.372-3.183,3.547,3.547,0,0,0-7.011,0A9.988,9.988,0,0,0,4.1,6.186a3.692,3.692,0,0,0-.56-.043,3.551,3.551,0,0,0-1.621,6.717A9.984,9.984,0,0,0,3.6,18.008a3.547,3.547,0,0,0,5.675,4.116,9.984,9.984,0,0,0,5.414,0A3.547,3.547,0,0,0,20.356,18a9.984,9.984,0,0,0,1.679-5.149A3.542,3.542,0,0,0,23.8,8.593" fill="#682875"/>
    </g>
    <rect id="Rectangle_1" data-name="Rectangle 1" width="55" height="48" transform="translate(355 401)" fill="none"/>
  </g>
</svg>
