<svg xmlns="http://www.w3.org/2000/svg" width="55" height="48" viewBox="0 0 55 48">
  <g id="settings_icon_white" transform="translate(-0.5 -315.5)">
    <rect id="Rectangle_2" data-name="Rectangle 2" width="55" height="48" transform="translate(0.5 315.5)" fill="rgba(255,255,255,0)"/>
    <path id="Path_1213" data-name="Path 1213" d="M12,16a4,4,0,1,1,4-4A4,4,0,0,1,12,16Zm0-6a2,2,0,1,0,2,2A2,2,0,0,0,12,10Zm0,14c-.4,0-.794-.021-1.184-.06a1,1,0,0,1-.845-.66l-1-2.808q-.426-.151-.827-.34L5.458,21.41a1,1,0,0,1-1.064-.131A12.06,12.06,0,0,1,2.719,19.6a1,1,0,0,1-.13-1.063l1.278-2.688c-.126-.267-.239-.543-.34-.826l-2.807-1a1,1,0,0,1-.66-.845A11.67,11.67,0,0,1,0,12c0-.4.021-.794.06-1.184a1,1,0,0,1,.66-.845l2.808-1a8.722,8.722,0,0,1,.34-.826L2.589,5.458A1,1,0,0,1,2.719,4.4,12.107,12.107,0,0,1,4.394,2.72a1,1,0,0,1,1.063-.13L8.145,3.868c.267-.125.543-.239.826-.34l1-2.808a1,1,0,0,1,.845-.66,12.166,12.166,0,0,1,2.368,0,1,1,0,0,1,.845.66l1,2.808a8.722,8.722,0,0,1,.826.34L18.542,2.59a1,1,0,0,1,1.063.13,12.06,12.06,0,0,1,1.676,1.675,1,1,0,0,1,.131,1.064L20.134,8.147a8.809,8.809,0,0,1,.34.827l2.808,1a1,1,0,0,1,.66.845c.037.389.058.783.058,1.183s-.021.794-.06,1.184a1,1,0,0,1-.66.845l-2.808,1a8.722,8.722,0,0,1-.34.826l1.278,2.688a1,1,0,0,1-.131,1.064A12.107,12.107,0,0,1,19.6,21.281a1,1,0,0,1-1.064.131l-2.688-1.278c-.267.126-.543.239-.826.34l-1,2.808a1,1,0,0,1-.845.66C12.794,23.979,12.4,24,12,24Zm-.364-2.007c.24.01.484.01.727,0l.944-2.654a1,1,0,0,1,.661-.625,6.969,6.969,0,0,0,1.389-.571,1,1,0,0,1,.911-.027l2.539,1.208q.267-.249.516-.516l-1.208-2.539a1,1,0,0,1,.027-.911,6.91,6.91,0,0,0,.571-1.389,1,1,0,0,1,.625-.661l2.654-.944L22,12l-.007-.364-2.654-.944a1,1,0,0,1-.625-.661,6.936,6.936,0,0,0-.571-1.388,1,1,0,0,1-.027-.911l1.208-2.54q-.249-.267-.516-.515L16.269,5.885a1,1,0,0,1-.911-.027,7,7,0,0,0-1.389-.572,1,1,0,0,1-.661-.625l-.944-2.655c-.241-.009-.486-.009-.727,0l-.944,2.655a1,1,0,0,1-.661.625,7,7,0,0,0-1.39.572,1,1,0,0,1-.91.027L5.192,4.678q-.267.247-.515.515l1.207,2.54a1,1,0,0,1-.027.91,7.044,7.044,0,0,0-.571,1.388,1,1,0,0,1-.625.661l-2.655.944L2,12l.007.363,2.655.944a1,1,0,0,1,.625.661,6.937,6.937,0,0,0,.572,1.389,1,1,0,0,1,.027.911L4.678,18.807c.166.178.337.35.515.516l2.54-1.208a1,1,0,0,1,.911.027,6.9,6.9,0,0,0,1.388.571,1,1,0,0,1,.661.625Z" transform="translate(16 326.998)" fill="#0b7ba1"/>
  </g>
</svg>
