<svg xmlns="http://www.w3.org/2000/svg" width="55" height="48" viewBox="0 0 55 48">
  <g id="Group_1" data-name="Group 1" transform="translate(-471 -315)">
    <rect id="Rectangle_1" data-name="Rectangle 1" width="55" height="48" transform="translate(471 315)" fill="none"/>
    <g id="services_lefton" transform="translate(482 -630.362)">
      <path id="Path_13912" data-name="Path 13912" d="M17.982,957.364a.8.8,0,0,0-.716.8v.966a5.922,5.922,0,0,0-.617.217l-.683-.683a.8.8,0,0,0-1.133,0l-1.866,1.866a.8.8,0,0,0-.058,1.067l.75.941c-.063.138-.126.283-.175.425H12.467a.8.8,0,0,0-.8.8v2.667a.8.8,0,0,0,.8.8h.975a5.945,5.945,0,0,0,.217.608l-.691.691a.8.8,0,0,0,0,1.125l1.754,1.754c-.222-.052-.45-.1-.683-.141a25.758,25.758,0,0,0-3.975-.3v-.277a.8.8,0,0,0-.8-.8H5.8a.76.76,0,0,0-.8.8v7.477a.8.8,0,0,0,.8.8H9.266a.8.8,0,0,0,.4-.1A11.2,11.2,0,0,0,17,981.357c2.285,0,4.861-1.133,6.941-2.224a36.557,36.557,0,0,0,3.633-2.183.036.036,0,0,0,.017-.008,3.616,3.616,0,0,0,1.025-.892A2.318,2.318,0,0,0,29,974.7a1.717,1.717,0,0,0-.5-1.192,2.156,2.156,0,0,0-.9-.509,4.207,4.207,0,0,0-1.266-.167,4.661,4.661,0,0,0-2.042.608c-.223.109-.232.124-.4.217a2.115,2.115,0,0,0-1.825-1.092h-.733a.8.8,0,0,0,.2-.534v-.97a5.935,5.935,0,0,0,.617-.217l.683.683a.8.8,0,0,0,1.133,0l1.866-1.866a.8.8,0,0,0,0-1.125l-.691-.691a5.947,5.947,0,0,0,.217-.608h.975a.8.8,0,0,0,.8-.8v-2.668a.8.8,0,0,0-.8-.8H25.318c-.05-.141-.113-.287-.175-.425l.75-.942a.8.8,0,0,0-.058-1.067l-1.866-1.866a.8.8,0,0,0-1.133,0l-.683.683a5.922,5.922,0,0,0-.617-.217v-.969a.8.8,0,0,0-.8-.8H18.066a.786.786,0,0,0-.083,0Zm.883,1.6h1.067v.8a.8.8,0,0,0,.608.774,6.237,6.237,0,0,1,1.385.442.8.8,0,0,0,.975-.125l.5-.5.8.8-.625.775a.8.8,0,0,0-.058.908,3.4,3.4,0,0,1,.441,1.117.8.8,0,0,0,.775.608h.8v1.067h-.8a.8.8,0,0,0-.775.6,6.223,6.223,0,0,1-.441,1.385.8.8,0,0,0,.116.975l.5.509-.733.733-.5-.5a.8.8,0,0,0-.975-.125,6.219,6.219,0,0,1-1.385.441.8.8,0,0,0-.608.784v.8H18.866v-.8a.8.8,0,0,0-.608-.784,6.222,6.222,0,0,1-1.385-.441.8.8,0,0,0-.975.125l-.5.5-.733-.733.5-.509a.8.8,0,0,0,.116-.975,6.225,6.225,0,0,1-.441-1.385.8.8,0,0,0-.775-.6h-.8v-1.067h.8a.8.8,0,0,0,.775-.608,3.4,3.4,0,0,1,.441-1.117.8.8,0,0,0-.058-.908l-.625-.775.8-.8.5.5a.8.8,0,0,0,.975.125,6.216,6.216,0,0,1,1.385-.442.8.8,0,0,0,.608-.775Zm.534,2.667a3.466,3.466,0,1,0,3.467,3.466A3.466,3.466,0,0,0,19.4,961.63Zm0,1.6a1.854,1.854,0,1,1-1.324.543,1.854,1.854,0,0,1,1.324-.543Zm-2.75,7.608a5.937,5.937,0,0,0,.617.217v.975a.8.8,0,0,0,.209.534h-.2a5.236,5.236,0,0,0-1.569-.858.8.8,0,0,0,.258-.185ZM6.6,971.5H8.467v5.866H6.6Zm3.467,1.084a24.94,24.94,0,0,1,3.7.267,5.156,5.156,0,0,1,2.667,1.075.8.8,0,0,0,.567.242h5.067a.534.534,0,1,1,0,1.067H14.333a.8.8,0,1,0,0,1.6h7.733a2.13,2.13,0,0,0,1.992-1.442l.033-.017s.394-.245.9-.491a4.916,4.916,0,0,1,1.341-.45,3.1,3.1,0,0,1,.8.092.779.779,0,0,1,.258.125c.023.023.008-.017.008.05,0,.311-.026.353-.083.433a2.828,2.828,0,0,1-.625.5l-.017.008a36.384,36.384,0,0,1-3.484,2.083c-1.985,1.041-4.476,2.042-6.192,2.042-3.615,0-4.746-1.06-6.933-2.558Z" transform="translate(0 0)" fill="#682875"/>
    </g>
  </g>
</svg>
