<svg xmlns="http://www.w3.org/2000/svg" width="55" height="48" viewBox="0 0 55 48">
  <g id="reports_2" transform="translate(-0.5 -266.5)">
    <rect id="Rectangle_2" data-name="Rectangle 2" width="55" height="48" transform="translate(0.5 266.5)" fill="rgba(255,255,255,0)"/>
    <path id="Path_1212" data-name="Path 1212" d="M16.206,10.407a1,1,0,0,1-.8-1.6l3.6-4.8a1,1,0,1,1,1.6,1.2l-3.6,4.8A1,1,0,0,1,16.206,10.407Zm-2.871.484a1,1,0,0,1-.554-.168L10.109,8.942a1,1,0,1,1,1.11-1.664l2.672,1.781a1,1,0,0,1-.556,1.832ZM3,24a1,1,0,0,1-1-1V20a1,1,0,0,1,2,0v3A1,1,0,0,1,3,24Zm12,0a1,1,0,0,1-1-1V16a1,1,0,0,1,2,0v7A1,1,0,0,1,15,24ZM9,24a1,1,0,0,1-1-1V12a1,1,0,0,1,2,0V23A1,1,0,0,1,9,24ZM3,18a3,3,0,1,1,3-3A3,3,0,0,1,3,18Zm0-4a1,1,0,1,0,1,1A1,1,0,0,0,3,14ZM21,24a1,1,0,0,1-1-1V8a1,1,0,0,1,2,0V23A1,1,0,0,1,21,24ZM15,14a3,3,0,1,1,3-3A3,3,0,0,1,15,14Zm0-4a1,1,0,1,0,1,1A1,1,0,0,0,15,10ZM9,10a3,3,0,1,1,3-3A3,3,0,0,1,9,10ZM9,6a1,1,0,1,0,1,1A1,1,0,0,0,9,6ZM21,6a3,3,0,1,1,3-3A3,3,0,0,1,21,6Zm0-4a1,1,0,1,0,1,1A1,1,0,0,0,21,2Zm2,22H1a1,1,0,0,1,0-2H23a1,1,0,0,1,0,2ZM4.5,14a1,1,0,0,1-.8-1.6l3-4A1,1,0,0,1,8.3,9.6l-3,4a1,1,0,0,1-.8.4Z" transform="translate(16 278)" fill="#0B7BA1"/>
  </g>
</svg>
