<svg id="Group_30" data-name="Group 30" xmlns="http://www.w3.org/2000/svg" viewBox="0 0 22.097 22">
  <defs>
    <style>
      .cls-1 {
        fill: #666;
      }
    </style>
  </defs>
  <path id="Path_55" data-name="Path 55" class="cls-1" d="M0,18.857A3.152,3.152,0,0,0,3.143,22h7.071a3.152,3.152,0,0,0,3.143-3.143V15.924a1.048,1.048,0,0,0-2.1,0v2.933A1.051,1.051,0,0,1,10.214,19.9H3.143A1.051,1.051,0,0,1,2.1,18.857V3.143A1.051,1.051,0,0,1,3.143,2.1h7.071a1.051,1.051,0,0,1,1.048,1.048V6.024a1.048,1.048,0,0,0,2.1,0V3.143A3.152,3.152,0,0,0,10.214,0H3.143A3.152,3.152,0,0,0,0,3.143Z"/>
  <path id="Path_56" data-name="Path 56" class="cls-1" d="M30.983,29.686a1.044,1.044,0,0,0,1.493,0h0l5.5-5.5a1.04,1.04,0,0,0,.1-1.467l-.1-.1-5.5-5.5a1.056,1.056,0,0,0-1.493,1.493l3.771,3.745H23.048a1.048,1.048,0,0,0,0,2.1H34.755l-3.771,3.771A1.06,1.06,0,0,0,30.983,29.686Z" transform="translate(-16.238 -12.4)"/>
</svg>
