<svg xmlns="http://www.w3.org/2000/svg" width="40" height="40" viewBox="0 0 40 40">
  <g id="organization_2" transform="translate(-678 -95)">
    <path id="Path_1226" data-name="Path 1226" d="M23.333,40H1.667A1.666,1.666,0,0,1,0,38.333c0-6.35,5.607-11.515,12.5-11.515S25,31.983,25,38.333A1.665,1.665,0,0,1,23.333,40ZM3.525,36.667H21.477c-.865-3.715-4.56-6.515-8.975-6.515s-8.113,2.8-8.977,6.515ZM12.5,30.152a7.576,7.576,0,1,1,7.575-7.575A7.584,7.584,0,0,1,12.5,30.152Zm0-11.818a4.243,4.243,0,1,0,4.242,4.243A4.248,4.248,0,0,0,12.5,18.333Zm15-3.182a7.576,7.576,0,1,1,7.577-7.577A7.583,7.583,0,0,1,27.5,15.152Zm0-11.818a4.242,4.242,0,1,0,4.243,4.242A4.247,4.247,0,0,0,27.5,3.333ZM38.333,25H23.292a1.667,1.667,0,1,1,0-3.333H36.477c-.867-3.715-4.56-6.515-8.977-6.515a9.755,9.755,0,0,0-5.7,1.787,1.667,1.667,0,0,1-1.935-2.715A13.076,13.076,0,0,1,27.5,11.818c6.893,0,12.5,5.167,12.5,11.515A1.665,1.665,0,0,1,38.333,25Z" transform="translate(678 95)" fill="#fff"/>
  </g>
</svg>
