<svg xmlns="http://www.w3.org/2000/svg" width="38" height="38" viewBox="0 0 38 38">
  <g id="institute_management_home" transform="translate(-948 -95)">
    <path id="Path_1223" data-name="Path 1223" d="M36.417,38H1.583a1.583,1.583,0,0,1,0-3.167H36.417a1.583,1.583,0,1,1,0,3.167Zm-1.583-4.75H3.167a1.583,1.583,0,0,1,0-3.167H34.834a1.583,1.583,0,1,1,0,3.167Zm-31.667,0a1.583,1.583,0,0,1-1.583-1.583V17.417a1.583,1.583,0,0,1,3.167,0v14.25A1.583,1.583,0,0,1,3.167,33.25Zm6.333,0a1.583,1.583,0,0,1-1.583-1.583V17.417a1.583,1.583,0,0,1,3.167,0v14.25A1.583,1.583,0,0,1,9.5,33.25Zm19,0a1.582,1.582,0,0,1-1.583-1.583V17.417a1.583,1.583,0,0,1,3.167,0v14.25A1.582,1.582,0,0,1,28.5,33.25Zm6.333,0a1.582,1.582,0,0,1-1.583-1.583V17.417a1.583,1.583,0,0,1,3.167,0v14.25A1.582,1.582,0,0,1,34.834,33.25Zm-19,0a1.583,1.583,0,0,1-1.583-1.583V17.417a1.583,1.583,0,0,1,3.167,0v14.25A1.583,1.583,0,0,1,15.833,33.25Zm6.333,0a1.582,1.582,0,0,1-1.583-1.583V17.417a1.583,1.583,0,0,1,3.167,0v14.25A1.582,1.582,0,0,1,22.167,33.25ZM36,12.667H2a2,2,0,0,1-.915-3.786L17.734.307a2.765,2.765,0,0,1,2.535,0L36.913,8.882A2,2,0,0,1,36,12.667ZM6.8,9.5H31.2L19,3.217,6.8,9.5ZM18.459,1.715h0Z" transform="translate(948 95)" fill="#fff"/>
  </g>
</svg>
