<svg xmlns="http://www.w3.org/2000/svg" width="37.703" height="36.382" viewBox="0 0 37.703 36.382">
  <g id="icon_Community" transform="translate(0.024 -0.015)">
    <path id="Layer_1" data-name="Layer 1" d="M28.877,31.085a1.872,1.872,0,0,1-.758,1.221,1.85,1.85,0,0,1-1.084.349,1.819,1.819,0,0,1-1.516-.758,1.857,1.857,0,1,1,3.358-.811M16.194,31.3A5.557,5.557,0,0,0,8.447,25.68a12.053,12.053,0,0,1-1.63-5.034,5.557,5.557,0,0,0,2.956-9.1,12.129,12.129,0,0,1,4.283-3.116,5.564,5.564,0,0,0,9.574,0,11.917,11.917,0,0,1,4.283,3.108,5.564,5.564,0,0,0,2.956,9.1,11.917,11.917,0,0,1-1.637,5.041,5.57,5.57,0,0,0-7.74,5.61,11.985,11.985,0,0,1-5.307,0m-4.063.614a1.848,1.848,0,0,1-3.32-.819,1.87,1.87,0,1,1,3.358.8M3.785,14.642a1.857,1.857,0,0,1,1.766-1.289,1.918,1.918,0,0,1,.576.1,1.865,1.865,0,0,1,1.107.955,1.869,1.869,0,0,1-1.66,2.706,1.706,1.706,0,0,1-.576-.1,1.865,1.865,0,0,1-1.084-.925,1.835,1.835,0,0,1-.129-1.448M18.84,3.718a1.865,1.865,0,1,1-1.865,1.865A1.865,1.865,0,0,1,18.84,3.718M33.873,14.642a1.865,1.865,0,0,1-.114,1.418,1.842,1.842,0,0,1-1.084.925,1.675,1.675,0,0,1-.576.1,1.844,1.844,0,0,1-.569-3.6,1.835,1.835,0,0,1,2.342,1.19m3.533-1.145A5.579,5.579,0,0,0,32.1,9.669a5.155,5.155,0,0,0-.895.076,15.669,15.669,0,0,0-6.868-5,5.572,5.572,0,0,0-11.015,0A15.692,15.692,0,0,0,6.453,9.707a5.8,5.8,0,0,0-.879-.068A5.579,5.579,0,0,0,3.027,20.191,15.685,15.685,0,0,0,5.672,28.28a5.572,5.572,0,0,0,8.915,6.466,15.685,15.685,0,0,0,8.506,0,5.572,5.572,0,0,0,8.9-6.482,15.685,15.685,0,0,0,2.638-8.089,5.564,5.564,0,0,0,2.775-6.686" transform="translate(0 0)" fill="#fff"/>
  </g>
</svg>
