<svg xmlns="http://www.w3.org/2000/svg" width="21.254" height="30" viewBox="0 0 21.254 30">
  <g id="animated_html_on" transform="translate(-401 -262)">
    <path id="Path_2" data-name="Path 2" d="M91.144,231.968,89.21,210.273h21.254l-1.936,21.691-8.7,2.413Z" transform="translate(311.79 57.623)" fill="#fff"/>
    <path id="Union_1" data-name="Union 1" d="M1.21,13.554.836,9.376H3.507L3.7,11.5l2.963.8.012,0h0l2.958-.8.31-3.451H.717L.064.714,0,0H13.328l-.064.714-.121,1.349-.054.6H2.908l.243,2.725h9.7l-.065.715-.626,7-.04.45L6.672,15.064h0l-.012,0Z" transform="translate(404.955 272.33)" fill="#007a9f"/>
    <g id="animated_html_on_" data-name="animated_html_on " transform="translate(253 228)">
      <path id="Path_6" data-name="Path 6" d="M129.55,90H130.9v1.336h1.237V90h1.352v4.046h-1.352V92.691H130.9v1.355H129.55V90Z" transform="translate(20.427 -56)" fill="#fff"/>
      <path id="Path_7" data-name="Path 7" d="M223.134,91.342h-1.19V90h3.734v1.342h-1.191v2.7h-1.352v-2.7Z" transform="translate(-67.437 -56)" fill="#fff"/>
      <path id="Path_8" data-name="Path 8" d="M310.2,90h1.41l.867,1.421L313.34,90h1.41v4.046H313.4V92.04l-.93,1.438h-.023l-.931-1.438v2.005H310.2Z" transform="translate(-151.363 -56)" fill="#fff"/>
      <path id="animated_html_on-2" data-name="animated_html_on" d="M416.829,90h1.353v2.708h1.9v1.337h-3.254Z" transform="translate(-252.769 -56)" fill="#fff"/>
    </g>
  </g>
</svg>
