<svg xmlns="http://www.w3.org/2000/svg" width="25" height="25" viewBox="0 0 25 25">
  <g id="ic_Article_off" transform="translate(-59 -557)">
    <rect id="Rectangle_10" data-name="Rectangle 10" width="25" height="25" transform="translate(59 557)" fill="rgba(255,255,255,0)"/>
    <path id="Path_1251" data-name="Path 1251" d="M16.725,16.732a.835.835,0,0,1-.836-.836V2.551a.836.836,0,0,1,1.673,0V15.9A.835.835,0,0,1,16.725,16.732Zm0-13.345a.836.836,0,0,1-.836-.836.837.837,0,0,0-.836-.836H2.509a.836.836,0,0,1,0-1.673H15.053a2.512,2.512,0,0,1,2.509,2.509A.836.836,0,0,1,16.725,3.387Zm.836,16.655a.836.836,0,1,1,0-1.673.837.837,0,0,0,.836-.836v-.8H7.526a.836.836,0,1,1,0-1.673H19.234a.836.836,0,0,1,.836.836v1.637A2.512,2.512,0,0,1,17.561,20.042Zm-11.708,0a2.512,2.512,0,0,1-2.509-2.509.836.836,0,0,1,1.673,0,.836.836,0,0,0,1.673,0V15.9a.836.836,0,0,1,1.673,0v1.637A2.512,2.512,0,0,1,5.854,20.042Zm11.708,0H5.854a2.512,2.512,0,0,1-2.509-2.509V5.024H.836A.837.837,0,0,1,0,4.188V2.551a2.509,2.509,0,1,1,5.018,0V17.534a.837.837,0,0,0,.836.836H17.561a.836.836,0,1,1,0,1.672ZM1.673,3.352H3.345v-.8a.836.836,0,0,0-1.673,0ZM13.38,9.206H7.526a.836.836,0,1,1,0-1.673H13.38a.836.836,0,0,1,0,1.673Zm0-3.295H10.035a.836.836,0,0,1,0-1.673H13.38a.836.836,0,0,1,0,1.673Zm-5.854,0a.836.836,0,1,1,.836-.836A.839.839,0,0,1,7.526,5.911Zm5.854,6.64H7.526a.836.836,0,1,1,0-1.673H13.38a.836.836,0,0,1,0,1.673Z" transform="translate(61 559.958)" fill="#1d2858"/>
  </g>
</svg>
