<svg xmlns="http://www.w3.org/2000/svg" width="22" height="27.518" viewBox="0 0 22 27.518">
  <g id="Group_39" data-name="Group 39" transform="translate(-1216 -263)">
    <path id="Path_41" data-name="Path 41" d="M27.263,23.2q.007-6.718,0-13.435a4.02,4.02,0,0,0-4.154-4.142h-.771V7.1l.019.219.219,0a3.952,3.952,0,0,1,1.405.135,2.317,2.317,0,0,1,1.57,2.308V21.823c0,.425,0,.85-.005,1.274-.006.958-.013,1.948.014,2.923a2.333,2.333,0,0,1-.663,1.7,2.48,2.48,0,0,1-1.8.739q-3.01-.017-6.02-.015l-7.655.006A2.35,2.35,0,0,1,6.959,26q0-7.951.006-15.9a3.839,3.839,0,0,1,.127-1.163A2.141,2.141,0,0,1,9,7.358a7.1,7.1,0,0,1,.973-.019l.221.006V5.624l-.944.005a3.844,3.844,0,0,0-.841.095A4,4,0,0,0,5.269,9.69V19.759q0,3.185.008,6.369a4.5,4.5,0,0,0,.163,1.134,3.979,3.979,0,0,0,3.88,2.887h.073c1.051-.018,2.1-.014,3.153-.009q.687,0,1.374,0h.84l4.112,0c1.536,0,3.071,0,4.607-.018A3.894,3.894,0,0,0,27.212,26.6c.06-.9.057-1.807.052-2.689Z" transform="translate(1210.733 260.368)" fill="#888"/>
    <path id="Path_42" data-name="Path 42" d="M24.506,5.559c0,.417-.181.6-.6.6h-9.2c-.512,0-.667-.159-.667-.684,0-.409,0-1,0-1.407a.5.5,0,0,1,.551-.555,7.477,7.477,0,0,0,1.162-.065A2.2,2.2,0,0,0,17.27,2.342c.116-.2.223-.409.344-.611a1.3,1.3,0,0,1,1.166-.675c.3-.009.594,0,.891,0A1.411,1.411,0,0,1,21,1.826a5.488,5.488,0,0,0,.77,1.092,2.3,2.3,0,0,0,1.781.6c.9-.026.959.047.959.938C24.506,4.768,24.51,5.254,24.506,5.559Z" transform="translate(1207.699 261.949)" fill="#888"/>
    <path id="Path_43" data-name="Path 43" d="M24.271,17.648v1.426h5.823V17.648Z" transform="translate(1204.163 256.211)" fill="#888"/>
    <path id="Path_44" data-name="Path 44" d="M18.965,14.924l-.209.323c-.179.262-.354.529-.529.795L17.592,17c-.19.285-.381.571-.567.856-.107.156-.209.316-.316.468a.548.548,0,0,1-.639.213.728.728,0,0,1-.251-.205.221.221,0,0,0-.027-.034c-.023-.034-.046-.065-.069-.1l-.1-.149c-.042-.061-.084-.118-.13-.179s-.1-.137-.141-.2-.1-.141-.149-.209-.1-.133-.141-.2-.084-.122-.129-.183c-.03-.046-.065-.091-.1-.141l-.08-.114a.077.077,0,0,1-.011-.019.347.347,0,0,1-.042-.126.248.248,0,0,1,.065-.19.354.354,0,0,1,.156-.088.252.252,0,0,1,.2.053l1.077.9c.076-.084.149-.171.224-.259l.552-.632c.228-.259.453-.521.677-.78.205-.232.411-.464.613-.7a4.683,4.683,0,0,1,.373-.411.226.226,0,0,1,.327.042A.235.235,0,0,1,18.965,14.924Z" transform="translate(1207.472 257.295)" fill="#888"/>
    <path id="Path_45" data-name="Path 45" d="M17.571,16.334l-.005.008a.369.369,0,0,0-.048.285,2.244,2.244,0,0,1,.046.351,2.362,2.362,0,1,1-2.829-2.2,2.352,2.352,0,0,1,1.515.2.361.361,0,0,0,.431-.086l0-.005a.364.364,0,0,0-.1-.565,3.1,3.1,0,1,0,1.7,3.129,3.134,3.134,0,0,0-.045-.986A.367.367,0,0,0,17.571,16.334Z" transform="translate(1208.368 257.472)" fill="#888"/>
    <path id="Path_46" data-name="Path 46" d="M24.271,31.073V32.5h5.823V31.073Z" transform="translate(1204.163 251.569)" fill="#888"/>
    <path id="Path_47" data-name="Path 47" d="M18.965,28.349l-.209.323c-.179.262-.354.529-.529.795l-.635.955c-.19.285-.381.571-.567.856-.107.156-.209.316-.316.468a.548.548,0,0,1-.639.213.728.728,0,0,1-.251-.205.221.221,0,0,0-.027-.034c-.023-.034-.046-.065-.069-.1l-.1-.149c-.042-.061-.084-.118-.13-.179s-.1-.137-.141-.2-.1-.141-.149-.209-.1-.133-.141-.2-.084-.122-.129-.183c-.03-.046-.065-.091-.1-.141l-.08-.114a.077.077,0,0,1-.011-.019A.347.347,0,0,1,14.7,30.1a.248.248,0,0,1,.065-.19.353.353,0,0,1,.156-.088.252.252,0,0,1,.2.053l1.077.9c.076-.084.149-.171.224-.259l.552-.632c.228-.259.453-.521.677-.78.205-.232.411-.464.613-.7a4.684,4.684,0,0,1,.373-.411.226.226,0,0,1,.327.042A.235.235,0,0,1,18.965,28.349Z" transform="translate(1207.472 252.653)" fill="#888"/>
    <path id="Path_48" data-name="Path 48" d="M17.571,29.76l-.005.008a.369.369,0,0,0-.048.285,2.244,2.244,0,0,1,.046.351,2.362,2.362,0,1,1-2.829-2.2,2.352,2.352,0,0,1,1.515.2.361.361,0,0,0,.431-.086l0-.005a.364.364,0,0,0-.1-.565,3.1,3.1,0,1,0,1.7,3.129,3.134,3.134,0,0,0-.045-.986A.368.368,0,0,0,17.571,29.76Z" transform="translate(1208.368 252.83)" fill="#888"/>
  </g>
</svg>
