<svg xmlns="http://www.w3.org/2000/svg" width="30" height="30" viewBox="0 0 30 30">
  <g id="assignicon" transform="translate(-1067 -873)">
    <g id="assignicon-2" data-name="assignicon" transform="translate(-37.004 -2957)">
      <g id="assign_task_icon" transform="translate(1109.414 3835)">
        <circle id="Ellipse_83" data-name="Ellipse 83" cx="2.88" cy="2.88" r="2.88" transform="translate(6.5 1)" fill="#682875"/>
        <path id="Path_1257" data-name="Path 1257" d="M4.16,19a1.045,1.045,0,0,1-.55-1.04c.01-1.5.04-3-.02-4.5A5.481,5.481,0,0,1,8.52,7.94a5.889,5.889,0,0,1,5.97,2.83,3.6,3.6,0,0,1,.26.52.745.745,0,0,1-.35.92.767.767,0,0,1-.98-.3,1.194,1.194,0,0,1-.08-.16,4.519,4.519,0,0,0-7.3-.97,3.6,3.6,0,0,0-.98,2.49c0,1.5-.01,3,.02,4.5A1.4,1.4,0,0,1,4.61,19Z" fill="#682875"/>
        <path id="Path_1258" data-name="Path 1258" d="M11.03,14.89h4.3a2.166,2.166,0,0,1,.36.01.82.82,0,0,1,.73.87c-.02.38-.3.62-.79.62-1.42.01-2.85,0-4.27,0h-.53c.38.4.7.73,1.01,1.07a.777.777,0,0,1,.06,1.12.738.738,0,0,1-1.11-.09Q9.74,17.41,8.72,16.3a.742.742,0,0,1,.01-1.12q1.02-1.11,2.07-2.19a.737.737,0,1,1,1.07,1C11.61,14.27,11.35,14.54,11.03,14.89Z" fill="#682875"/>
        <path id="Path_1259" data-name="Path 1259" d="M10.78,3.88a1.4,1.4,0,1,1-1.4-1.41A1.426,1.426,0,0,1,10.78,3.88Z" fill="#682875"/>
      </g>
    </g>
    <rect id="Rectangle_1" data-name="Rectangle 1" width="30" height="30" transform="translate(1067 873)" fill="rgba(255,255,255,0)"/>
  </g>
</svg>
