<svg xmlns="http://www.w3.org/2000/svg" width="55" height="48" viewBox="0 0 55 48">
  <g id="batch_management" transform="translate(-0.5 -364.5)">
    <rect id="Rectangle_2" data-name="Rectangle 2" width="55" height="48" transform="translate(0.5 364.5)" fill="rgba(255,255,255,0)"/>
    <path id="Path_1214" data-name="Path 1214" d="M14.583,25H1.042A1.041,1.041,0,0,1,0,23.958c0-3.969,3.5-7.2,7.812-7.2s7.812,3.228,7.812,7.2A1.041,1.041,0,0,1,14.583,25ZM2.2,22.917h11.22a5.62,5.62,0,0,0-5.609-4.072A5.621,5.621,0,0,0,2.2,22.917Zm5.609-4.072a4.735,4.735,0,1,1,4.734-4.734A4.74,4.74,0,0,1,7.812,18.845Zm0-7.386a2.652,2.652,0,1,0,2.651,2.652A2.655,2.655,0,0,0,7.812,11.458ZM17.188,9.47a4.735,4.735,0,1,1,4.735-4.735A4.739,4.739,0,0,1,17.188,9.47Zm0-7.386A2.651,2.651,0,1,0,19.84,4.734,2.654,2.654,0,0,0,17.188,2.083Zm6.771,13.542h-9.4a1.042,1.042,0,1,1,0-2.083H22.8a5.622,5.622,0,0,0-5.61-4.072,6.1,6.1,0,0,0-3.561,1.117,1.042,1.042,0,0,1-1.209-1.7,8.172,8.172,0,0,1,4.771-1.5c4.308,0,7.813,3.229,7.813,7.2A1.041,1.041,0,0,1,23.958,15.625Z" transform="translate(16 376)" fill="#5877FF"/>
  </g>
</svg>
