<svg xmlns="http://www.w3.org/2000/svg" width="48.947" height="40" viewBox="0 0 48.947 40">
  <g id="batch_management_home" transform="translate(-678 -785)">
    <path id="Path_1265" data-name="Path 1265" d="M41.545,27.442A8.757,8.757,0,1,0,27.132,20.78a8.672,8.672,0,0,0,2.975,6.663A16.661,16.661,0,0,0,21,42.584V52H50.474V42.584C50.474,35.783,46.831,29.935,41.545,27.442Zm-11-6.662a5.376,5.376,0,1,1,5.375,5.377A5.381,5.381,0,0,1,30.545,20.78ZM47.316,48.842H24.684V42.584c0-7.182,5.083-13.025,11.315-13.025S47.316,35.4,47.316,42.584Z" transform="translate(666.474 773)" fill="#fff"/>
    <path id="Path_1266" data-name="Path 1266" d="M15.321,32.7a5.33,5.33,0,1,0-6.4.055A10.194,10.194,0,0,0,3,42.277v4.476H14.579V45.174h-10v-2.9c0-4.669,3.372-8.468,7.442-8.468,4.043,0,6.265,3.115,6.307,3.853l1.713-.088C19.98,36.37,18.312,33.85,15.321,32.7ZM8.455,28.473a3.629,3.629,0,1,1,3.627,3.634A3.63,3.63,0,0,1,8.455,28.473Z" transform="translate(675 767.72)" fill="#fff"/>
    <path id="Path_1267" data-name="Path 1267" d="M75,32.754a5.294,5.294,0,0,0,2.125-4.282,5.345,5.345,0,1,0-8.555,4.263,9.24,9.24,0,0,0-4.246,3.716l1.491.818a6.856,6.856,0,0,1,5.819-3.462c4.071,0,7.259,3.8,7.259,8.468v2.9H69.415v1.579H80.994V42.275A10.256,10.256,0,0,0,75,32.754Zm-6.874-4.282a3.629,3.629,0,1,1,3.63,3.632A3.633,3.633,0,0,1,68.122,28.472Z" transform="translate(645.954 767.721)" fill="#fff"/>
  </g>
</svg>
