<svg xmlns="http://www.w3.org/2000/svg" width="55" height="48" viewBox="0 0 55 48">
  <g id="batch_management" transform="translate(0 -606)">
    <rect id="Rectangle_2" data-name="Rectangle 2" width="55" height="48" transform="translate(0 606)" fill="rgba(255,255,255,0)"/>
    <g id="ic_batches_management_left_panel_off" transform="translate(-665 -166)">
      <path id="Path_1265" data-name="Path 1265" d="M32.813,20.879a5.035,5.035,0,1,0-8.288-3.831,4.986,4.986,0,0,0,1.711,3.831A9.58,9.58,0,0,0,21,29.586V35H37.947V29.586A9.5,9.5,0,0,0,32.813,20.879Zm-6.325-3.831a3.091,3.091,0,1,1,3.09,3.092A3.094,3.094,0,0,1,26.488,17.048Zm9.643,16.136H23.118v-3.6c0-4.129,2.923-7.489,6.506-7.489s6.507,3.36,6.507,7.489Z" transform="translate(662.447 773)" fill="#682875"/>
      <path id="Path_1266" data-name="Path 1266" d="M10.085,28.641a3.065,3.065,0,1,0-3.682.031A5.862,5.862,0,0,0,3,34.146V36.72H9.658v-.908H3.908V34.146c0-2.685,1.939-4.869,4.279-4.869a3.84,3.84,0,0,1,3.626,2.215l.985-.051A4.166,4.166,0,0,0,10.085,28.641ZM6.136,26.209A2.087,2.087,0,1,1,8.222,28.3,2.087,2.087,0,0,1,6.136,26.209Z" transform="translate(675 765.227)" fill="#682875"/>
      <path id="Path_1267" data-name="Path 1267" d="M70.459,28.67a3.044,3.044,0,0,0,1.222-2.462,3.073,3.073,0,1,0-4.919,2.451A5.313,5.313,0,0,0,64.32,30.8l.857.47a3.942,3.942,0,0,1,3.346-1.991c2.341,0,4.174,2.185,4.174,4.869v1.667H67.249v.908h6.658V34.145A5.9,5.9,0,0,0,70.459,28.67Zm-3.952-2.462A2.087,2.087,0,1,1,68.593,28.3,2.089,2.089,0,0,1,66.506,26.208Z" transform="translate(632.237 765.228)" fill="#682875"/>
    </g>
  </g>
</svg>
