<svg xmlns="http://www.w3.org/2000/svg" width="40.428" height="45" viewBox="0 0 40.428 45">
  <g id="Batch_Management_Icon_White" transform="translate(-565.977 -738.097)">
    <path id="Path_899" data-name="Path 899" d="M580.856,763.116a8.02,8.02,0,0,0,10.689,0,3.773,3.773,0,0,1,.656.322,7.115,7.115,0,0,1,1.655,1.415,15.036,15.036,0,0,1,2.094,3.129,24.2,24.2,0,0,1,2.179,6.087,13.518,13.518,0,0,1,.335,2.849c0,.353-.05.706-.078,1.06a.647.647,0,0,1-.029.118H574.027c-.026-.16-.059-.323-.075-.486a9.736,9.736,0,0,1,.1-2.393,23.129,23.129,0,0,1,1.87-6.171,17.26,17.26,0,0,1,2.266-3.779,8.04,8.04,0,0,1,1.831-1.718A4.5,4.5,0,0,1,580.856,763.116Z" transform="translate(0 5)" fill="#fff"/>
    <path id="Path_900" data-name="Path 900" d="M570.893,758.552a4.842,4.842,0,0,0,3.693,1.765,4.892,4.892,0,0,0,3.774-1.659,5.669,5.669,0,0,0,.6,3.521.271.271,0,0,1-.049.043,6.233,6.233,0,0,0-1.7,1.486,14,14,0,0,0-1.785,2.842,25.98,25.98,0,0,0-1.78,4.84c-.011.041-.024.082-.039.132h-7.54a1.586,1.586,0,0,1-.078-.531,9.712,9.712,0,0,1,.034-1.544,23.074,23.074,0,0,1,1.212-5.321,17.579,17.579,0,0,1,1.513-3.318,7.668,7.668,0,0,1,1.289-1.662A3.16,3.16,0,0,1,570.893,758.552Z" transform="translate(0 3.784)" fill="#fff"/>
    <path id="Path_901" data-name="Path 901" d="M601.854,771.526h-7.559c-.03-.1-.061-.207-.089-.309A26.572,26.572,0,0,0,592.5,766.6a14.19,14.19,0,0,0-1.844-2.939,6.475,6.475,0,0,0-1.449-1.315c-.085-.054-.172-.106-.27-.166a5.8,5.8,0,0,0,.633-3.484,4.9,4.9,0,0,0,3.766,1.615,4.849,4.849,0,0,0,3.681-1.768,2.532,2.532,0,0,1,.48.29,5.81,5.81,0,0,1,1.281,1.392,14.314,14.314,0,0,1,1.439,2.729A24.262,24.262,0,0,1,601.7,768.2a12.859,12.859,0,0,1,.2,2.5C601.9,770.968,601.873,771.24,601.854,771.526Z" transform="translate(4.492 3.784)" fill="#fff"/>
    <path id="Path_902" data-name="Path 902" d="M583.949,764.061a4.555,4.555,0,1,1,4.56-4.555A4.543,4.543,0,0,1,583.949,764.061Z" transform="translate(2.247 2.728)" fill="#fff"/>
    <path id="Path_903" data-name="Path 903" d="M589.287,755.428a3.948,3.948,0,1,1,3.953,3.939A3.955,3.955,0,0,1,589.287,755.428Z" transform="translate(4.492 2.083)" fill="#fff"/>
    <path id="Path_904" data-name="Path 904" d="M574.67,759.367a3.948,3.948,0,1,1,3.945-3.943A3.948,3.948,0,0,1,574.67,759.367Z" transform="translate(0 2.083)" fill="#fff"/>
    <path id="Path_905" data-name="Path 905" d="M587.523,750.182a3.569,3.569,0,1,1-3.583-3.564A3.566,3.566,0,0,1,587.523,750.182Z" transform="translate(2.247 1.296)" fill="#fff"/>
    <path id="Path_906" data-name="Path 906" d="M595.967,746.743a3.57,3.57,0,1,1-3.586-3.565A3.575,3.575,0,0,1,595.967,746.743Z" transform="translate(3.565)" fill="#fff"/>
    <path id="Path_907" data-name="Path 907" d="M575.505,750.314a3.568,3.568,0,1,1,3.573-3.558A3.567,3.567,0,0,1,575.505,750.314Z" transform="translate(0.931)" fill="#fff"/>
    <path id="Path_908" data-name="Path 908" d="M583.951,744.489a3.2,3.2,0,1,1,3.2-3.182A3.2,3.2,0,0,1,583.951,744.489Z" transform="translate(2.247)" fill="#fff"/>
  </g>
</svg>
