<svg xmlns="http://www.w3.org/2000/svg" viewBox="0 0 18 18" width="100" height="100">
	<style>
		tspan { white-space:pre }
		.shp0 { fill: #c9c9c9 } 
		.shp1 { fill: none;stroke: #707070 } 
		.shp2 { fill: #000000 } 
	</style>
	<g id="check_box_selected" style="opacity: 0.588">
		<g id="Rectangle_272">
			<path id="Layer" class="shp0" d="M3 0L15 0C16.66 0 18 1.34 18 3L18 15C18 16.66 16.66 18 15 18L3 18C1.34 18 0 16.66 0 15L0 3C0 1.34 1.34 0 3 0Z" />
			<path id="Layer" class="shp1" d="M3 0.5L15 0.5C16.38 0.5 17.5 1.62 17.5 3L17.5 15C17.5 16.38 16.38 17.5 15 17.5L3 17.5C1.62 17.5 0.5 16.38 0.5 15L0.5 3C0.5 1.62 1.62 0.5 3 0.5Z" />
		</g>
		<path id="Path_85" class="shp2" d="M6.72 11.27L4.43 9.01L3 10.42L6.72 14L14.43 5.43L12.99 4L6.72 11.27Z" />
	</g>
</svg>