<svg xmlns="http://www.w3.org/2000/svg" viewBox="0 0 32.902 45">
  <defs>
    <style>
      .cls-1 {
        fill: #0b7ba1;
      }
    </style>
  </defs>
  <g id="Courses" transform="translate(-1.5 -1.1)">
    <path id="Path_11" data-name="Path 11" class="cls-1" d="M1.5,1.1H6.362c.226,0,.226,0,.226.113V37.846c0,.452,0,.452-.339.452H1.726c-.113,0-.113,0-.226-.113C1.5,25.748,1.5,13.424,1.5,1.1Z" transform="translate(0 0)"/>
    <path id="Path_12" data-name="Path 12" class="cls-1" d="M7.613,1.1H28.982c.113,0,.226,0,.226.113h.226a.415.415,0,0,1,.339.113h.113a.415.415,0,0,1,.339.113h0c.113,0,.339.113.452.113s.113.113.226.113c.113.113.226.113.339.226h0c.113,0,.226.113.339.226,0,.113.113.113.226.113l.339.339c.113.113.226.226.339.226.113.113.113.113.113.226.113.113.113.226.226.226h0c0,.113.113.226.226.339h0c0,.113.113.226.113.339.113.113.113.226.226.452v.113a.111.111,0,0,0,.113.113v.113c0,.113,0,.339.113.339V33.776c0,.113,0,.226-.113.226v.226c0,.113,0,.226-.113.226h0c0,.226-.113.339-.113.452-.113.113-.113.339-.226.452a.35.35,0,0,0-.113.226c-.113.113-.113.226-.226.339s-.113.226-.226.339l-.226.226c0,.113-.113.113-.113.226s-.113.113-.226.113c-.113.113-.339.226-.452.339a.35.35,0,0,1-.226.113c-.113.113-.226.113-.339.226h-.113l-.113.113h0c-.113,0-.226.113-.339.113s-.113.113-.226.113h-.226c-.113,0-.226,0-.226.113h-.452a.415.415,0,0,0-.339.113H7.726c-.226,0-.226,0-.226-.226V1.1C7.613,1.213,7.613,1.1,7.613,1.1ZM20.5,8.336H13.153c-.339,0-.565.113-.791.113h-.113c-.113.113-.226.113-.339.226-.113,0-.226.113-.339.113h0c-.113.113-.226.226-.226.339-.113.113-.113.226-.226.339s-.113.226-.113.452h0l-.113.113v1.583c0,.113.113.113.113.226s.113.226.113.339c.113.113.113.226.226.339l.113.113c.113.113.113.226.226.226H11.8l.113.113h.113c.113.113.226.113.339.226a1.676,1.676,0,0,0,.791.113H27.513c.226,0,.339-.113.565-.113h0c.113-.113.226-.113.452-.226.113-.113.226-.113.339-.226s.339-.226.452-.339.226-.339.339-.452.113-.226.226-.339A.415.415,0,0,0,30,11.276c0-.113.226-.339.113-.452h0a.111.111,0,0,1,.113-.113c0-.339.113-.678-.113-1.018C30,9.58,30,9.354,29.887,9.241q-.339-.17-.339-.339l-.113-.113a.415.415,0,0,0-.339-.113c-.113-.113-.226-.113-.339-.226a1.229,1.229,0,0,0-.565-.113H20.5Z" transform="translate(0.784 0)"/>
    <path id="Path_13" data-name="Path 13" class="cls-1" d="M13.91,35.5h3.957c.226,0,.226,0,.226.226v5.879h-.226c-.113-.113-.226-.113-.339-.226s-.226-.113-.339-.226h-.113c-.113,0-.113,0-.113-.113h0c-.113,0-.226-.113-.339-.113-.113-.113-.226,0-.339-.226h-.113a.111.111,0,0,1-.113-.113h0c-.113,0-.226-.113-.339-.113a.111.111,0,0,1-.113-.113h0c-.113,0-.226-.113-.339-.113-.113-.113-.226-.113-.339-.226h-.113c-.113,0-.226-.113-.339-.226s-.226-.113-.452-.113H13.57c-.113,0-.113,0-.226.113h-.113a.111.111,0,0,0-.113.113h0c-.113,0-.226.113-.339.113s-.226.113-.339.113a.111.111,0,0,0-.113.113c-.113.113-.226.113-.339.226h0c-.113,0-.226.113-.339.113a.111.111,0,0,0-.113.113h0c-.113,0-.226.113-.339.113-.113.113-.226.113-.339.226a.415.415,0,0,1-.339.113c-.113.113-.226.113-.339.226a.415.415,0,0,1-.339.113H9.726c-.113,0-.113,0-.226.113V35.726c0-.113,0-.226.226-.226Z" transform="translate(1.045 4.494)"/>
  </g>
</svg>
