<svg xmlns="http://www.w3.org/2000/svg" width="24.927" height="18" viewBox="0 0 24.927 18">
  <g id="deleterow_icon" transform="translate(-979 -321)">
    <path id="Path_1274" data-name="Path 1274" d="M24.892,22.377V20.093a4.453,4.453,0,0,0-4.453-4.453H6.863A4.453,4.453,0,0,0,2.41,20.093V23.76a4.453,4.453,0,0,0,4.453,4.453h7.96a6.286,6.286,0,1,0,10.069-5.836ZM3.982,23.765V20.1a2.881,2.881,0,0,1,2.881-2.881H20.439A2.881,2.881,0,0,1,23.32,20.1v1.4a6.286,6.286,0,0,0-8.516,5.15H6.863A2.881,2.881,0,0,1,3.982,23.765Zm17.07,8.3a4.715,4.715,0,1,1,4.715-4.715A4.715,4.715,0,0,1,21.052,32.069Z" transform="translate(976.59 305.36)" fill="#c93232"/>
    <path id="Path_1275" data-name="Path 1275" d="M66.334,49.527H64.343a7.559,7.559,0,0,0-1.572,0H60.786a.786.786,0,1,0,0,1.572h1.991a9.638,9.638,0,0,0,1.572.013h1.991a.786.786,0,1,0,0-1.572Z" transform="translate(934.085 282.399)" fill="#c93232"/>
  </g>
</svg>
