<svg xmlns="http://www.w3.org/2000/svg" width="15" height="15" viewBox="0 0 15 15">
  <g id="ic_download" transform="translate(-984 -241)">
    <path id="Path_1264" data-name="Path 1264" d="M13.75,15H1.25A1.251,1.251,0,0,1,0,13.75V7.5a.625.625,0,1,1,1.25,0v6.25h12.5V7.5A.625.625,0,1,1,15,7.5v6.25A1.251,1.251,0,0,1,13.75,15ZM7.5,11.25a.623.623,0,0,1-.442-.183l-2.5-2.5a.625.625,0,1,1,.884-.884L7.5,9.741,9.558,7.683a.625.625,0,1,1,.884.884l-2.5,2.5a.623.623,0,0,1-.442.183Zm0,0a.625.625,0,0,1-.625-.625v-10a.625.625,0,1,1,1.25,0v10A.625.625,0,0,1,7.5,11.25Z" transform="translate(984 241)" fill="#682875"/>
  </g>
</svg>
