<svg xmlns="http://www.w3.org/2000/svg" width="24" height="24" viewBox="0 0 24 24">
  <g id="ic_view" transform="translate(-1076 -573)">
    <rect id="Rectangle_595" data-name="Rectangle 595" width="24" height="24" transform="translate(1076 573)" fill="rgba(255,255,255,0)"/>
    <circle id="Ellipse_81" data-name="Ellipse 81" cx="2.71" cy="2.71" r="2.71" transform="translate(1085.248 582.29)" fill="#5877ff"/>
    <path id="Path_870" data-name="Path 870" d="M9.958,14a10.516,10.516,0,0,0,9.823-6.661L19.916,7l-.135-.339a10.573,10.573,0,0,0-19.645,0L0,7l.135.339A10.516,10.516,0,0,0,9.958,14Zm0-11.516A4.516,4.516,0,1,1,5.442,7,4.529,4.529,0,0,1,9.958,2.484Z" transform="translate(1078 578)" fill="#5877ff"/>
  </g>
</svg>
