<svg xmlns="http://www.w3.org/2000/svg" width="111.252" height="46.096" viewBox="0 0 111.252 46.096"><defs><style>.a{fill:#bbb;}.b{fill:#999;}</style></defs><g transform="translate(-971.128 -233)"><g transform="translate(1011 231)"><path class="a" d="M27.5,27H2.5A2.5,2.5,0,0,1,0,24.5V4.5A2.5,2.5,0,0,1,2.5,2h25A2.5,2.5,0,0,1,30,4.5V24.5A2.5,2.5,0,0,1,27.5,27Zm0-2.5v0Zm0-20-25,0,0,20,25,0ZM21.25,13.25A3.75,3.75,0,1,1,25,9.5,3.755,3.755,0,0,1,21.25,13.25Zm0-5A1.25,1.25,0,1,0,22.5,9.5,1.251,1.251,0,0,0,21.25,8.25ZM1.25,22a1.251,1.251,0,0,1-.824-2.191l10-8.75a1.252,1.252,0,0,1,1.624-.02l7.5,6.25a1.251,1.251,0,0,1-1.6,1.921l-6.68-5.567-9.2,8.048A1.237,1.237,0,0,1,1.25,22Zm27.5,0a1.242,1.242,0,0,1-.78-.274L22.5,17.35l-5.469,4.376a1.25,1.25,0,0,1-1.562-1.953l6.25-5a1.252,1.252,0,0,1,1.563,0l6.25,5A1.25,1.25,0,0,1,28.749,22Z" transform="translate(0)"/></g><path class="b" d="M6.132-8.28a.106.106,0,0,1,.12-.12h.612a.106.106,0,0,1,.12.12V-.12a.106.106,0,0,1-.12.12h-.6A.174.174,0,0,1,6.12-.084L2.028-6.744q-.012-.036-.036-.03t-.024.042L1.98-.12A.106.106,0,0,1,1.86,0H1.248a.106.106,0,0,1-.12-.12V-8.28a.106.106,0,0,1,.12-.12h.6a.174.174,0,0,1,.144.084l4.092,6.66q.012.036.036.03t.024-.042ZM11.832.1a3.122,3.122,0,0,1-1.5-.348,2.458,2.458,0,0,1-1-.978,2.926,2.926,0,0,1-.354-1.458V-5.712A2.926,2.926,0,0,1,9.33-7.17a2.458,2.458,0,0,1,1-.978,3.122,3.122,0,0,1,1.5-.348,3.158,3.158,0,0,1,1.506.348,2.449,2.449,0,0,1,1.008.978A2.926,2.926,0,0,1,14.7-5.712v3.024a2.926,2.926,0,0,1-.354,1.458,2.449,2.449,0,0,1-1.008.978A3.158,3.158,0,0,1,11.832.1Zm0-.732A1.979,1.979,0,0,0,13.3-1.188a1.979,1.979,0,0,0,.552-1.464V-5.724a2,2,0,0,0-.552-1.47,1.967,1.967,0,0,0-1.464-.558,1.952,1.952,0,0,0-1.452.558,2,2,0,0,0-.552,1.47v3.072a1.979,1.979,0,0,0,.552,1.464A1.963,1.963,0,0,0,11.832-.636ZM19.224,0a.106.106,0,0,1-.12-.12V-8.28a.106.106,0,0,1,.12-.12h.612a.106.106,0,0,1,.12.12V-.12a.106.106,0,0,1-.12.12ZM27.66-8.316A.174.174,0,0,1,27.8-8.4h.624a.106.106,0,0,1,.12.12V-.12a.106.106,0,0,1-.12.12h-.612a.106.106,0,0,1-.12-.12V-6.792a.048.048,0,0,0-.024-.048q-.024-.012-.036.024l-1.956,3a.174.174,0,0,1-.144.084h-.312A.182.182,0,0,1,25.08-3.8L23.124-6.78q-.012-.036-.036-.024a.048.048,0,0,0-.024.048V-.12a.106.106,0,0,1-.12.12h-.612a.106.106,0,0,1-.12-.12V-8.28a.106.106,0,0,1,.12-.12h.624a.162.162,0,0,1,.144.072l2.256,3.42a.049.049,0,0,0,.036.012.049.049,0,0,0,.036-.012ZM35.772,0a.14.14,0,0,1-.144-.1l-.48-1.512a.047.047,0,0,0-.048-.036H31.512a.047.047,0,0,0-.048.036L30.984-.1a.14.14,0,0,1-.144.1h-.648q-.132,0-.1-.132L32.748-8.3a.14.14,0,0,1,.144-.1h.816a.14.14,0,0,1,.144.1L36.516-.132l.012.048q0,.084-.108.084ZM31.7-2.4a.033.033,0,0,0,.006.042.058.058,0,0,0,.042.018h3.1a.058.058,0,0,0,.042-.018A.033.033,0,0,0,34.9-2.4l-1.56-4.9A.038.038,0,0,0,33.3-7.32a.038.038,0,0,0-.036.024ZM40.488.1a3.161,3.161,0,0,1-1.476-.33,2.415,2.415,0,0,1-.99-.93,2.664,2.664,0,0,1-.354-1.38V-5.856a2.664,2.664,0,0,1,.354-1.38,2.415,2.415,0,0,1,.99-.93,3.161,3.161,0,0,1,1.476-.33,3.219,3.219,0,0,1,1.47.324,2.364,2.364,0,0,1,.99.906A2.511,2.511,0,0,1,43.3-5.952V-5.8a.106.106,0,0,1-.12.12h-.612a.106.106,0,0,1-.12-.12V-5.94a1.717,1.717,0,0,0-.534-1.308,1.987,1.987,0,0,0-1.422-.5,1.981,1.981,0,0,0-1.428.516,1.79,1.79,0,0,0-.54,1.356v3.36a1.77,1.77,0,0,0,.552,1.356,2.041,2.041,0,0,0,1.452.516,1.985,1.985,0,0,0,1.4-.48,1.66,1.66,0,0,0,.522-1.284V-3.5a.042.042,0,0,0-.048-.048H40.632a.106.106,0,0,1-.12-.12v-.5a.106.106,0,0,1,.12-.12h2.544a.106.106,0,0,1,.12.12v1.548a2.624,2.624,0,0,1-.762,2A2.857,2.857,0,0,1,40.488.1ZM50.724-7.776a.106.106,0,0,1-.12.12H46.188a.042.042,0,0,0-.048.048v2.964a.042.042,0,0,0,.048.048h3.1a.106.106,0,0,1,.12.12v.5a.106.106,0,0,1-.12.12h-3.1a.042.042,0,0,0-.048.048V-.792a.042.042,0,0,0,.048.048H50.6a.106.106,0,0,1,.12.12v.5A.106.106,0,0,1,50.6,0h-5.2a.106.106,0,0,1-.12-.12V-8.28a.106.106,0,0,1,.12-.12h5.2a.106.106,0,0,1,.12.12ZM59.928,0a.14.14,0,0,1-.144-.1L59.3-1.608a.047.047,0,0,0-.048-.036H55.668a.047.047,0,0,0-.048.036L55.14-.1A.14.14,0,0,1,55,0h-.648q-.132,0-.1-.132L56.9-8.3a.14.14,0,0,1,.144-.1h.816a.14.14,0,0,1,.144.1L60.672-.132l.012.048q0,.084-.108.084ZM55.86-2.4a.033.033,0,0,0,.006.042.058.058,0,0,0,.042.018H59a.058.058,0,0,0,.042-.018.033.033,0,0,0,.006-.042l-1.56-4.9a.038.038,0,0,0-.036-.024.038.038,0,0,0-.036.024ZM63.72,0a.14.14,0,0,1-.144-.1L60.96-8.268l-.012-.048q0-.084.108-.084H61.7a.14.14,0,0,1,.144.1l2.184,7.032a.038.038,0,0,0,.036.024.038.038,0,0,0,.036-.024L66.288-8.3a.14.14,0,0,1,.144-.1h.636q.132,0,.1.132L64.524-.1a.14.14,0,0,1-.144.1Zm8.868,0a.14.14,0,0,1-.144-.1l-.48-1.512a.047.047,0,0,0-.048-.036H68.328a.047.047,0,0,0-.048.036L67.8-.1a.14.14,0,0,1-.144.1h-.648q-.132,0-.1-.132L69.564-8.3a.14.14,0,0,1,.144-.1h.816a.14.14,0,0,1,.144.1L73.332-.132l.012.048q0,.084-.108.084ZM68.52-2.4a.033.033,0,0,0,.006.042.058.058,0,0,0,.042.018h3.1a.058.058,0,0,0,.042-.018.033.033,0,0,0,.006-.042l-1.56-4.9a.038.038,0,0,0-.036-.024.038.038,0,0,0-.036.024ZM75.012,0a.106.106,0,0,1-.12-.12V-8.28a.106.106,0,0,1,.12-.12h.612a.106.106,0,0,1,.12.12V-.12a.106.106,0,0,1-.12.12ZM78.12,0A.106.106,0,0,1,78-.12V-8.28a.106.106,0,0,1,.12-.12h.612a.106.106,0,0,1,.12.12V-.792a.042.042,0,0,0,.048.048h4.236a.106.106,0,0,1,.12.12v.5a.106.106,0,0,1-.12.12ZM90.3,0a.14.14,0,0,1-.144-.1l-.48-1.512a.047.047,0,0,0-.048-.036H86.04a.047.047,0,0,0-.048.036L85.512-.1a.14.14,0,0,1-.144.1H84.72q-.132,0-.1-.132L87.276-8.3a.14.14,0,0,1,.144-.1h.816a.14.14,0,0,1,.144.1L91.044-.132l.012.048q0,.084-.108.084ZM86.232-2.4a.033.033,0,0,0,.006.042.058.058,0,0,0,.042.018h3.1a.058.058,0,0,0,.042-.018.033.033,0,0,0,.006-.042l-1.56-4.9a.038.038,0,0,0-.036-.024.038.038,0,0,0-.036.024ZM96.816-4.38q-.06.036,0,.072a2.061,2.061,0,0,1,.984.78,2.237,2.237,0,0,1,.336,1.248,2.108,2.108,0,0,1-.69,1.68,2.672,2.672,0,0,1-1.818.6h-2.9a.106.106,0,0,1-.12-.12V-8.28a.106.106,0,0,1,.12-.12h2.82a2.705,2.705,0,0,1,1.83.576A2.027,2.027,0,0,1,98.04-6.2a1.931,1.931,0,0,1-.318,1.122A1.967,1.967,0,0,1,96.816-4.38ZM93.5-7.656a.042.042,0,0,0-.048.048v2.88a.042.042,0,0,0,.048.048h2.04a1.76,1.76,0,0,0,1.206-.4,1.337,1.337,0,0,0,.45-1.056,1.435,1.435,0,0,0-.45-1.11,1.712,1.712,0,0,0-1.206-.414Zm2.124,6.9a1.668,1.668,0,0,0,1.206-.432,1.538,1.538,0,0,0,.45-1.164,1.536,1.536,0,0,0-.462-1.17A1.731,1.731,0,0,0,95.58-3.96H93.5a.042.042,0,0,0-.048.048V-.8a.042.042,0,0,0,.048.048Zm4.62.756a.106.106,0,0,1-.12-.12V-8.28a.106.106,0,0,1,.12-.12h.612a.106.106,0,0,1,.12.12V-.792a.042.042,0,0,0,.048.048h4.236a.106.106,0,0,1,.12.12v.5a.106.106,0,0,1-.12.12ZM112.38-7.776a.106.106,0,0,1-.12.12h-4.416a.042.042,0,0,0-.048.048v2.964a.042.042,0,0,0,.048.048h3.1a.106.106,0,0,1,.12.12v.5a.106.106,0,0,1-.12.12h-3.1a.042.042,0,0,0-.048.048V-.792a.042.042,0,0,0,.048.048h4.416a.106.106,0,0,1,.12.12v.5a.106.106,0,0,1-.12.12h-5.2a.106.106,0,0,1-.12-.12V-8.28a.106.106,0,0,1,.12-.12h5.2a.106.106,0,0,1,.12.12Z" transform="translate(970 279)"/></g></svg>