<svg xmlns="http://www.w3.org/2000/svg" width="55" height="48" viewBox="0 0 55 48">
  <g id="ic_apps_off" transform="translate(-933 -912.076)">
    <g id="ic_apps_off-2" data-name="ic_apps_off" transform="translate(949 925.076)">
      <path id="Path_1227" data-name="Path 1227" d="M2.208,23.3a.736.736,0,0,1-.736-.736V20.36a.736.736,0,0,1,1.472,0v2.208A.736.736,0,0,1,2.208,23.3Zm8.833,0a.735.735,0,0,1-.736-.736V17.416a.736.736,0,1,1,1.472,0v5.152A.735.735,0,0,1,11.041,23.3Zm-4.416,0a.736.736,0,0,1-.736-.736v-8.1a.736.736,0,1,1,1.472,0v8.1A.736.736,0,0,1,6.624,23.3Zm8.833,0a.735.735,0,0,1-.736-.736V11.528a.736.736,0,1,1,1.472,0V22.568A.735.735,0,0,1,15.457,23.3Zm1.472,0H.736a.736.736,0,1,1,0-1.472H16.929a.736.736,0,1,1,0,1.472Z" transform="translate(2.883 -3.067)" fill="#1d2858"/>
      <path id="Path_1256" data-name="Path 1256" d="M20.093,23H1.4A2.383,2.383,0,0,1-1,20.639V5.236A2.383,2.383,0,0,1,1.4,2.875H5.635a.958.958,0,1,1,0,1.917H1.4a.465.465,0,0,0-.482.445v15.4a.465.465,0,0,0,.482.445H20.093a.465.465,0,0,0,.482-.445V5.236a.465.465,0,0,0-.482-.445H15.777a.958.958,0,1,1,0-1.917h4.316a2.383,2.383,0,0,1,2.4,2.361v15.4A2.383,2.383,0,0,1,20.093,23ZM14.854,6.708H6.638A1.644,1.644,0,0,1,5,5.067V3.7A1.644,1.644,0,0,1,6.365,2.077V1.713A1.714,1.714,0,0,1,8.078,0h5.336a1.715,1.715,0,0,1,1.713,1.713v.363A1.645,1.645,0,0,1,16.5,3.7V5.067A1.644,1.644,0,0,1,14.854,6.708ZM6.913,4.792h7.667V3.947A1.647,1.647,0,0,1,13.21,2.327v-.41H8.282v.41A1.647,1.647,0,0,1,6.913,3.947v.844Zm7.942-.821h0Z" transform="translate(1 0)" fill="#1d2858"/>
    </g>
    <rect id="Rectangle_532" data-name="Rectangle 532" width="55" height="48" transform="translate(933 912.076)" fill="rgba(255,255,255,0)"/>
  </g>
</svg>
