<svg xmlns="http://www.w3.org/2000/svg" xmlns:xlink="http://www.w3.org/1999/xlink" width="78" height="78" viewBox="0 0 78 78">
  <defs>
    <filter id="Ellipse_82" x="0" y="0" width="78" height="78" filterUnits="userSpaceOnUse">
      <feOffset dy="3" input="SourceAlpha"/>
      <feGaussianBlur stdDeviation="3" result="blur"/>
      <feFlood flood-opacity="0.161"/>
      <feComposite operator="in" in2="blur"/>
      <feComposite in="SourceGraphic"/>
    </filter>
  </defs>
  <g id="ic_delete" transform="translate(-299 -418)">
    <g transform="matrix(1, 0, 0, 1, 299, 418)" filter="url(#Ellipse_82)">
      <circle id="Ellipse_82-2" data-name="Ellipse 82" cx="30" cy="30" r="30" transform="translate(9 6)" fill="#fff"/>
    </g>
    <path id="Path" d="M6.25,0h4.125a1.55,1.55,0,0,1,1.5,1.625v1h6.25a.537.537,0,0,1,.5.5.537.537,0,0,1-.5.5H11.5a.537.537,0,0,1-.5-.5v-1.5a.537.537,0,0,0-.5-.5H6.25c-.25-.125-.5.125-.5.5v1.5a.537.537,0,0,1-.5.5H-1.5a.537.537,0,0,1-.5-.5.537.537,0,0,1,.5-.5H4.75v-1A1.55,1.55,0,0,1,6.25,0ZM.625,6.25a.537.537,0,0,1,.5.5L2,23.625A.564.564,0,0,0,2.375,24h12a.4.4,0,0,0,.375-.375L15.625,6.75a.537.537,0,0,1,.5-.5h0a.537.537,0,0,1,.5.5l-.875,17h0A1.362,1.362,0,0,1,14.375,25h-12A1.369,1.369,0,0,1,1,23.75H1l-.875-17C0,6.5.25,6.25.625,6.25ZM6,6.75a.537.537,0,0,1,.5.5V21.875a.537.537,0,0,1-.5.5.537.537,0,0,1-.5-.5V7.25a.537.537,0,0,1,.5-.5Zm4.625,0a.537.537,0,0,1,.5.5V21.875a.5.5,0,1,1-1,0V7.25a.537.537,0,0,1,.5-.5Z" transform="translate(330 442)" fill="#c93232"/>
  </g>
</svg>
