<svg xmlns="http://www.w3.org/2000/svg" xmlns:xlink="http://www.w3.org/1999/xlink" width="78" height="78" viewBox="0 0 78 78">
  <defs>
    <filter id="Ellipse_82" x="0" y="0" width="78" height="78" filterUnits="userSpaceOnUse">
      <feOffset dy="3" input="SourceAlpha"/>
      <feGaussianBlur stdDeviation="3" result="blur"/>
      <feFlood flood-opacity="0.161"/>
      <feComposite operator="in" in2="blur"/>
      <feComposite in="SourceGraphic"/>
    </filter>
  </defs>
  <g id="ic_edit" transform="translate(-159 -418)">
    <g transform="matrix(1, 0, 0, 1, 159, 418)" filter="url(#Ellipse_82)">
      <circle id="Ellipse_82-2" data-name="Ellipse 82" cx="30" cy="30" r="30" transform="translate(9 6)" fill="#fff"/>
    </g>
    <g id="Group_2007" data-name="Group 2007">
      <path id="Path_2" d="M2070.25,593c-1.625,1.125-15.5,15.25-15.5,15.25l-2.25,9.25,9-2.125,15.125-15.5a2.391,2.391,0,0,0,.5-2.375c-.5-1.375-4.375-4.5-4.375-4.5S2071.875,591.875,2070.25,593Z" transform="translate(-1866.5 -150.5)" fill="none" stroke="#5877ff" stroke-width="1.5"/>
      <path id="Path" d="M2064,595.6l5.625,5.625,1.25,1.25" transform="translate(-1863.625 -149.725)" fill="none" stroke="#5877ff" stroke-width="1.5"/>
    </g>
  </g>
</svg>
