<svg xmlns="http://www.w3.org/2000/svg" width="23" height="23.001" viewBox="0 0 23 23.001">
  <path id="ic_indesign_active" d="M-42-2847H-65v-23h23v23Zm-22-1h21v-21H-64Zm8.83-8.491v-.006a4.292,4.292,0,0,1,4.4-4.569,5.649,5.649,0,0,1,.568.019v-2.845a.1.1,0,0,1,.029-.076.107.107,0,0,1,.076-.031h1.747c.089,0,.105.037.105.089v10.037a8.228,8.228,0,0,0,.054,1.074c0,.07-.023.089-.094.124a6.515,6.515,0,0,1-2.815.643C-53.469-2852.033-55.17-2853.5-55.17-2856.491Zm4.333-2.928c-1.38,0-2.349,1.063-2.349,2.833,0,2.02.986,2.834,2.225,2.834a2.083,2.083,0,0,0,.767-.124l0-5.436a1.583,1.583,0,0,0-.574-.108Zm-8.023,7.221c-.105,0-.141-.052-.141-.141v-11.516c0-.106.054-.143.141-.143h1.667c.089,0,.124.037.124.124v11.535c0,.106-.018.141-.141.141Z" transform="translate(65 2870)" fill="#5877ff"/>
</svg>
