<svg xmlns="http://www.w3.org/2000/svg" width="55" height="48" viewBox="0 0 55 48">
  <g id="ic_switch_to_student" transform="translate(-60.5 -594.5)">
    <path id="aa" d="M33.14,7.388l1.5,1.5a.5.5,0,0,0,.711,0l1.5-1.5a.5.5,0,0,0-.706-.706l-.651.646v-3.8h3.8l-.646.646a.5.5,0,1,0,.706.706l1.5-1.5a.5.5,0,0,0,0-.712l-1.5-1.5a.5.5,0,0,0-.706.706l.646.656H35a.5.5,0,0,0-.5.5v4.3l-.646-.646a.5.5,0,1,0-.711.706Z" transform="translate(40.006 602.96)" fill="#682875"/>
    <path id="bb" d="M19.272,13.55a6.857,6.857,0,1,0-9.972,0C5.873,15.462,4,19.513,4,25.143V26H24.571v-.857C24.571,19.512,22.7,15.462,19.272,13.55Zm-8.5,1.185a6.79,6.79,0,0,0,1.821.759,1.862,1.862,0,0,0-.021.22,1.713,1.713,0,0,0,.767,1.427l-.465,3.26L10.183,15.02C10.371,14.917,10.568,14.823,10.771,14.735ZM15.7,20.4l-.465-3.259a1.615,1.615,0,0,0,.745-1.647,6.806,6.806,0,0,0,1.821-.759c.2.088.4.183.59.285ZM14.286,3.714A5.143,5.143,0,1,1,9.143,8.857,5.148,5.148,0,0,1,14.286,3.714ZM8.77,16.029,12.9,24.286H5.73C5.837,21.387,6.534,18.092,8.77,16.029Zm6.9,8.257L19.8,16.029c2.236,2.062,2.933,5.358,3.04,8.257Z" transform="translate(74 605)" fill="#682875"/>
    <rect id="Rectangle_2" data-name="Rectangle 2" width="55" height="48" transform="translate(60.5 594.5)" fill="rgba(255,255,255,0)"/>
  </g>
</svg>
