<svg xmlns="http://www.w3.org/2000/svg" width="51.08" height="42" viewBox="0 0 51.08 42">
  <g id="ic_survey_form" transform="translate(-204 -87)">
    <path id="Path_958" data-name="Path 958" d="M51.548,18.6H47.18V7.089a1.8,1.8,0,0,0-1.839-1.776H4.1A1.772,1.772,0,0,0,2.283,7.089V25.248A1.817,1.817,0,0,0,4.1,27.075H8.47V38.594a1.892,1.892,0,0,0,1.839,1.886h20l5.926,6.269a1.823,1.823,0,0,0,1.345.564,1.8,1.8,0,0,0,.672-.137,1.839,1.839,0,0,0,1.15-1.712V40.477H51.544a1.868,1.868,0,0,0,1.819-1.886V20.432a1.819,1.819,0,0,0-1.819-1.839Zm-45.6,4.81V8.987H43.516V23.42H24.533A1.819,1.819,0,0,0,23.2,24l-3.282,3.5V25.256a1.839,1.839,0,0,0-1.839-1.839ZM49.7,36.814H37.574a1.8,1.8,0,0,0-1.839,1.78v2.248l-3.292-3.474a1.792,1.792,0,0,0-1.328-.552H12.126V27.071h4.128V32.11a1.823,1.823,0,0,0,3.157,1.253l5.916-6.285H45.335a1.839,1.839,0,0,0,1.839-1.827V22.267h2.519ZM29.711,12.876a3.083,3.083,0,0,1,3.257-2.571c1.78,0,3.527.817,3.527,2.779,0,1.806-2.07,2.5-2.519,3.155-.335.486-.223,1.167-1.138,1.167a.885.885,0,0,1-.891-.93c0-1.653,2.432-2.029,2.432-3.39a1.169,1.169,0,0,0-1.334-1.2c-1.78,0-1.083,1.839-2.432,1.839a.84.84,0,0,1-.9-.85Zm4.32,6.571a1.138,1.138,0,1,1-1.138-1.138A1.138,1.138,0,0,1,34.031,19.447Zm-4.853,10.83a1.451,1.451,0,1,1-1.449-1.451A1.451,1.451,0,0,1,29.178,30.277Zm6.334,0a1.451,1.451,0,1,1-1.451-1.451A1.451,1.451,0,0,1,35.512,30.277Zm6.334,0A1.451,1.451,0,1,1,40.4,28.826a1.451,1.451,0,0,1,1.449,1.451ZM29.654,20.424h-16.6a.92.92,0,0,1,0-1.839H29.658a.92.92,0,1,1,0,1.839Z" transform="translate(201.717 81.688)" fill="#fff"/>
  </g>
</svg>
