<svg xmlns="http://www.w3.org/2000/svg" width="42.004" height="42" viewBox="0 0 42.004 42"><defs><style>.a{fill:#fff;}</style></defs><g transform="translate(-678 -509)"><path class="a" d="M21,28a7,7,0,1,1,7-7A7.008,7.008,0,0,1,21,28Zm0-10.5A3.5,3.5,0,1,0,24.5,21,3.5,3.5,0,0,0,21,17.5ZM21,42c-.7,0-1.39-.037-2.072-.105a1.751,1.751,0,0,1-1.479-1.155L15.7,35.828q-.746-.265-1.447-.6l-4.7,2.237A1.748,1.748,0,0,1,7.69,37.24a21.107,21.107,0,0,1-2.932-2.933,1.752,1.752,0,0,1-.228-1.86l2.237-4.7c-.221-.467-.418-.95-.6-1.446L1.26,24.55A1.748,1.748,0,0,1,.105,23.071C.037,22.39,0,21.7,0,21s.037-1.39.105-2.072A1.751,1.751,0,0,1,1.26,17.449L6.175,15.7c.177-.5.375-.98.6-1.446l-2.238-4.7a1.751,1.751,0,0,1,.228-1.86A21.19,21.19,0,0,1,7.69,4.759a1.741,1.741,0,0,1,1.86-.228l4.7,2.237c.467-.219.95-.418,1.446-.6l1.75-4.914A1.748,1.748,0,0,1,18.93.1a21.293,21.293,0,0,1,4.144,0,1.751,1.751,0,0,1,1.479,1.155L26.3,6.173c.5.177.98.375,1.446.6l4.7-2.237a1.744,1.744,0,0,1,1.86.228A21.107,21.107,0,0,1,37.245,7.69a1.751,1.751,0,0,1,.229,1.862l-2.237,4.7q.331.7.6,1.447l4.914,1.747A1.751,1.751,0,0,1,41.9,18.93c.065.681.1,1.37.1,2.07s-.037,1.39-.105,2.072a1.751,1.751,0,0,1-1.155,1.479L35.829,26.3c-.177.5-.375.98-.6,1.446l2.237,4.7a1.751,1.751,0,0,1-.229,1.862,21.19,21.19,0,0,1-2.932,2.932,1.757,1.757,0,0,1-1.862.229l-4.7-2.237c-.467.221-.95.418-1.446.6L24.55,40.746A1.751,1.751,0,0,1,23.071,41.9c-.679.065-1.369.1-2.069.1Zm-.637-3.513c.42.018.847.018,1.272,0l1.652-4.645a1.752,1.752,0,0,1,1.157-1.094,12.2,12.2,0,0,0,2.431-1,1.749,1.749,0,0,1,1.594-.047l4.444,2.114q.467-.436.9-.9L31.7,28.472a1.749,1.749,0,0,1,.047-1.594,12.094,12.094,0,0,0,1-2.431,1.748,1.748,0,0,1,1.094-1.157l4.645-1.652L38.5,21l-.012-.637-4.645-1.652a1.752,1.752,0,0,1-1.094-1.157,12.138,12.138,0,0,0-1-2.429,1.749,1.749,0,0,1-.047-1.594L33.82,9.085q-.436-.467-.9-.9L28.473,10.3a1.754,1.754,0,0,1-1.594-.047,12.244,12.244,0,0,0-2.431-1,1.745,1.745,0,0,1-1.157-1.094L21.639,3.509c-.422-.016-.851-.016-1.272,0L18.715,8.156A1.752,1.752,0,0,1,17.558,9.25a12.26,12.26,0,0,0-2.433,1,1.751,1.751,0,0,1-1.593.047L9.087,8.186q-.467.433-.9.9L10.3,13.532a1.746,1.746,0,0,1-.047,1.593,12.329,12.329,0,0,0-1,2.429,1.745,1.745,0,0,1-1.094,1.157L3.511,20.363,3.5,21l.012.635,4.647,1.652a1.752,1.752,0,0,1,1.094,1.157,12.14,12.14,0,0,0,1,2.431A1.749,1.749,0,0,1,10.3,28.47L8.187,32.914c.291.312.59.613.9.9L13.534,31.7a1.75,1.75,0,0,1,1.594.047,12.078,12.078,0,0,0,2.429,1,1.748,1.748,0,0,1,1.157,1.094l1.65,4.647Z" transform="translate(678 508.998)"/></g></svg>