<svg xmlns="http://www.w3.org/2000/svg" xmlns:xlink="http://www.w3.org/1999/xlink" width="78" height="78" viewBox="0 0 78 78">
  <defs>
    <filter id="Ellipse_82" x="0" y="0" width="78" height="78" filterUnits="userSpaceOnUse">
      <feOffset dy="3" input="SourceAlpha"/>
      <feGaussianBlur stdDeviation="3" result="blur"/>
      <feFlood flood-opacity="0.161"/>
      <feComposite operator="in" in2="blur"/>
      <feComposite in="SourceGraphic"/>
    </filter>
  </defs>
  <g id="ic_view" transform="translate(-229 -418)">
    <g transform="matrix(1, 0, 0, 1, 229, 418)" filter="url(#Ellipse_82)">
      <circle id="Ellipse_82-2" data-name="Ellipse 82" cx="30" cy="30" r="30" transform="translate(9 6)" fill="#fff"/>
    </g>
    <g id="ic_view-2" data-name="ic_view" transform="translate(-555 202)">
      <circle id="Ellipse_" data-name="Ellipse " cx="3.872" cy="3.872" r="3.872" transform="translate(819.354 248.129)" fill="#5877ff"/>
      <path id="Path" d="M14.226,20a15.023,15.023,0,0,0,14.033-9.516L28.452,10l-.193-.484a15.1,15.1,0,0,0-28.065,0L0,10l.193.484A15.023,15.023,0,0,0,14.226,20Zm0-16.452A6.452,6.452,0,1,1,7.774,10a6.452,6.452,0,0,1,6.452-6.452Z" transform="translate(809 242)" fill="#5877ff"/>
    </g>
  </g>
</svg>
