<svg xmlns="http://www.w3.org/2000/svg" width="15.75" height="18" viewBox="0 0 15.75 18"><defs><style>.a{fill:#682875;}</style></defs><g transform="translate(-16.88 -15.496)"><g transform="translate(16.88 15.496)"><g transform="translate(0 0)"><path class="a" d="M14.977,7.258h-2.25A1.687,1.687,0,0,1,11.04,5.571V3.322a.562.562,0,0,1,.962-.4L15.376,6.3a.562.562,0,0,1-.4.962ZM12.165,4.677v.894a.562.562,0,0,0,.562.562h.894Z" transform="translate(-3.166 -0.506)"/><path class="a" d="M12.066,18.507h-9A1.687,1.687,0,0,1,1.38,16.82V4.447A1.687,1.687,0,0,1,3.067,2.76H9.816a.562.562,0,0,1,.4.163L13.59,6.3a.562.562,0,0,1,.163.4V16.82A1.687,1.687,0,0,1,12.066,18.507Zm-9-14.622a.562.562,0,0,0-.562.562V16.82a.562.562,0,0,0,.562.562h9a.562.562,0,0,0,.562-.562V6.927L9.585,3.885Z" transform="translate(-1.38 -0.507)"/><path class="a" d="M19.117,4.5h-2.25A1.687,1.687,0,0,1,15.18,2.811V.562a.562.562,0,0,1,.962-.4l3.374,3.374a.562.562,0,0,1-.4.962ZM16.3,1.917v.894a.562.562,0,0,0,.562.562h.894Z" transform="translate(-3.932 0.004)"/><path class="a" d="M16.206,15.747h-2.25a.562.562,0,0,1,0-1.125h2.25a.562.562,0,0,0,.562-.562V4.167L13.725,1.125H7.207a.562.562,0,0,0-.562.562V2.812a.562.562,0,1,1-1.125,0V1.687A1.687,1.687,0,0,1,7.207,0h6.749a.562.562,0,0,1,.4.163L17.73,3.537a.562.562,0,0,1,.163.4V14.06a1.687,1.687,0,0,1-1.687,1.687Z" transform="translate(-2.146 0.003)"/><path class="a" d="M11.451,10.785H4.7a.562.562,0,0,1,0-1.125h6.749a.562.562,0,1,1,0,1.125Z" transform="translate(-1.89 -1.783)"/><path class="a" d="M11.451,13.545H4.7a.562.562,0,0,1,0-1.125h6.749a.562.562,0,1,1,0,1.125Z" transform="translate(-1.89 -2.294)"/><path class="a" d="M8.077,16.3H4.7a.562.562,0,0,1,0-1.125H8.077a.562.562,0,1,1,0,1.125Z" transform="translate(-1.89 -2.804)"/></g></g></g></svg>