<svg xmlns="http://www.w3.org/2000/svg" width="38.777" height="31.09" viewBox="0 0 38.777 31.09"><defs><style>.a{fill:#fff;}</style></defs><path class="a" d="M3.672,31.368a1.248,1.248,0,0,0,.438.973,1.357,1.357,0,0,0,.989.438h9.536a1.569,1.569,0,0,1,1.119.454,1.478,1.478,0,0,1,.487,1.1,1.5,1.5,0,0,1-.487,1.1,1.493,1.493,0,0,1-2.206,0,1.47,1.47,0,0,0-1.006-.422,1.263,1.263,0,0,0-.957.405,1.384,1.384,0,0,0-.389.989,1.32,1.32,0,0,0,.389.973A4.346,4.346,0,0,0,17.7,37.4a4.138,4.138,0,0,0,1.265-3.049,4.347,4.347,0,0,0-4.33-4.363H5.1a1.4,1.4,0,0,0-1.006.405A1.28,1.28,0,0,0,3.672,31.368Zm0-4.882a1.206,1.206,0,0,0,.438.941,1.283,1.283,0,0,0,.989.389H22.923a4.312,4.312,0,0,0,3.065-7.363,4.428,4.428,0,0,0-6.13-.032,1.5,1.5,0,0,0-.373,1.022,1.335,1.335,0,0,0,.373.957,1.26,1.26,0,0,0,.973.373,1.32,1.32,0,0,0,.989-.373,1.506,1.506,0,0,1,1.1-.454A1.578,1.578,0,0,1,24.5,23.5a1.559,1.559,0,0,1-.47,1.119,1.522,1.522,0,0,1-1.1.47H5.1a1.4,1.4,0,0,0-1.006.405A1.339,1.339,0,0,0,3.672,26.486Zm4.3-3.8c0,.13.1.195.276.195h2.319a.472.472,0,0,0,.357-.227,5.23,5.23,0,0,1,1.7-2.189A4.672,4.672,0,0,1,15.2,19.5l.843-.114a.274.274,0,0,0,.308-.308l.114-.811a6.591,6.591,0,0,1,2.238-4.4,6.972,6.972,0,0,1,9.261-.016,6.682,6.682,0,0,1,2.254,4.411l.114.924a.258.258,0,0,0,.292.292H33.27a5.156,5.156,0,0,1,3.746,1.541,5.189,5.189,0,0,1,0,7.412,5.156,5.156,0,0,1-3.746,1.541H22.063c-.178,0-.276.1-.276.292v2.222c0,.195.1.292.276.292H33.27a7.76,7.76,0,0,0,4.022-1.087,8.035,8.035,0,0,0,3.99-6.974,7.69,7.69,0,0,0-.681-3.276,8.714,8.714,0,0,0,1.849-5.4,8.277,8.277,0,0,0-.681-3.308,8.546,8.546,0,0,0-1.816-2.708,8.417,8.417,0,0,0-2.708-1.8,8.569,8.569,0,0,0-3.325-.665,8.162,8.162,0,0,0-6.293,2.806,9.123,9.123,0,0,0-4.3-.989A9.485,9.485,0,0,0,17.247,11.5a9.3,9.3,0,0,0-3.357,5.433,7.924,7.924,0,0,0-3.665,1.995A8.093,8.093,0,0,0,8,22.464v.065C7.986,22.61,7.97,22.675,7.97,22.691ZM29.913,11.939a5.671,5.671,0,0,1,4.022-1.654,5.815,5.815,0,0,1,5.774,5.757,6.261,6.261,0,0,1-.827,3,7.638,7.638,0,0,0-5.628-2.319h-.535A9.521,9.521,0,0,0,29.913,11.939Z" transform="translate(-3.672 -7.56)"/></svg>