<svg xmlns="http://www.w3.org/2000/svg" width="26" height="26" viewBox="0 0 26 26">
  <g id="Icon_URL_Off" transform="translate(-570 -119)">
    <rect id="Rectangle_1506" data-name="Rectangle 1506" width="26" height="26" transform="translate(570 119)" fill="rgba(255,255,255,0)"/>
    <g id="ic_URL_off" transform="translate(572 121)">
      <path id="Path" d="M49.7,8.886a2.666,2.666,0,0,0-3.783,0L41.986,12.8a2.666,2.666,0,0,0,0,3.783,1.015,1.015,0,1,0,1.447-1.422.635.635,0,0,1,0-.914l3.91-3.91a.66.66,0,0,1,.914,0l3.58,3.58a.635.635,0,0,1,0,.914l-3.91,3.91a.66.66,0,0,1-.914,0,1.023,1.023,0,1,0-1.447,1.447,2.666,2.666,0,0,0,3.783,0l3.935-3.935a2.666,2.666,0,0,0,0-3.783Z" transform="translate(-32.796 -8.099)" fill="#666"/>
      <path id="Path-2" data-name="Path" d="M12.466,53.284a2.666,2.666,0,0,0,3.783,0l3.935-3.91a2.666,2.666,0,0,0,0-3.783l-1.447,1.422a.635.635,0,0,1,0,.914l-3.91,3.91a.635.635,0,0,1-.914,0l-3.58-3.58a.635.635,0,0,1,0-.914l3.91-3.91a.635.635,0,0,1,.914,0A1.023,1.023,0,1,0,16.6,41.986a2.666,2.666,0,0,0-3.783,0L8.886,45.921a2.666,2.666,0,0,0,0,3.783Z" transform="translate(-8.099 -32.796)" fill="#666"/>
      <path id="ic_URL_off-2" data-name="ic_URL_off" d="M31.847,39.633a1.015,1.015,0,0,0,1.447,0l7.642-7.667a1.023,1.023,0,1,0-1.447-1.447l-7.642,7.692A1.016,1.016,0,0,0,31.847,39.633Z" transform="translate(-25.601 -24.604)" fill="#666"/>
    </g>
  </g>
</svg>
