<svg xmlns="http://www.w3.org/2000/svg" width="26" height="26" viewBox="0 0 26 26">
  <g id="Icon_Whiteboard_Recording_Active" transform="translate(-916 -119)">
    <g id="Group_2265" data-name="Group 2265">
      <path id="Path_1272" data-name="Path 1272" d="M384.256,306.3a8.215,8.215,0,0,0,3.557-.79.515.515,0,1,0-.447-.928,7.282,7.282,0,0,1-3.128.687,7.441,7.441,0,1,1,7.269-9.159c.034.138.051.275.086.4a.506.506,0,0,0,1-.172,4.664,4.664,0,0,0-.1-.464,8.475,8.475,0,1,0-8.232,10.432Z" transform="translate(543.198 -165.231)" fill="#5877ff"/>
      <path id="Path_1273" data-name="Path 1273" d="M405.655,300.956l-2.234,2.492-1.254-1.255-2.956,2.956a1.224,1.224,0,0,0-.36.859,1.155,1.155,0,0,0,.36.859l1.495,1.5a1.225,1.225,0,0,0,.86.361,1.154,1.154,0,0,0,.859-.361l2.956-2.956-1.392-1.391,2.492-2.733V297.45h-.825v3.506Z" transform="translate(531.388 -169.372)" fill="#5877ff"/>
      <path id="Path_1274" data-name="Path 1274" d="M413.569,290.242A1.2,1.2,0,0,0,412.28,289a1.131,1.131,0,0,0-1.22,1.238V292.3h2.492v-2.062Z" transform="translate(525.141 -165.051)" fill="#5877ff"/>
      <path id="Path_1275" data-name="Path 1275" d="M390.107,300.757a2.9,2.9,0,1,0,2.9,2.9A2.912,2.912,0,0,0,390.107,300.757Zm0,3.85a.945.945,0,1,1,.945-.945A.954.954,0,0,1,390.107,304.607Z" transform="translate(537.347 -171.064)" fill="#5877ff"/>
      <path id="Path_1276" data-name="Path 1276" d="M372.178,284.5v21h23.268v-21Zm22.254,19.986h-21.24V285.514h21.223v18.972Z" transform="translate(545.322 -162.5)" fill="#5877ff"/>
    </g>
    <rect id="Rectangle_1506" data-name="Rectangle 1506" width="26" height="26" transform="translate(916 119)" fill="rgba(255,255,255,0)"/>
  </g>
</svg>
