<svg xmlns="http://www.w3.org/2000/svg" width="35.645" height="40" viewBox="0 0 35.645 40">
  <path id="Admin_Users_Icon_White_40" d="M-203.473,412.6l-1.4-.237-.05-.161c-.065-.21-.141-.417-.225-.619-.076-.18-.159-.356-.249-.527l-.079-.15.823-1.151a.8.8,0,0,0-.087-1.041l-.606-.605-.485-.485a.8.8,0,0,0-.571-.238.792.792,0,0,0-.466.15l-1.155.823-.15-.079q-.29-.153-.588-.276c-.2-.082-.4-.153-.6-.213l-.164-.049-.233-1.383a.807.807,0,0,0-.8-.675h-1.541a.807.807,0,0,0-.8.676l-.2,1.194a14.249,14.249,0,0,0-6.491-4.662,8.848,8.848,0,0,0,4.185-7.509,8.864,8.864,0,0,0-8.854-8.854,8.864,8.864,0,0,0-8.854,8.854,8.848,8.848,0,0,0,4.176,7.5,14.2,14.2,0,0,0-9.516,13.39c0,.128,0,.254.007.381a1.152,1.152,0,0,0-.007.132v8.561a1.178,1.178,0,0,0,1.178,1.178h26.008a1.178,1.178,0,0,0,1.178-1.178v-2.824a.805.805,0,0,0,.364-.547l.237-1.4.161-.05c.213-.066.423-.143.627-.229q.266-.112.519-.246l.15-.079,1.152.824a.8.8,0,0,0,.469.15.8.8,0,0,0,.571-.238l.61-.61.48-.48a.807.807,0,0,0,.088-1.041l-.822-1.155.078-.149a7.035,7.035,0,0,0,.307-.668q.1-.24.167-.478l.049-.163,1.4-.233a.806.806,0,0,0,.675-.8v-1.544A.792.792,0,0,0-203.473,412.6Zm-27.28-17.217a6.5,6.5,0,0,1,6.5-6.5,6.5,6.5,0,0,1,6.5,6.5,6.505,6.505,0,0,1-6.5,6.5A6.505,6.505,0,0,1-230.753,395.383Zm-5.341,28.789v-7.209a1.183,1.183,0,0,0,.012-.219c-.006-.155-.012-.311-.012-.467a11.839,11.839,0,0,1,11.826-11.826,11.775,11.775,0,0,1,7.85,2.99.785.785,0,0,0-.352.2l-.564.562-.53.528a.807.807,0,0,0-.088,1.041l.83,1.166-.078.149q-.142.271-.259.56t-.207.588l-.049.163-1.383.233a.807.807,0,0,0-.675.8v1.541a.807.807,0,0,0,.676.8l1.41.24.05.16q.081.258.184.51a6.555,6.555,0,0,0,.3.631l.081.151-.82,1.141a.8.8,0,0,0,.087,1.041l.509.509.582.582a.8.8,0,0,0,.571.238.792.792,0,0,0,.467-.15l1.166-.83.149.078c.172.09.352.174.537.25s.377.145.573.206l.161.05.233,1.4a.8.8,0,0,0,.42.58v1.614Zm24.805-6.938a3.07,3.07,0,0,1-3.067-3.067,3.07,3.07,0,0,1,3.067-3.067,3.07,3.07,0,0,1,3.067,3.067A3.07,3.07,0,0,1-211.288,417.234Z" transform="translate(238.45 -386.529)" fill="#fff"/>
</svg>
