<svg xmlns="http://www.w3.org/2000/svg" width="55" height="48" viewBox="0 0 55 48">
  <g id="Group_1" data-name="Group 1" transform="translate(-471 -315)">
    <rect id="Rectangle_1" data-name="Rectangle 1" width="55" height="48" transform="translate(471 315)" fill="none"/>
    <path id="Admin_Users_Icon_White_48" d="M-214.9,404.083l-.94-.159-.034-.108c-.044-.142-.095-.281-.152-.417q-.077-.182-.168-.355l-.053-.1.554-.775a.541.541,0,0,0-.056-.7l-.408-.408-.327-.327a.541.541,0,0,0-.384-.16.534.534,0,0,0-.314.1l-.778.554-.1-.053q-.2-.1-.4-.186a3.975,3.975,0,0,0-.4-.143l-.112-.033-.157-.931a.543.543,0,0,0-.538-.454H-220.7a.543.543,0,0,0-.538.455l-.137.8a9.6,9.6,0,0,0-4.37-3.139,5.957,5.957,0,0,0,2.818-5.056,5.968,5.968,0,0,0-5.962-5.962,5.968,5.968,0,0,0-5.962,5.962,5.957,5.957,0,0,0,2.812,5.05,9.564,9.564,0,0,0-6.408,9.016c0,.086,0,.171.005.256a.775.775,0,0,0-.005.089v5.764a.793.793,0,0,0,.793.793h17.512a.793.793,0,0,0,.793-.793v-1.9a.542.542,0,0,0,.245-.369l.159-.94.109-.034a4.412,4.412,0,0,0,.422-.154q.179-.076.349-.166l.1-.056.776.555a.537.537,0,0,0,.316.1.54.54,0,0,0,.384-.16l.411-.411.323-.323a.543.543,0,0,0,.059-.7l-.554-.778.053-.1a4.738,4.738,0,0,0,.207-.449q.064-.162.112-.321l.033-.112.941-.157a.543.543,0,0,0,.454-.537v-1.04A.534.534,0,0,0-214.9,404.083Zm-18.368-11.593a4.38,4.38,0,0,1,4.376-4.376,4.38,4.38,0,0,1,4.376,4.376,4.38,4.38,0,0,1-4.376,4.376,4.38,4.38,0,0,1-4.376-4.376Zm-3.6,19.384v-4.854a.8.8,0,0,0,.008-.147c0-.1-.008-.209-.008-.315A7.971,7.971,0,0,1-228.9,398.6a7.929,7.929,0,0,1,5.285,2.014.528.528,0,0,0-.237.138l-.38.378-.357.356a.543.543,0,0,0-.059.7l.561.786-.053.1q-.1.183-.174.377t-.14.4l-.033.112-.931.157a.543.543,0,0,0-.454.538v1.037a.543.543,0,0,0,.455.537l.949.162.034.108q.056.173.123.343a4.413,4.413,0,0,0,.2.425l.056.1-.553.768a.541.541,0,0,0,.056.7l.343.343.393.393a.54.54,0,0,0,.384.16.533.533,0,0,0,.314-.1l.786-.561.1.053c.116.061.237.117.362.168s.254.1.386.139l.109.034.157.94a.542.542,0,0,0,.281.393v1.081Zm16.7-4.672a2.067,2.067,0,0,1-2.065-2.065,2.068,2.068,0,0,1,2.065-2.065,2.068,2.068,0,0,1,2.065,2.065A2.067,2.067,0,0,1-220.161,407.2Z" transform="translate(725.45 -60.529)" fill="#682875"/>
  </g>
</svg>
