<svg xmlns="http://www.w3.org/2000/svg" viewBox="0 0 42.683 45">
  <defs>
    <style>
      .cls-1 {
        fill: #fff;
      }
    </style>
  </defs>
  <path id="instructor_2" class="cls-1" d="M25.138,29.344a9.344,9.344,0,1,1,9.344,9.344A9.347,9.347,0,0,1,25.138,29.344ZM51.824,49.6a2.99,2.99,0,1,0,2.99,2.99A3,3,0,0,0,51.824,49.6Zm12.259.374v5.233a1.5,1.5,0,0,1-1.5,1.5h-.6c0,.075-.075.075-.075.15l.449.449a1.445,1.445,0,0,1,0,2.093L58.7,63.056a1.445,1.445,0,0,1-2.093,0l-.449-.449c-.075,0-.075.075-.149.075v.673a1.5,1.5,0,0,1-1.5,1.5H49.282a1.5,1.5,0,0,1-1.5-1.5v-.6c-.075,0-.075-.075-.15-.075l-.449.449a1.445,1.445,0,0,1-2.093,0l-3.663-3.663a1.445,1.445,0,0,1,0-2.093l.449-.449c0-.075-.075-.075-.075-.15h-.6a1.5,1.5,0,0,1-1.5-1.5V50.05a1.5,1.5,0,0,1,1.5-1.5h.6c0-.075.075-.075.075-.15l-.449-.449a1.445,1.445,0,0,1,0-2.093L45.1,42.2a1.445,1.445,0,0,1,2.093,0l.449.449c.075,0,.075-.075.15-.075v-.6a1.5,1.5,0,0,1,1.5-1.5h5.233a1.5,1.5,0,0,1,1.5,1.5v.6c.075,0,.075.075.149.075l.449-.449a1.445,1.445,0,0,1,2.093,0l3.663,3.663a1.445,1.445,0,0,1,0,2.093l-.449.449c0,.075.075.075.075.15h.6A1.393,1.393,0,0,1,64.083,49.975ZM57.8,52.591a5.98,5.98,0,1,0-5.98,5.98A6,6,0,0,0,57.8,52.591Zm-18.09,8.447a3.412,3.412,0,0,1-1.047-2.915,3.7,3.7,0,0,1-1.346-2.841V50.05a3.7,3.7,0,0,1,1.346-2.841,3.819,3.819,0,0,1,1.047-2.915l3.663-3.663a.073.073,0,0,0,.075-.075,6.543,6.543,0,0,0-1.2-.15h-15.7A5.168,5.168,0,0,0,21.4,45.565V63.5A1.5,1.5,0,0,0,22.9,65H43.526c-.075-.075-.15-.075-.224-.149Z" transform="translate(-21.4 -20)"/>
</svg>
