<svg xmlns="http://www.w3.org/2000/svg" xmlns:xlink="http://www.w3.org/1999/xlink" viewBox="0 0 98 69.324">
  <defs>
    <style>
      .cls-1 {
        clip-path: url(#clip-path);
      }

      .cls-2 {
        fill: #fff;
      }
    </style>
    <clipPath id="clip-path">
      <rect id="Rectangle_198" data-name="Rectangle 198" width="98" height="69.324"/>
    </clipPath>
  </defs>
  <g id="g14_1_" class="cls-1">
    <g id="g20_1_" transform="translate(35.557 47.605)">
      <path id="path22_1_" class="cls-2" d="M-2.207-3.053A2.944,2.944,0,0,1-4.234-1.7,1.532,1.532,0,0,1-5.876-3.439c0-1.352.966-1.931,3.669-2.607ZM1.172-1.411a.185.185,0,0,0-.29-.1h0A1.882,1.882,0,0,1,.11-1.6a1.677,1.677,0,0,1-.29-1.159V-7.977c0-2.028-1.255-3.09-3.669-3.09C-5.972-11.067-7.71-10-7.71-8.749a1.179,1.179,0,0,0,.966,1.255A1.452,1.452,0,0,0-5.683-7.88c.579-.579.483-1.255-.193-1.931a2.644,2.644,0,0,1,1.834-.676c1.255,0,1.834.676,1.834,2.414v1.352a7.832,7.832,0,0,1-1.062.29A12.274,12.274,0,0,0-6.745-5.274,2.368,2.368,0,0,0-8-3.053,2.407,2.407,0,0,0-5.3-.639,4.293,4.293,0,0,0-2.11-2.377c.1,1.255.579,1.641,1.641,1.641A2.725,2.725,0,0,0,.979-1.122c.193,0,.193-.193.193-.29" transform="translate(8 11.067)"/>
    </g>
    <g id="g24_1_" transform="translate(62.243 47.509)">
      <path id="path26_1_" class="cls-2" d="M-1.876-.221c-1.255,0-2.7.579-2.7,4.731,0,3.186.966,4.731,2.9,4.731,1.834-.1,2.7-1.545,2.7-4.731S.055-.221-1.876-.221m.1,9.945A4.975,4.975,0,0,1-6.8,4.51,5.177,5.177,0,0,1-1.779-.8,5.092,5.092,0,0,1,3.241,4.414a5.175,5.175,0,0,1-5.021,5.31" transform="translate(6.8 0.8)"/>
    </g>
    <g id="g28_1_" transform="translate(13.365 43.573)">
      <path id="path30_1_" class="cls-2" d="M-1.655-4.708V-8.474H-.207A7.686,7.686,0,0,0,4.717-9.825a3.676,3.676,0,0,0,1.352-2.993c0-3.476-3.379-4.248-6.179-4.248h-5.7A.208.208,0,0,0-6-16.874h0c0,.1.1.193.193.29.483.193,1.931-.1,1.931,1.448V-4.708c0,.772-.386,1.255-1.834,1.448a.208.208,0,0,0-.193.193h0c-.1.193,0,.29.193.29H.372A.208.208,0,0,0,.566-2.97h0a.208.208,0,0,0-.193-.193c-1.738-.193-2.028-.772-2.028-1.545V-8.474m5.214-4.441c0,2.414-.579,3.766-3.669,3.766H-1.655v-7.338H-.014c3.186,0,3.572,1.834,3.572,3.572" transform="translate(6 17.067)"/>
    </g>
    <g id="g32_1_" transform="translate(25.219 47.512)">
      <path id="path34_1_" class="cls-2" d="M-.883-1.508C-.69-3.729.179-4.887,1.531-4.887a2.038,2.038,0,0,1,1.545.579,3.68,3.68,0,0,1,.579,2.8Zm2.51-3.959A5.15,5.15,0,0,0-3.2-.156,4.8,4.8,0,0,0,1.628,4.961,4.665,4.665,0,0,0,5.779,2.547a.181.181,0,0,0,0-.29h0c-.193-.1-.29,0-.386.1A3.629,3.629,0,0,1,2.5,4.092C.855,4-.883,2.837-.883-.253h0V-.736H5.876v-.1A4.345,4.345,0,0,0,4.814-4.211,4.361,4.361,0,0,0,1.628-5.467" transform="translate(3.2 5.467)"/>
    </g>
    <g id="g36_1_" transform="translate(54.041 47.533)">
      <path id="path38_1_" class="cls-2" d="M-1.508-1.545h0c-1.834-.483-2.607-1.062-2.607-1.834A1.651,1.651,0,0,1-2.377-5.021c1.255,0,1.834.579,3.09,2.7H.906A.208.208,0,0,0,1.1-2.51V-5.6H.906c-.1,0-.1,0-.193.1l-.386.483A4.675,4.675,0,0,0-1.894-5.6,3.26,3.26,0,0,0-5.467-2.414C-5.467-.676-4.308,0-2.28.579-.349,1.159.326,1.641.326,2.7A1.8,1.8,0,0,1-1.6,4.345c-1.448,0-2.124-.579-3.476-3.09h-.193a.208.208,0,0,0-.193.193V4.924h.193c.1,0,.1,0,.193-.1l.676-.676A5.52,5.52,0,0,0-1.8,4.828,3.741,3.741,0,0,0,.809,3.862a3.132,3.132,0,0,0,.869-2.317C1.678-.1.809-.869-1.508-1.545" transform="translate(5.467 5.6)"/>
    </g>
    <g id="g40_1_" transform="translate(45.7 47.566)">
      <path id="path42_1_" class="cls-2" d="M-.441-3.457c0,.483-.1.676-.966.772a.208.208,0,0,0-.193.193.208.208,0,0,0,.193.193H2.745a.208.208,0,0,0,.193-.193.208.208,0,0,0-.193-.193c-.966,0-1.255-.193-1.255-.772V-9.54c.676-1.159,1.159-1.738,2.028-1.931a4.182,4.182,0,0,0-.1.483A1.166,1.166,0,0,0,4.676-9.733a1.166,1.166,0,0,0,1.255-1.255A1.543,1.543,0,0,0,4.29-12.533,3.335,3.335,0,0,0,1.49-10.6v-1.545a.256.256,0,0,0-.29-.29l-2.607.1a.208.208,0,0,0-.193.193h0a.208.208,0,0,0,.193.193c.869.1.966.579.966.966Z" transform="translate(1.6 12.533)"/>
    </g>
    <g id="g44_1_" transform="translate(72.775 47.657)">
      <path id="path46_1_" class="cls-2" d="M-1.1,0c.1,0,.1,0,.193.1a.337.337,0,0,1,.1.193V2.028A3.859,3.859,0,0,1,2.855,0h0c1.738,0,2.7,1.062,2.7,2.993V8.979c0,.579.1.676.966.772a.193.193,0,1,1,0,.386H2.759a.193.193,0,1,1,0-.386c.676-.1.772-.29.772-.772V3.572c0-1.834-.483-2.51-1.834-2.51A2.647,2.647,0,0,0-.331,2.51a8.926,8.926,0,0,0-.483.869v5.7c0,.483.1.676.772.772a.208.208,0,0,1,.193.193.208.208,0,0,1-.193.193H-3.807A.208.208,0,0,1-4,10.041a.208.208,0,0,1,.193-.193c.869-.1.966-.193.966-.772V1.641c0-.386-.1-.869-.966-.966C-3.9.579-4,.483-4,.386h0A.208.208,0,0,1-3.807.193Z" transform="translate(4)"/>
    </g>
    <path id="path50_1_" class="cls-2" d="M-8.994-5.218A6.968,6.968,0,0,1-12.373-.294a10.7,10.7,0,0,1-5.6,1.352c0,.29-.1,1.448-.1,1.641a1.1,1.1,0,0,1-.29.579,1.642,1.642,0,0,1-.966.579,2.4,2.4,0,0,1-.772.1h-.1a.688.688,0,0,1-.579-.29c-.193-.193-.193-.386-.29-.579V2.892c0-.193-.29-9.655-.193-9.559,0-1.159,1.834-1.352,2.9-1.159.966.193.772,1.448.676,2.9,0,0,0,1.931-.1,4.055a8.863,8.863,0,0,0,3.09-.966,4.713,4.713,0,0,0,2.9-4.538c0-2.124-2.124-4.538-5.89-4.538s-5.5.966-7.338,2.51c-.386.386-.772.676-1.062.966-.29.193-1.159.29-1.352-.29a1.821,1.821,0,0,1,.483-1.738,10.42,10.42,0,0,1,2.8-2.317,12.4,12.4,0,0,1,5.6-1.641c2.221-.1,5.6.1,8.11,2.9h0a7.241,7.241,0,0,1,1.448,5.31M-18.649,7.526a1.631,1.631,0,0,1-.966.29h0a.724.724,0,0,1-.483-.1,1.556,1.556,0,0,1-.676-.386l-.29-.579a1.09,1.09,0,0,1,.29-1.062,1.472,1.472,0,0,1,1.159-.676h.193a2.044,2.044,0,0,1,.676.29,1.509,1.509,0,0,1,.579,1.159,1.383,1.383,0,0,1-.483,1.062m8.3-24.428c-7.338-4.152-16.8-1.931-20.855,7.048C-34-3.77-32.746,6.947-26.18,10.713c6.566,3.862,15.352.579,19.407-6.855,4.634-8.5,3.09-16.993-3.572-20.759" transform="translate(66.805 28.647)"/>
  </g>
</svg>
