<svg id="Logout" xmlns="http://www.w3.org/2000/svg" viewBox="0 0 40.176 40">
  <defs>
    <style>
      .cls-1 {
        fill: #0b7ba1;
      }
    </style>
  </defs>
  <path id="Path_55" data-name="Path 55" class="cls-1" d="M0,34.286A5.731,5.731,0,0,0,5.714,40H18.571a5.731,5.731,0,0,0,5.714-5.714V28.952a1.9,1.9,0,0,0-3.81,0v5.333a1.91,1.91,0,0,1-1.9,1.9H5.714a1.91,1.91,0,0,1-1.9-1.9V5.714a1.91,1.91,0,0,1,1.9-1.9H18.571a1.91,1.91,0,0,1,1.9,1.9v5.238a1.9,1.9,0,0,0,3.81,0V5.714A5.731,5.731,0,0,0,18.571,0H5.714A5.731,5.731,0,0,0,0,5.714Z"/>
  <path id="Path_56" data-name="Path 56" class="cls-1" d="M38.333,40.229a1.9,1.9,0,0,0,2.714,0h0l10-10a1.891,1.891,0,0,0,.19-2.667l-.19-.19-10-10a1.919,1.919,0,0,0-2.714,2.714L45.19,26.9H23.9a1.9,1.9,0,0,0,0,3.81H45.19l-6.857,6.857A1.927,1.927,0,0,0,38.333,40.229Z" transform="translate(-11.524 -8.8)"/>
</svg>
