<svg xmlns="http://www.w3.org/2000/svg" width="40" height="40" viewBox="0 0 40 40">
  <g id="Lomangament_icon" transform="translate(2238 7292)">
    <path id="Path_931" data-name="Path 931" d="M39.245,23.8a6.12,6.12,0,0,0-6.358,5.513.955.955,0,0,0,.956,1.066h1.507a.915.915,0,0,0,.919-.809,2.73,2.73,0,0,1,2.977-2.426,2.738,2.738,0,0,1,2.61,1.4,2.188,2.188,0,0,1-.147,2.316,5.286,5.286,0,0,1-1.433,1.323,5.022,5.022,0,0,0-2.463,4.374.967.967,0,0,0,.956,1.029h1.47a.959.959,0,0,0,.956-.882,1.8,1.8,0,0,1,1.029-1.764,8.555,8.555,0,0,0,2.205-2.1A5.582,5.582,0,0,0,44.868,27,6.183,6.183,0,0,0,39.245,23.8Z" transform="translate(-2257.544 -7304.814)" fill="#fff"/>
    <circle id="Ellipse_5" data-name="Ellipse 5" cx="2.058" cy="2.058" r="2.058" transform="translate(-2220.137 -7265.872)" fill="#fff"/>
    <path id="Path_1292" data-name="Path 1292" d="M72.946,513.214a16.789,16.789,0,0,0,27.186-13.054l3.194-.16h0a20.01,20.01,0,0,1-33.094,15.13l-3.154,2.236-.519-5.709L66,505.948l5.23,2.4,5.19,2.4Z" transform="translate(-2301.325 -7772)" fill="#fff"/>
    <path id="Path_1293" data-name="Path 1293" d="M19-1A19.845,19.845,0,0,1,32.932,4.669l3.473-2.2.359,11.537L26.625,8.581l3.473-2.2A16.789,16.789,0,0,0,2.194,19c0,.4,0,.838.04,1.238l-3.194.24C-.96,20-1,19.479-1,19A20.036,20.036,0,0,1,19-1Z" transform="translate(-2237 -7291)" fill="#fff"/>
  </g>
</svg>
