<svg xmlns="http://www.w3.org/2000/svg" width="34.637" height="40" viewBox="0 0 34.637 40">
  <path id="Path_881" data-name="Path 881" d="M20.67,21.41a3.452,3.452,0,0,1,2.343,5.99v3.059a2.343,2.343,0,0,1-4.685,0V27.4a3.451,3.451,0,0,1,2.342-5.99M37.989,40V14.208H12.312v-8.7A2.513,2.513,0,0,1,14.821,3h11.7a2.513,2.513,0,0,1,2.506,2.508v4.21h3V5.506A5.531,5.531,0,0,0,26.522,0h-11.7a5.619,5.619,0,0,0-2.1.417A5.522,5.522,0,0,0,9.322,5.5v8.7H3.352V40Z" transform="translate(-3.352)" fill="#0b7ba1" fill-rule="evenodd"/>
</svg>
