<svg xmlns="http://www.w3.org/2000/svg" width="34.637" height="40" viewBox="0 0 34.637 40"><defs><style>.a{fill:#fff;fill-rule:evenodd;}</style></defs><g transform="translate(-3.352)"><path class="a" d="M20.67,21.41A3.452,3.452,0,0,1,23.013,27.4v3.059a2.342,2.342,0,0,1-4.685,0V27.4A3.451,3.451,0,0,1,20.67,21.41M37.989,40V14.208H12.312v-8.7A2.513,2.513,0,0,1,14.821,3h11.7a2.513,2.513,0,0,1,2.506,2.508v4.21h3V5.506A5.5,5.5,0,0,0,31.6,3.4,5.5,5.5,0,0,0,26.522,0h-11.7a5.619,5.619,0,0,0-2.1.417,5.522,5.522,0,0,0-3.4,5.088v8.7H3.352V40Z" transform="translate(0)"/></g></svg>