<svg xmlns="http://www.w3.org/2000/svg" width="43.606" height="40" viewBox="0 0 43.606 40">
  <g id="online_lecture_blue" transform="translate(-11.247 -13)">
    <g id="Group_1114" data-name="Group 1114">
      <path id="Path_896" data-name="Path 896" d="M42.608,47.694H38.39V44.361H27.642v3.333H23.356a2.653,2.653,0,1,0,0,5.306H42.54a2.656,2.656,0,0,0,2.653-2.653A2.518,2.518,0,0,0,42.608,47.694Z" fill="#0b7ba1"/>
    </g>
    <g id="Group_1115" data-name="Group 1115">
      <path id="Path_897" data-name="Path 897" d="M51.451,13H14.581a3.339,3.339,0,0,0-3.334,3.333V39.667A3.339,3.339,0,0,0,14.581,43H51.519a3.339,3.339,0,0,0,3.334-3.333V16.333A3.444,3.444,0,0,0,51.451,13Zm1.973,24.082H27.03l-.136-4.15a1.684,1.684,0,0,1,1.7-1.7,4.562,4.562,0,0,0,2.721-.952L37.1,25.857a.719.719,0,0,0,.136-.952l-.34-.476,6.258-4.15a.69.69,0,0,0-.136-1.225h7.075a.68.68,0,1,0,0-1.36H31.723a.68.68,0,0,0,0,1.36H42.54c-.068,0-.068,0-.136.068l-6.327,4.15-.34-.476a.732.732,0,0,0-.952-.2l-7.211,4.694h-4.9a.653.653,0,0,0-.612.476l-.885,2.449h-.272l-.884-2.449a.653.653,0,0,0-.612-.476,4.123,4.123,0,0,0-4.15,4.149v5.647H12.608V16.333a1.974,1.974,0,0,1,1.973-1.972H51.519a1.974,1.974,0,0,1,1.973,1.972V37.082Z" fill="#0b7ba1"/>
    </g>
    <g id="Group_1116" data-name="Group 1116">
      <path id="Path_898" data-name="Path 898" d="M50.091,22.184h-8.64a.68.68,0,1,0,0,1.36h8.64a.68.68,0,1,0,0-1.36Z" fill="#0b7ba1"/>
    </g>
    <g id="Group_1117" data-name="Group 1117">
      <path id="Path_899" data-name="Path 899" d="M50.091,26.6H38.118a.681.681,0,0,0,0,1.361H50.159a.642.642,0,0,0,.68-.68A.742.742,0,0,0,50.091,26.6Z" fill="#0b7ba1"/>
    </g>
    <g id="Group_1118" data-name="Group 1118">
      <path id="Path_900" data-name="Path 900" d="M50.091,30.959H32.812a.681.681,0,0,0,0,1.361H50.091a.643.643,0,0,0,.68-.681A.681.681,0,0,0,50.091,30.959Z" fill="#0b7ba1"/>
    </g>
    <g id="Group_1119" data-name="Group 1119">
      <path id="Path_901" data-name="Path 901" d="M21.111,18.918a3.538,3.538,0,1,0,3.538,3.538A3.513,3.513,0,0,0,21.111,18.918Z" fill="#0b7ba1"/>
    </g>
  </g>
</svg>
