<svg xmlns="http://www.w3.org/2000/svg" width="55" height="48" viewBox="0 0 55 48">
  <g id="ic_Online_Lecture_Off" transform="translate(-80 -632)">
    <rect id="ic_Online_Lecture" width="55" height="48" transform="translate(80 632)" fill="rgba(255,255,255,0)"/>
    <g id="ic_Online_Lecture-2" data-name="ic_Online_Lecture" transform="translate(-854 -142)">
      <circle id="Ellipse_82" data-name="Ellipse 82" cx="2.009" cy="2.009" r="2.009" transform="translate(956.849 793.827)" fill="#212c5b"/>
      <path id="Path_1246" data-name="Path 1246" d="M29.69,67.148,28.29,70.6l-.09.226v.158l.158,3.522a.787.787,0,0,0,.768.745.941.941,0,0,0,.542-.2.735.735,0,0,0,.226-.519l.158-3.273.564-1.129v4.854a.549.549,0,0,0,.542.542h4.2a.549.549,0,0,0,.542-.542V68.254l1.264-.045h.09l3.364-.271a.8.8,0,0,0,.745-.722.787.787,0,0,0-.745-.835l-3.477-.113h.09l-3.161-.045V66.2H30.977A1.362,1.362,0,0,0,29.69,67.148Z" transform="translate(925.602 732.819)" fill="#682875"/>
      <path id="Path_1247" data-name="Path 1247" d="M26.136,64.177V51.287a.768.768,0,0,0-.023-.226c-.226.045-.474.045-.7.068h-.971v13.3H17.919a1.042,1.042,0,0,1-1.038.993H14.51a1.042,1.042,0,0,1-1.038-.993H6.925V51.671H10.74a2.688,2.688,0,0,1-.271-1.219A3.026,3.026,0,0,1,10.492,50H7.015a1.867,1.867,0,0,0-1.806,1.919V64.132a1.287,1.287,0,0,0,.023.293H2.5v.293a1.853,1.853,0,0,0,1.806,1.919H27.084a1.867,1.867,0,0,0,1.806-1.919v-.271H26.159A1.1,1.1,0,0,1,26.136,64.177Z" transform="translate(945.5 745.362)" fill="#682875"/>
      <path id="Path_1248" data-name="Path 1248" d="M107.78,23.56a.58.58,0,1,0-.58-.58A.586.586,0,0,0,107.78,23.56Z" transform="translate(862.418 768.722)" fill="#682875"/>
      <path id="Path_1249" data-name="Path 1249" d="M95.28,22.5a.58.58,0,1,0,.58.58A.6.6,0,0,0,95.28,22.5Z" transform="translate(872.785 768.639)" fill="#682875"/>
      <path id="Path_1250" data-name="Path 1250" d="M82.68,22.5a.58.58,0,1,0,.58.58A.586.586,0,0,0,82.68,22.5Z" transform="translate(883.236 768.639)" fill="#682875"/>
      <path id="Path_1251" data-name="Path 1251" d="M76.23,11.572a3.8,3.8,0,0,0,2.644-1.092,3.7,3.7,0,0,0,1.092-2.644A3.735,3.735,0,0,0,76.23,4.1H74.336A3.735,3.735,0,0,0,70.6,7.836v5.545l1.808-1.808Zm-4.845-.085V7.836a2.952,2.952,0,0,1,2.951-2.951H76.23a2.951,2.951,0,1,1,0,5.9H72.084Z" transform="translate(892.774 783.9)" fill="#682875"/>
    </g>
  </g>
</svg>
