<svg xmlns="http://www.w3.org/2000/svg" viewBox="0 0 46.375 35">
  <defs>
    <style>
      .cls-1 {
        fill: #0b7ba1;
      }
    </style>
  </defs>
  <g id="organization_2" transform="translate(-1 -8.675)">
    <path id="Path_44" data-name="Path 44" class="cls-1" d="M20,23.766a8.893,8.893,0,0,0,2.078,2.071,5.8,5.8,0,0,0,3.116,1.121c.074,0,.139.01.213.01a2.23,2.23,0,0,0,.26-.01c4.174-.212,7.4-5.495,7.4-9.929,0-4.606-3.432-8.353-7.661-8.353s-7.68,3.747-7.68,8.353a11.824,11.824,0,0,0,2.17,6.606A1.483,1.483,0,0,0,20,23.766Z" transform="translate(-1.213)"/>
    <path id="Path_45" data-name="Path 45" class="cls-1" d="M36.949,24.257a5.144,5.144,0,0,0,1.28,1.283,3.582,3.582,0,0,0,2.087.7c2.653,0,4.721-3.232,4.721-6.02a4.961,4.961,0,0,0-4.721-5.152,4.963,4.963,0,0,0-4.73,5.152A7.072,7.072,0,0,0,36.9,24.2.264.264,0,0,0,36.949,24.257Z" transform="translate(-2.508 0.065)"/>
    <path id="Path_46" data-name="Path 46" class="cls-1" d="M7.589,24.267A5.239,5.239,0,0,0,8.86,25.54a3.624,3.624,0,0,0,2.087.7c2.662,0,4.721-3.232,4.721-6.02a4.955,4.955,0,0,0-4.721-5.152,4.955,4.955,0,0,0-4.721,5.152A7.133,7.133,0,0,0,7.533,24.2C7.552,24.216,7.57,24.247,7.589,24.267Z" transform="translate(-0.379 0.065)"/>
    <path id="Path_47" data-name="Path 47" class="cls-1" d="M45.319,25.493a6.035,6.035,0,0,1-4.742,2.658,5.069,5.069,0,0,1-1.386-.2,19.818,19.818,0,0,1,4.728,7.594h5.3a.971.971,0,0,0,.927-1.01A10.609,10.609,0,0,0,45.319,25.493Z" transform="translate(-2.769 0.17)"/>
    <path id="Path_48" data-name="Path 48" class="cls-1" d="M11.992,27.94a4.989,4.989,0,0,1-1.425.211,5.338,5.338,0,0,1-3.086-1.014A7.193,7.193,0,0,1,5.819,25.5,10.61,10.61,0,0,0,1,34.53a.971.971,0,0,0,.927,1.01H7.239A20.226,20.226,0,0,1,11.992,27.94Z" transform="translate(0 0.17)"/>
    <path id="Path_49" data-name="Path 49" class="cls-1" d="M30.609,25.986A8.266,8.266,0,0,1,25.12,28.8a3.845,3.845,0,0,1-.388.015c-.079,0-.153,0-.227-.009a7.567,7.567,0,0,1-4.1-1.443,10.32,10.32,0,0,1-1.571-1.373A17.81,17.81,0,0,0,8.435,42.49a.968.968,0,0,0,.927,1.01H40.1a.968.968,0,0,0,.927-1.01,1.349,1.349,0,0,0-.019-.2A17.832,17.832,0,0,0,30.609,25.986Z" transform="translate(-0.539 0.175)"/>
  </g>
</svg>
