<svg xmlns="http://www.w3.org/2000/svg" width="19.813" height="25" viewBox="0 0 19.813 25">
  <g id="Group_38" data-name="Group 38" transform="translate(-1028 -264)">
    <path id="Path_36" data-name="Path 36" d="M22.475,27.547a.472.472,0,0,1-.172.039.545.545,0,0,1-.184-.026.856.856,0,0,1-.2-.092,1.5,1.5,0,0,1-.208-.158,1.526,1.526,0,0,1-.181-.191.874.874,0,0,1-.114-.188.545.545,0,0,1-.045-.183.466.466,0,0,1,.024-.178,1.114,1.114,0,0,1,.274-.4,3.491,3.491,0,0,1,.54-.432,7.325,7.325,0,0,1,.758-.437c.282-.143.592-.282.924-.413l.029-.011.028-.011.028-.011.028-.011-.012.035.038-.015c-.095.285-.2.579-.323.864a8.753,8.753,0,0,1-.384.81,4.177,4.177,0,0,1-.42.644,1.23,1.23,0,0,1-.432.365m8.6-3.716a.488.488,0,0,1-.353,0,1.458,1.458,0,0,1-.409-.232,3.543,3.543,0,0,1-.429-.4,5.811,5.811,0,0,1-.408-.495l.031-.012-.016-.021.022-.009.023-.009.023-.009.023-.009a7.232,7.232,0,0,1,.736-.25,3.665,3.665,0,0,1,.589-.118,1.342,1.342,0,0,1,.425.012.383.383,0,0,1,.241.141.3.3,0,0,1,.047.12.663.663,0,0,1,.005.166,1.426,1.426,0,0,1-.036.21,2.619,2.619,0,0,1-.078.255c-.032.092-.067.175-.1.249a1.528,1.528,0,0,1-.107.193.755.755,0,0,1-.112.137.4.4,0,0,1-.117.08m-5.809-.307,1.175-3.412,1.8,2.279-2.972,1.134m.945-5.107c-.163-.208-.326-.436-.476-.672a6.58,6.58,0,0,1-.4-.724,3.352,3.352,0,0,1-.249-.693,1.162,1.162,0,0,1-.007-.571.534.534,0,0,1,.09-.175.706.706,0,0,1,.158-.148,1.154,1.154,0,0,1,.224-.119,1.938,1.938,0,0,1,.287-.089,1.831,1.831,0,0,1,.289-.046.926.926,0,0,1,.233.011.5.5,0,0,1,.177.066.376.376,0,0,1,.121.121,1.063,1.063,0,0,1,.125.524,3.915,3.915,0,0,1-.06.752,8.7,8.7,0,0,1-.194.87c-.081.3-.176.6-.277.883l-.023-.03-.014.041m-.5-4.151a2.446,2.446,0,0,0-.617.217,1.805,1.805,0,0,0-.431.309,1.608,1.608,0,0,0-.273.353,1.658,1.658,0,0,0-.149.349,1.922,1.922,0,0,0-.074.607,2.841,2.841,0,0,0,.11.681,4.47,4.47,0,0,0,.288.742,7,7,0,0,0,.455.79c.081.122.162.238.242.348s.157.211.23.3.142.178.206.253.119.14.168.2l-1.525,4.445-.121.041-.139.048L23.931,24l-.17.064a11.956,11.956,0,0,0-1.207.532,7.033,7.033,0,0,0-.961.585,3.843,3.843,0,0,0-.683.628,2.09,2.09,0,0,0-.382.658,1.447,1.447,0,0,0-.079.431,1.231,1.231,0,0,0,.059.408,1.41,1.41,0,0,0,.2.382,2.143,2.143,0,0,0,.718.619,1.415,1.415,0,0,0,.4.135,1.259,1.259,0,0,0,.4.007,1.483,1.483,0,0,0,.4-.118,2.015,2.015,0,0,0,.491-.319,3.316,3.316,0,0,0,.464-.5,5.644,5.644,0,0,0,.439-.687,9.2,9.2,0,0,0,.416-.87c.061-.146.118-.289.17-.428s.1-.272.144-.4.082-.242.116-.347.062-.2.086-.279l3.763-1.493c.035.051.078.111.127.177s.1.137.163.213.124.153.193.232.141.158.217.236a3.718,3.718,0,0,0,.481.423,1.973,1.973,0,0,0,.445.247,1.142,1.142,0,0,0,.413.078.949.949,0,0,0,.383-.084,1.169,1.169,0,0,0,.279-.176,1.6,1.6,0,0,0,.247-.264,2.361,2.361,0,0,0,.217-.352,3.628,3.628,0,0,0,.187-.44,3.529,3.529,0,0,0,.13-.454,2.1,2.1,0,0,0,.047-.394,1.259,1.259,0,0,0-.036-.334.874.874,0,0,0-.12-.273.762.762,0,0,0-.341-.277,1.365,1.365,0,0,0-.534-.093,3.316,3.316,0,0,0-.736.1,7.566,7.566,0,0,0-.953.3l-.138.054-.127.051-.114.048-.1.043L26.8,19.126c.031-.078.066-.17.1-.274s.08-.22.123-.345.087-.26.131-.4.088-.289.13-.44a9.317,9.317,0,0,0,.209-.932,5.336,5.336,0,0,0,.076-.793,2.9,2.9,0,0,0-.059-.653,1.644,1.644,0,0,0-.2-.509,1.187,1.187,0,0,0-.2-.252,1.116,1.116,0,0,0-.316-.208,1.362,1.362,0,0,0-.455-.107,2.224,2.224,0,0,0-.623.054" transform="translate(1010.852 253.757)" fill="#666"/>
    <path id="Path_37" data-name="Path 37" d="M39.715,47a.564.564,0,0,0-.328-.089h-.178v.7a1.347,1.347,0,0,0,.178.008.561.561,0,0,0,.334-.089.308.308,0,0,0,.123-.267A.293.293,0,0,0,39.715,47Z" transform="translate(1000.174 235.146)" fill="#666"/>
    <path id="Path_38" data-name="Path 38" d="M31.237,21.292V9.915l-4.91-4.91H14.822a2.035,2.035,0,0,0-2.033,2.033V27.972a2.035,2.035,0,0,0,2.033,2.033H29.2a2.035,2.035,0,0,0,2.033-2.033V26.487H32.6v-5.2Zm-1.355,6.68a.678.678,0,0,1-.678.678H14.822a.678.678,0,0,1-.678-.678V7.038a.678.678,0,0,1,.678-.678H25.64V10.6h4.242v10.69h-8.2v5.2h8.2v1.485Zm-1.127-4.1a1.515,1.515,0,0,1-.1.573,1.327,1.327,0,0,1-.286.442,1.355,1.355,0,0,1-.483.316,1.763,1.763,0,0,1-.651.113H25.992V22.465H27.23a1.674,1.674,0,0,1,.829.191,1.323,1.323,0,0,1,.526.529A1.4,1.4,0,0,1,28.755,23.869Zm-3.114-.461a.741.741,0,0,1-.089.362.911.911,0,0,1-.235.277,1.5,1.5,0,0,1-.971.291h-.174v.975h-.894V22.465h1.027a1.6,1.6,0,0,1,1.044.289A.809.809,0,0,1,25.64,23.407Zm5.413-.315H29.982v.574h.991v.526h-.991v1.12h-.89V22.466h1.962v.627Z" transform="translate(1015.212 258.995)" fill="#666"/>
    <path id="Path_39" data-name="Path 39" d="M46.142,47.313a.574.574,0,0,0-.263-.056h-.323v1.359h.323a.556.556,0,0,0,.206-.037.5.5,0,0,0,.163-.1.661.661,0,0,0,.114-.144.792.792,0,0,0,.075-.173.9.9,0,0,0,.037-.251.713.713,0,0,0-.09-.363A.577.577,0,0,0,46.142,47.313Z" transform="translate(996.562 234.948)" fill="#666"/>
  </g>
</svg>
