<svg xmlns="http://www.w3.org/2000/svg" width="41.428" height="41.428" viewBox="0 0 41.428 41.428">
  <g id="QuestionBankWorkflow_icon" transform="translate(0 -1)">
    <g id="Group_1343" data-name="Group 1343" transform="translate(2.261 5.453)">
      <path id="Path_931" data-name="Path 931" d="M38.332,23.8a5.242,5.242,0,0,0-5.447,4.722.818.818,0,0,0,.819.913h1.291a.784.784,0,0,0,.787-.693,2.338,2.338,0,0,1,2.55-2.078,2.346,2.346,0,0,1,2.235,1.2,1.874,1.874,0,0,1-.126,1.983,4.528,4.528,0,0,1-1.228,1.133A4.3,4.3,0,0,0,37.1,34.725a.828.828,0,0,0,.819.882h1.259A.822.822,0,0,0,40,34.851a1.539,1.539,0,0,1,.882-1.511,7.328,7.328,0,0,0,1.889-1.795,4.782,4.782,0,0,0,.378-5.006A5.3,5.3,0,0,0,38.332,23.8Z" transform="translate(-19.311 -14.287)" fill="#fff"/>
      <circle id="Ellipse_5" data-name="Ellipse 5" cx="1.763" cy="1.763" r="1.763" transform="translate(17.446 22.484)" fill="#fff"/>
    </g>
    <g id="noun_update_598351" transform="translate(0 1)">
      <path id="Path_934" data-name="Path 934" d="M1.295,22.008A1.3,1.3,0,0,1,0,20.714,20.712,20.712,0,0,1,35.36,6.068,1.294,1.294,0,0,1,33.529,7.9,18.124,18.124,0,0,0,2.589,20.714,1.3,1.3,0,0,1,1.295,22.008Z" fill="#fff"/>
      <path id="Path_935" data-name="Path 935" d="M29.411,10.357H22.295a1.295,1.295,0,0,1,0-2.589h6.473V1.295a1.295,1.295,0,1,1,2.589,0V8.411A1.948,1.948,0,0,1,29.411,10.357Z" transform="translate(6.187)" fill="#fff"/>
      <path id="Path_936" data-name="Path 936" d="M19.419,37.008A20.569,20.569,0,0,1,4.773,30.941,1.294,1.294,0,0,1,6.6,29.11a18.124,18.124,0,0,0,30.94-12.815,1.295,1.295,0,1,1,2.589,0A20.738,20.738,0,0,1,19.419,37.008Z" transform="translate(1.294 4.419)" fill="#fff"/>
      <path id="Path_937" data-name="Path 937" d="M4.295,34.357A1.294,1.294,0,0,1,3,33.062V25.946A1.948,1.948,0,0,1,4.946,24h7.116a1.295,1.295,0,1,1,0,2.589H5.589v6.473A1.294,1.294,0,0,1,4.295,34.357Z" transform="translate(0.884 7.071)" fill="#fff"/>
    </g>
  </g>
</svg>
