<svg id="quetionbank_icon" xmlns="http://www.w3.org/2000/svg" width="42.428" height="42.428" viewBox="0 0 42.428 42.428">
  <path id="Path_930" data-name="Path 930" d="M23.714,2.5A21.214,21.214,0,1,0,44.928,23.714,21.233,21.233,0,0,0,23.714,2.5Zm0,38.363a17.15,17.15,0,1,1,17.15-17.15A17.154,17.154,0,0,1,23.714,40.863Z" transform="translate(-2.5 -2.5)" fill="#fff"/>
  <path id="Path_931" data-name="Path 931" d="M40.614,23.8a7.436,7.436,0,0,0-7.726,6.7,1.16,1.16,0,0,0,1.161,1.3H35.88A1.112,1.112,0,0,0,37,30.812a3.317,3.317,0,0,1,3.618-2.948,3.327,3.327,0,0,1,3.171,1.7,2.659,2.659,0,0,1-.179,2.814,6.423,6.423,0,0,1-1.742,1.608A6.1,6.1,0,0,0,38.872,39.3a1.175,1.175,0,0,0,1.161,1.25H41.82a1.166,1.166,0,0,0,1.161-1.072,2.183,2.183,0,0,1,1.25-2.144,10.4,10.4,0,0,0,2.68-2.546,6.783,6.783,0,0,0,.536-7.1A7.513,7.513,0,0,0,40.614,23.8Z" transform="translate(-19.311 -14.287)" fill="#fff"/>
  <circle id="Ellipse_5" data-name="Ellipse 5" cx="2.501" cy="2.501" r="2.501" transform="translate(19.07 27.913)" fill="#fff"/>
</svg>
