<svg xmlns="http://www.w3.org/2000/svg" viewBox="0 0 22 28">
  <defs>
    <style>
      .cls-1 {
        fill: #fff;
        stroke: #ddd;
      }

      .cls-2 {
        fill: #373a3c;
      }

      .cls-3 {
        stroke: none;
      }

      .cls-4 {
        fill: none;
      }
    </style>
  </defs>
  <g id="selection_small_arrow" transform="translate(-224 -178)">
    <g id="Rectangle_168" data-name="Rectangle 168" class="cls-1" transform="translate(224 178)">
      <path class="cls-3" d="M0,0H18a4,4,0,0,1,4,4V24a4,4,0,0,1-4,4H0a0,0,0,0,1,0,0V0A0,0,0,0,1,0,0Z"/>
      <path class="cls-4" d="M1,.5H18A3.5,3.5,0,0,1,21.5,4V24A3.5,3.5,0,0,1,18,27.5H1A.5.5,0,0,1,.5,27V1A.5.5,0,0,1,1,.5Z"/>
    </g>
    <path id="Path_10" data-name="Path 10" class="cls-2" d="M3106.947,2498h6.09l-3.186,2.94Z" transform="translate(-2874.947 -2307)"/>
  </g>
</svg>
