<svg xmlns="http://www.w3.org/2000/svg" width="26" height="26" viewBox="0 0 26 26"><defs><style>.a{fill:#682875;}</style></defs><g transform="translate(-5 -957.362)"><path class="a" d="M19.065,957.364a.867.867,0,0,0-.776.867v1.047a6.434,6.434,0,0,0-.668.235l-.74-.74a.867.867,0,0,0-1.228,0l-2.022,2.022a.867.867,0,0,0-.063,1.156l.812,1.02c-.068.149-.136.307-.19.46h-1.1a.867.867,0,0,0-.867.867v2.889a.867.867,0,0,0,.867.867h1.056a6.454,6.454,0,0,0,.235.659l-.749.749a.867.867,0,0,0,0,1.219l1.9,1.9c-.241-.056-.487-.109-.74-.153a27.915,27.915,0,0,0-4.306-.325v-.3a.867.867,0,0,0-.867-.867H5.867a.857.857,0,0,0-.09,0,.867.867,0,0,0-.776.867V979.9a.867.867,0,0,0,.867.866H9.622a.866.866,0,0,0,.433-.108A12.13,12.13,0,0,0,18,983.362c2.475,0,5.266-1.228,7.52-2.41a39.586,39.586,0,0,0,3.936-2.365c.006,0,.012-.005.018-.009a3.918,3.918,0,0,0,1.11-.966A2.512,2.512,0,0,0,31,976.141a1.86,1.86,0,0,0-.542-1.291,2.334,2.334,0,0,0-.975-.551,4.558,4.558,0,0,0-1.372-.181,5.052,5.052,0,0,0-2.212.659c-.242.118-.251.134-.433.235a2.292,2.292,0,0,0-1.977-1.183h-.794a.867.867,0,0,0,.217-.578V972.2a6.434,6.434,0,0,0,.668-.235l.74.74a.867.867,0,0,0,1.228,0l2.022-2.022a.867.867,0,0,0,0-1.219l-.749-.749a6.456,6.456,0,0,0,.235-.659h1.056a.867.867,0,0,0,.867-.866V964.3a.867.867,0,0,0-.867-.867h-1.1c-.054-.153-.122-.311-.19-.46l.813-1.02a.867.867,0,0,0-.063-1.156l-2.022-2.022a.867.867,0,0,0-1.228,0l-.74.74a6.406,6.406,0,0,0-.668-.235V958.23a.867.867,0,0,0-.867-.867H19.156a.857.857,0,0,0-.09,0Zm.957,1.733h1.156v.867a.867.867,0,0,0,.659.839,6.753,6.753,0,0,1,1.5.479.867.867,0,0,0,1.056-.135l.542-.542.867.867-.677.84a.866.866,0,0,0-.063.984,3.679,3.679,0,0,1,.478,1.21.867.867,0,0,0,.84.659h.867v1.156h-.867a.867.867,0,0,0-.84.65,6.743,6.743,0,0,1-.478,1.5.867.867,0,0,0,.126,1.056l.542.551-.794.794-.542-.542a.867.867,0,0,0-1.056-.135,6.742,6.742,0,0,1-1.5.478.867.867,0,0,0-.659.849v.867H20.022v-.867a.867.867,0,0,0-.659-.849,6.742,6.742,0,0,1-1.5-.478.867.867,0,0,0-1.056.135l-.542.542-.794-.794.542-.551a.867.867,0,0,0,.126-1.056,6.747,6.747,0,0,1-.478-1.5.867.867,0,0,0-.84-.65h-.867v-1.156h.867a.867.867,0,0,0,.84-.659,3.679,3.679,0,0,1,.478-1.21.867.867,0,0,0-.063-.984l-.677-.84.867-.867.542.542a.867.867,0,0,0,1.056.135,6.74,6.74,0,0,1,1.5-.479.867.867,0,0,0,.659-.84Zm.578,2.889a3.755,3.755,0,1,0,3.756,3.755A3.769,3.769,0,0,0,20.6,961.985Zm0,1.733a2.022,2.022,0,1,1-2.022,2.022A2.009,2.009,0,0,1,20.6,963.719Zm-2.979,8.242a6.434,6.434,0,0,0,.668.235v1.056a.867.867,0,0,0,.226.578H18.3a5.67,5.67,0,0,0-1.7-.93.868.868,0,0,0,.28-.2Zm-10.888.713H8.756v.235c0,.018,0,.036,0,.054v6.066H6.733Zm3.756,1.174a27.048,27.048,0,0,1,4.008.289,5.586,5.586,0,0,1,2.889,1.165.867.867,0,0,0,.614.262h5.489a.578.578,0,1,1,0,1.156H15.111a.867.867,0,1,0,0,1.733h8.378a2.308,2.308,0,0,0,2.158-1.562l.036-.018s.427-.266.975-.532a5.328,5.328,0,0,1,1.453-.488,3.356,3.356,0,0,1,.867.1.844.844,0,0,1,.28.135c.025.025.009-.018.009.054,0,.337-.028.382-.09.469a3.07,3.07,0,0,1-.677.542l-.018.009a39.425,39.425,0,0,1-3.774,2.257c-2.151,1.128-4.849,2.212-6.708,2.212-3.916,0-5.142-1.148-7.511-2.771Z" transform="translate(0 0)"/></g></svg>