<svg xmlns="http://www.w3.org/2000/svg" width="42" height="42" viewBox="0 0 42 42"><defs><style>.a{fill:#fff;}</style></defs><g transform="translate(-5 -957.362)"><path class="a" d="M27.721,957.364a1.4,1.4,0,0,0-1.254,1.4v1.692a10.391,10.391,0,0,0-1.079.379l-1.2-1.2a1.4,1.4,0,0,0-1.983,0l-3.267,3.266a1.4,1.4,0,0,0-.1,1.867l1.312,1.648c-.11.241-.22.5-.306.744H18.067a1.4,1.4,0,0,0-1.4,1.4v4.667a1.4,1.4,0,0,0,1.4,1.4h1.706a10.418,10.418,0,0,0,.379,1.065l-1.21,1.21a1.4,1.4,0,0,0,0,1.969l3.077,3.077c-.389-.091-.787-.177-1.2-.248a45.1,45.1,0,0,0-6.956-.525V980.7a1.4,1.4,0,0,0-1.4-1.4H6.4a1.453,1.453,0,0,0-.146,0A1.4,1.4,0,0,0,5,980.7v13.066a1.4,1.4,0,0,0,1.4,1.4h6.067a1.4,1.4,0,0,0,.7-.175c3.408,2.343,6.426,4.375,12.833,4.375,4,0,8.506-1.983,12.148-3.894a63.882,63.882,0,0,0,6.358-3.821c.01-.007.02-.008.029-.015a6.331,6.331,0,0,0,1.794-1.56A4.058,4.058,0,0,0,47,987.7a3.005,3.005,0,0,0-.875-2.085,3.772,3.772,0,0,0-1.575-.89,7.362,7.362,0,0,0-2.217-.292,8.161,8.161,0,0,0-3.573,1.064c-.391.191-.406.216-.7.379a3.7,3.7,0,0,0-3.194-1.91H33.583a1.4,1.4,0,0,0,.35-.933v-1.706a10.39,10.39,0,0,0,1.079-.379l1.2,1.2a1.4,1.4,0,0,0,1.983,0l3.267-3.267a1.4,1.4,0,0,0,0-1.969l-1.21-1.21a10.429,10.429,0,0,0,.379-1.065h1.706a1.4,1.4,0,0,0,1.4-1.4v-4.667a1.4,1.4,0,0,0-1.4-1.4H40.554c-.087-.247-.2-.5-.306-.744l1.312-1.648a1.4,1.4,0,0,0-.1-1.867l-3.267-3.266a1.4,1.4,0,0,0-1.983,0l-1.2,1.2a10.362,10.362,0,0,0-1.079-.379v-1.692a1.4,1.4,0,0,0-1.4-1.4H27.867a1.384,1.384,0,0,0-.146,0Zm1.546,2.8h1.867v1.4A1.4,1.4,0,0,0,32.2,962.92a10.9,10.9,0,0,1,2.421.773,1.4,1.4,0,0,0,1.706-.219l.875-.875,1.4,1.4-1.094,1.356a1.4,1.4,0,0,0-.1,1.589,5.942,5.942,0,0,1,.773,1.954,1.4,1.4,0,0,0,1.356,1.064h1.4v1.867h-1.4a1.4,1.4,0,0,0-1.356,1.05A10.891,10.891,0,0,1,37.4,975.3a1.4,1.4,0,0,0,.2,1.706l.875.89L37.2,979.18l-.875-.875a1.4,1.4,0,0,0-1.706-.219,10.888,10.888,0,0,1-2.421.773,1.4,1.4,0,0,0-1.065,1.371v1.4H29.267v-1.4a1.4,1.4,0,0,0-1.065-1.371,10.888,10.888,0,0,1-2.421-.773,1.4,1.4,0,0,0-1.706.219l-.875.875L21.917,977.9l.875-.89A1.4,1.4,0,0,0,23,975.3a10.9,10.9,0,0,1-.773-2.421,1.4,1.4,0,0,0-1.356-1.05h-1.4v-1.867h1.4a1.4,1.4,0,0,0,1.356-1.064A5.942,5.942,0,0,1,23,966.945a1.4,1.4,0,0,0-.1-1.59L21.8,964l1.4-1.4.875.875a1.4,1.4,0,0,0,1.706.219,10.892,10.892,0,0,1,2.421-.773,1.4,1.4,0,0,0,1.065-1.356Zm.933,4.667a6.066,6.066,0,1,0,6.067,6.066A6.088,6.088,0,0,0,30.2,964.831Zm0,2.8a3.267,3.267,0,1,1-3.267,3.267A3.246,3.246,0,0,1,30.2,967.63Zm-4.812,13.314a10.39,10.39,0,0,0,1.079.379v1.706a1.4,1.4,0,0,0,.365.933h-.35a9.157,9.157,0,0,0-2.742-1.5,1.4,1.4,0,0,0,.452-.321ZM7.8,982.1h3.267v.379q0,.044,0,.087v9.8H7.8Zm6.067,1.9a43.675,43.675,0,0,1,6.475.467,9.023,9.023,0,0,1,4.667,1.881,1.4,1.4,0,0,0,.992.423h8.867a.933.933,0,1,1,0,1.867H21.333a1.4,1.4,0,1,0,0,2.8H34.867a3.729,3.729,0,0,0,3.485-2.523l.058-.029s.69-.429,1.575-.86a8.61,8.61,0,0,1,2.348-.787,5.418,5.418,0,0,1,1.4.16,1.363,1.363,0,0,1,.452.219c.041.04.015-.029.015.088,0,.544-.045.617-.146.758a4.959,4.959,0,0,1-1.094.875l-.029.015a63.671,63.671,0,0,1-6.1,3.646C33.361,994.812,29,996.562,26,996.562c-6.326,0-8.306-1.855-12.133-4.477v-8.093Z" transform="translate(0 0)"/></g></svg>