<svg xmlns="http://www.w3.org/2000/svg" viewBox="0 0 47.524 40">
  <defs>
    <style>
      .cls-1 {
        fill: #0b7ba1;
      }
    </style>
  </defs>
  <g id="settings_icon_blue" transform="translate(0.019 0.015)">
    <path id="Path_882" data-name="Path 882" class="cls-1" d="M29.865,13.039,29.333,10.8a.633.633,0,0,0-.639-.533h-2.13a.736.736,0,0,1-.586-.32L24.806,7.98a.679.679,0,0,1,0-.639l1.065-1.864a.6.6,0,0,0-.16-.8L23.9,3.081a.644.644,0,0,0-.8-.053L21.4,4.306a.566.566,0,0,1-.639.053l-2.077-.905a.579.579,0,0,1-.373-.533L18.043.792a.678.678,0,0,0-.586-.586L15.114-.007a.646.646,0,0,0-.692.426l-.639,2.024a.65.65,0,0,1-.479.426l-2.237.479a.611.611,0,0,1-.639-.213l-1.491-1.6a.659.659,0,0,0-.746-.16c-.373.16-.852.426-1.172.586a10.8,10.8,0,0,0-.959.692.659.659,0,0,0-.213.746l.692,2.077a.68.68,0,0,1-.107.639l-1.491,1.7a.634.634,0,0,1-.586.213L2.334,7.821a.61.61,0,0,0-.692.373L.683,10.377a.629.629,0,0,0,.16.8l1.7,1.225a.535.535,0,0,1,.266.586l-.16,2.29a.641.641,0,0,1-.373.533l-1.917.905a.678.678,0,0,0-.373.746L.524,19.8a.55.55,0,0,0,.639.479l2.13-.053a.736.736,0,0,1,.586.32l1.172,1.97a.679.679,0,0,1,0,.639L4.038,25.021a.6.6,0,0,0,.16.8l1.811,1.544a.579.579,0,0,0,.8,0l1.7-1.278a.558.558,0,0,1,.639-.053l2.077.905a.579.579,0,0,1,.373.533l.266,2.13a.678.678,0,0,0,.586.586l2.343.213a.687.687,0,0,0,.692-.479l.639-2.024a.65.65,0,0,1,.479-.426l2.237-.533a.611.611,0,0,1,.639.213l1.491,1.6a.659.659,0,0,0,.746.16,10.725,10.725,0,0,0,1.118-.586c.266-.16.692-.479,1.012-.692a.659.659,0,0,0,.213-.746l-.692-2.077a.68.68,0,0,1,.107-.639l1.491-1.7a.634.634,0,0,1,.586-.213l2.077.426a.61.61,0,0,0,.692-.373l.959-2.183a.679.679,0,0,0-.213-.8L27.309,18.1a.763.763,0,0,1-.266-.586l.213-2.237a.641.641,0,0,1,.373-.533l1.917-.905A.973.973,0,0,0,29.865,13.039Zm-8.414,2.237a6.488,6.488,0,0,1-6.5,6.5,10.34,10.34,0,0,1-1.278-.107,6.548,6.548,0,0,1-3.728-2.183,6.847,6.847,0,0,1-1.544-4.1,6.6,6.6,0,0,1,1.97-4.739,6.353,6.353,0,0,1,4.58-1.864h.213a6.575,6.575,0,0,1,4.313,1.811,6.379,6.379,0,0,1,1.97,4.207Z" transform="translate(0 0)"/>
    <path id="Path_883" data-name="Path 883" class="cls-1" d="M70.3,43.566l-.373-1.6a.511.511,0,0,0-.479-.373H67.905a.657.657,0,0,1-.426-.213L66.627,40a.4.4,0,0,1,0-.479l.746-1.331a.486.486,0,0,0-.106-.586l-1.278-1.118a.418.418,0,0,0-.586,0l-1.225.905a.5.5,0,0,1-.479.053L62.207,36.8a.4.4,0,0,1-.266-.373l-.16-1.544a.578.578,0,0,0-.426-.426l-1.7-.16a.466.466,0,0,0-.479.32L58.8,36.111a.467.467,0,0,1-.373.32l-1.6.373a.357.357,0,0,1-.426-.16l-1.065-1.172a.424.424,0,0,0-.533-.107c-.266.107-.639.32-.852.426a5.4,5.4,0,0,0-.692.479.482.482,0,0,0-.16.533l.533,1.491a.543.543,0,0,1-.106.479L52.462,40a.6.6,0,0,1-.426.16l-1.544-.32a.467.467,0,0,0-.533.266l-.692,1.6a.5.5,0,0,0,.16.586l1.225.905a.484.484,0,0,1,.213.426l-.16,1.6a.4.4,0,0,1-.266.373l-1.385.639a.467.467,0,0,0-.266.533l.373,1.651a.511.511,0,0,0,.479.373h1.544A.657.657,0,0,1,51.61,49l.852,1.385a.4.4,0,0,1,0,.479l-.746,1.331a.486.486,0,0,0,.107.586L53.1,53.9a.418.418,0,0,0,.586,0l1.225-.905a.5.5,0,0,1,.479-.053l1.491.639a.4.4,0,0,1,.266.373l.16,1.491c0,.213.213.373.426.426l1.7.16a.466.466,0,0,0,.479-.32l.479-1.491a.48.48,0,0,1,.32-.32l1.6-.373a.357.357,0,0,1,.426.16L63.8,54.855a.424.424,0,0,0,.533.107,3.8,3.8,0,0,0,.8-.426,5.85,5.85,0,0,0,.746-.479.482.482,0,0,0,.16-.533l-.533-1.491a.543.543,0,0,1,.106-.479l1.065-1.225a.6.6,0,0,1,.426-.16l1.491.266a.467.467,0,0,0,.533-.266l.692-1.6a.5.5,0,0,0-.16-.586l-1.225-.852a.657.657,0,0,1-.213-.426l.16-1.6a.4.4,0,0,1,.266-.373l1.385-.639A.467.467,0,0,0,70.3,43.566Zm-6.124,1.6A4.636,4.636,0,0,1,59.545,49.8a2.638,2.638,0,0,1-.905-.107,4.61,4.61,0,0,1-3.728-4.473,4.636,4.636,0,0,1,4.633-4.686h.16a4.858,4.858,0,0,1,3.089,1.278,4.6,4.6,0,0,1,1.385,2.982Z" transform="translate(-22.81 -16.042)"/>
  </g>
</svg>
