<svg xmlns="http://www.w3.org/2000/svg" width="55" height="48" viewBox="0 0 55 48">
  <g id="Group_1" data-name="Group 1" transform="translate(-471 -315)">
    <rect id="Rectangle_1" data-name="Rectangle 1" width="55" height="48" transform="translate(471 315)" fill="none"/>
    <path id="user_icon_Dark_48" d="M153.15,399.217a12.019,12.019,0,0,0-8.038-11.325,7.491,7.491,0,1,0-7.91,0,12.018,12.018,0,0,0-8.052,11.33c0,.108,0,.215.006.322a.96.96,0,0,0-.006.111v7.243a1,1,0,0,0,1,1h22.006a1,1,0,0,0,1-1V399.65a.949.949,0,0,0-.006-.11C153.147,399.432,153.15,399.323,153.15,399.217Zm-17.486-17.678a5.5,5.5,0,1,1,5.5,5.5,5.5,5.5,0,0,1-5.5-5.5Zm15.493,18.255v6.1H131.144v-6.1a1.007,1.007,0,0,0,.01-.185c-.005-.131-.01-.263-.01-.4a10.006,10.006,0,0,1,20.012,0c0,.132,0,.264-.011.394a.971.971,0,0,0,.011.183Z" transform="translate(357.85 -52.035)" fill="#682875"/>
  </g>
</svg>
