<svg xmlns="http://www.w3.org/2000/svg" width="55" height="48" viewBox="0 0 55 48">
  <g id="ic_student_manage" transform="translate(0 -218.5)">
    <rect id="Rectangle_2" data-name="Rectangle 2" width="55" height="48" transform="translate(0 218.5)" fill="rgba(255,255,255,0)"/>
    <path id="Shape_6" data-name="Shape 6" d="M28.976,155v-2h-2a1,1,0,1,1,0-2h4.007a2,2,0,0,0,1.994-1.993v-2a1,1,0,0,1,1-1h1v-4a8,8,0,0,0-16,0v1a8.815,8.815,0,0,0,1.773,5.366.868.868,0,0,1,.06.114.911.911,0,0,1,.1.187,78.3,78.3,0,0,0,.067.333v6a1,1,0,1,1-2,0v-5.674a10.852,10.852,0,0,1-2-6.326v-1a10,10,0,0,1,20,0v4a2.005,2.005,0,0,1-2,2h0v1A4,4,0,0,1,30.983,153h-.007v2a1,1,0,1,1-2,0Zm-1.469-10.575A1.926,1.926,0,0,1,26.977,143a1,1,0,0,1,2-.017A6.762,6.762,0,0,0,29.7,143l.272,0h.273a7.221,7.221,0,0,0,.727-.019,1,1,0,0,1,2,.018,1.926,1.926,0,0,1-.531,1.425,2.609,2.609,0,0,1-1.967.578l-.245,0H29.72l-.284,0A2.57,2.57,0,0,1,27.508,144.425Z" transform="translate(0 98)" fill="#682875" stroke="rgba(0,0,0,0)" stroke-width="1"/>
  </g>
</svg>
