<svg xmlns="http://www.w3.org/2000/svg" width="31.511" height="33.275" viewBox="0 0 31.511 33.275"><defs><style>.a{fill:#fff;}</style></defs><g transform="translate(-979.503 -1242.501)"><path class="a" d="M33.173,8.863l1.849,1.849a.616.616,0,0,0,.876,0l1.849-1.849a.616.616,0,0,0-.87-.87l-.8.8V4.106h4.683l-.8.8a.616.616,0,1,0,.87.87L42.68,3.924a.616.616,0,0,0,0-.878L40.832,1.2a.616.616,0,0,0-.87.87l.8.808H35.465a.616.616,0,0,0-.616.616v5.3l-.8-.8a.617.617,0,0,0-.876.87Z" transform="translate(946.506 1241.46)"/><path class="a" d="M22.822,16.238a8.451,8.451,0,1,0-12.29,0C6.308,18.595,4,23.587,4,30.526v1.056H29.353V30.526C29.353,23.586,27.047,18.595,22.822,16.238ZM12.346,17.7a8.368,8.368,0,0,0,2.244.935,2.3,2.3,0,0,0-.026.271,2.111,2.111,0,0,0,.945,1.759l-.573,4.018L11.62,18.05c.232-.127.474-.243.725-.351ZM18.42,24.68l-.573-4.017a1.99,1.99,0,0,0,.918-2.03,8.388,8.388,0,0,0,2.244-.935c.246.108.493.226.727.351ZM16.677,4.116a6.338,6.338,0,1,1-6.338,6.338,6.338,6.338,0,0,1,6.338-6.338Zm-6.8,15.178,5.09,10.176H6.132C6.264,25.9,7.123,21.836,9.879,19.293Zm8.5,10.176,5.09-10.176c2.756,2.541,3.615,6.6,3.747,10.176Z" transform="translate(981.661 1244.194)"/></g></svg>