<svg xmlns="http://www.w3.org/2000/svg" width="30" height="30" viewBox="0 0 30 30">
  <g id="Group_1" data-name="Group 1" transform="translate(-908 -289)">
    <rect id="Rectangle_1" data-name="Rectangle 1" width="30" height="30" transform="translate(908 289)" fill="none"/>
    <path id="Layer_2" data-name="Layer 2" d="M9.332,3.436a4.19,4.19,0,0,1,4.039,5.481l2.6,2.6a10.013,10.013,0,0,0,2.7-3.843A10.043,10.043,0,0,0,6.244,1.8L8.085,3.64a4.361,4.361,0,0,1,1.247-.2ZM2.053,0,.857,1.2,3.131,3.478A9.958,9.958,0,0,0,0,7.678a10.034,10.034,0,0,0,9.332,6.363,10.083,10.083,0,0,0,3.657-.7l2.91,2.91,1.2-1.2ZM9.332,11.92A4.243,4.243,0,0,1,5.09,7.679a4.167,4.167,0,0,1,.416-1.817L6.838,7.194a2.913,2.913,0,0,0-.051.484,2.542,2.542,0,0,0,2.545,2.545,2.287,2.287,0,0,0,.484-.059L11.148,11.5a4.083,4.083,0,0,1-1.816.424Zm2.52-4.52a2.519,2.519,0,0,0-2.24-2.24Z" transform="translate(914 296)" fill="#9d9d9c"/>
  </g>
</svg>
