<svg xmlns="http://www.w3.org/2000/svg" width="51.2" height="32" viewBox="0 0 51.2 32">
  <g id="ic_scorescard" transform="translate(4025.965 -1675.5)">
    <g id="Group_3277" data-name="Group 3277" transform="translate(-4025.965 1675.5)">
      <g id="Group_3276" data-name="Group 3276" transform="translate(0)">
        <path id="Path_1278" data-name="Path 1278" d="M-557.222,289.242a4.84,4.84,0,0,1-4.835,4.836h-40.107A4.841,4.841,0,0,1-607,289.242V268.336a4.84,4.84,0,0,1,4.836-4.836h40.107a4.84,4.84,0,0,1,4.835,4.836Zm-2.133-20.764a3.49,3.49,0,0,0-3.484-3.484H-602.8a3.49,3.49,0,0,0-3.484,3.484v20.764a3.49,3.49,0,0,0,3.484,3.484h39.964a3.49,3.49,0,0,0,3.484-3.484Z" transform="translate(607.711 -262.86)" fill="#fff"/>
        <path id="Path_1279" data-name="Path 1279" d="M-556.8,289.053a5.554,5.554,0,0,1-5.547,5.547h-40.107A5.554,5.554,0,0,1-608,289.053V268.147a5.554,5.554,0,0,1,5.547-5.547h40.107a5.554,5.554,0,0,1,5.547,5.547Zm-5.973,4.053h0a3.852,3.852,0,0,0,3.84-4.124h0A3.854,3.854,0,0,1-562.773,293.107Zm-39.964-29.156c-2.276,0-3.84,2.062-3.84,4.409v20.622a3.894,3.894,0,0,0,3.84,4.124h0a3.894,3.894,0,0,1-3.84-4.124V268.36a4.194,4.194,0,0,1,3.84-4.409h39.965c2.276,0,3.84,2.133,3.84,4.409h0c0-2.276-1.564-4.409-3.84-4.409Zm43.093,4.267a2.777,2.777,0,0,0-2.773-2.773h-39.893a2.777,2.777,0,0,0-2.773,2.773v20.693a2.777,2.777,0,0,0,2.773,2.773h39.893a2.777,2.777,0,0,0,2.773-2.773Z" transform="translate(608 -262.6)" fill="#fff"/>
      </g>
    </g>
    <g id="Group_3279" data-name="Group 3279" transform="translate(-4024.543 1687.518)">
      <g id="Group_3278" data-name="Group 3278" transform="translate(0 0)">
        <path id="Path_1280" data-name="Path 1280" d="M-606,279.5v14.364a4.221,4.221,0,0,0,4.338,4.124h41.316a3.941,3.941,0,0,0,4.053-4.124V279.5Zm28.444,13.511h-27.022v-2.133h27.022Zm7.751-10.6,2.2,4.409,4.835.711-3.484,3.413.853,4.836-4.338-2.276-4.338,2.276.853-4.836-3.484-3.413,4.836-.711Z" transform="translate(606 -279.5)" fill="#fff"/>
      </g>
    </g>
    <g id="Group_3284" data-name="Group 3284" transform="translate(-4020.845 1680.264)">
      <g id="Group_3280" data-name="Group 3280" transform="translate(0 0.142)">
        <path id="Path_1281" data-name="Path 1281" d="M-596.6,271.207c-.071-.142-.071-.284-.142-.427a.71.71,0,0,0-.284-.356c-.142-.071-.284-.213-.427-.213a1.386,1.386,0,0,0-.569-.071,1.434,1.434,0,0,0-.782.213,1.918,1.918,0,0,0-.569.5,2.129,2.129,0,0,0-.284.711,2.917,2.917,0,0,0-.071.782,2.667,2.667,0,0,0,.071.782,2.129,2.129,0,0,0,.284.711,1.319,1.319,0,0,0,.569.5,1.433,1.433,0,0,0,.782.213,1.34,1.34,0,0,0,.569-.142c.142-.071.284-.213.427-.284a1.147,1.147,0,0,0,.284-.5,1.675,1.675,0,0,0,.142-.569h1a1.969,1.969,0,0,1-.213.924,2.556,2.556,0,0,1-.5.711,2.937,2.937,0,0,1-.782.5,2.1,2.1,0,0,1-.924.142,2.949,2.949,0,0,1-1.138-.213,1.942,1.942,0,0,1-.853-.64,4.039,4.039,0,0,1-.569-.924,3.221,3.221,0,0,1-.213-1.138,2.948,2.948,0,0,1,.213-1.138,2.044,2.044,0,0,1,.569-.924,1.943,1.943,0,0,1,.853-.64,2.948,2.948,0,0,1,1.138-.213,4.16,4.16,0,0,1,.924.142,2.223,2.223,0,0,1,.711.356,1.548,1.548,0,0,1,.5.64,2.4,2.4,0,0,1,.284.853l-1-.285Z" transform="translate(600.8 -269.5)" fill="#fff"/>
      </g>
      <g id="Group_3281" data-name="Group 3281" transform="translate(5.404 0)">
        <path id="Path_1282" data-name="Path 1282" d="M-591,269.3h1.067l2.2,5.689h-1.067l-.569-1.493h-2.276l-.569,1.493h-1Zm-.355,3.484h1.707l-.853-2.418h0Z" transform="translate(593.2 -269.3)" fill="#fff"/>
      </g>
      <g id="Group_3282" data-name="Group 3282" transform="translate(11.378 0)">
        <path id="Path_1283" data-name="Path 1283" d="M-584.8,269.3h2.7a2.123,2.123,0,0,1,1.422.427,1.547,1.547,0,0,1,.5,1.138,1.419,1.419,0,0,1-.142.64.653.653,0,0,1-.284.427.381.381,0,0,1-.284.213.351.351,0,0,1-.213.071h0c.071,0,.142.071.284.071.071.071.213.142.285.213a1.555,1.555,0,0,1,.213.356,1.385,1.385,0,0,1,.071.569,3.76,3.76,0,0,0,.071.924,1.558,1.558,0,0,0,.213.569h-1.067a1.01,1.01,0,0,1-.142-.427v-.427a1.58,1.58,0,0,0-.071-.64,1.027,1.027,0,0,0-.142-.5.711.711,0,0,0-.356-.284,1.386,1.386,0,0,0-.569-.071H-583.8v2.347h-1V269.3Zm1,2.631h1.636a1.061,1.061,0,0,0,.711-.213.943.943,0,0,0,.213-.711c0-.213,0-.356-.071-.427a.984.984,0,0,0-.213-.284c-.071-.071-.213-.071-.284-.142H-583.8v1.778Z" transform="translate(584.8 -269.3)" fill="#fff"/>
      </g>
      <g id="Group_3283" data-name="Group 3283" transform="translate(16.995 0)">
        <path id="Path_1284" data-name="Path 1284" d="M-576.9,269.3h2.347a2.947,2.947,0,0,1,1.138.213,2.223,2.223,0,0,1,.782.64,2.2,2.2,0,0,1,.427.924,5.527,5.527,0,0,1,.142,1.138,5.527,5.527,0,0,1-.142,1.138,2.2,2.2,0,0,1-.427.924,2.367,2.367,0,0,1-.782.64,2.707,2.707,0,0,1-1.138.213H-576.9Zm1,4.907h1a3.156,3.156,0,0,0,.924-.142.883.883,0,0,0,.569-.427,2.526,2.526,0,0,0,.284-.64,2.667,2.667,0,0,0,.071-.782,2.666,2.666,0,0,0-.071-.782,1.757,1.757,0,0,0-.284-.64,1.106,1.106,0,0,0-.569-.427,3.157,3.157,0,0,0-.924-.142h-1Z" transform="translate(576.9 -269.3)" fill="#fff"/>
      </g>
    </g>
  </g>
</svg>
