<svg xmlns="http://www.w3.org/2000/svg" xmlns:xlink="http://www.w3.org/1999/xlink" width="106" height="102" viewBox="0 0 106 102">
  <defs>
    <clipPath id="clip-path">
      <rect id="Rectangle_1474" data-name="Rectangle 1474" width="106" height="102" transform="translate(323 153)" fill="#fff"/>
    </clipPath>
  </defs>
  <g id="Account_icon_selected" transform="translate(-323 -153)">
    <g id="Mask_Group_2" data-name="Mask Group 2" clip-path="url(#clip-path)">
      <path id="Account_icon_off" d="M39.665,57.841a19.208,19.208,0,0,0-2.352-2.688,51.018,51.018,0,0,1-8.4-17.81,46.15,46.15,0,0,1-.672-11.761c.672-8.4,4.032-15.122,10.753-20.162A20.917,20.917,0,0,1,50.418,1.051C60.5.379,68.228,4.411,73.6,12.476a23.476,23.476,0,0,1,4.032,11.761,37.365,37.365,0,0,1-1.68,16.13,46.137,46.137,0,0,1-7.729,15.122c-.672.672-1.344,1.68-2.016,2.352.336,0,.336.336.672.336,2.352,1.68,5.041,2.688,7.729,4.032l13.105,6.049a43.047,43.047,0,0,1,6.721,3.7,20.909,20.909,0,0,1,8.065,9.073,27.162,27.162,0,0,1,2.352,7.393c.336,3.024.336,6.049-1.008,8.737a8.215,8.215,0,0,1-3.024,3.7,22.4,22.4,0,0,1-7.057,3.024,55.577,55.577,0,0,1-10.753,2.352c-3.36.672-6.721,1.008-10.081,1.344-3.7.336-7.057.672-10.753.672-4.032.336-8.4.336-12.433.336-3.7,0-7.729-.336-11.425-.336a115.882,115.882,0,0,1-18.482-2.352,49.048,49.048,0,0,1-11.425-3.36,11.856,11.856,0,0,1-4.368-2.688A4.639,4.639,0,0,1,3.037,98.5c-.336-.336-.336-1.008-.672-1.344-.336-1.344-.672-2.352-1.008-3.7a17.95,17.95,0,0,1,.336-8.4A28.5,28.5,0,0,1,6.734,75.65a14.878,14.878,0,0,1,5.041-4.032,65.933,65.933,0,0,1,10.753-5.713c4.032-1.68,7.729-3.36,11.761-5.377,2.016-1.008,3.7-2.016,5.377-3.024Z" transform="translate(327.391 161.427)" fill="#007fa3" opacity="0.042"/>
    </g>
    <g id="Mask_Group_3" data-name="Mask Group 3" clip-path="url(#clip-path)">
      <path id="Account_icon_off-2" data-name="Account_icon_off" d="M39.665,57.841a19.208,19.208,0,0,0-2.352-2.688,51.018,51.018,0,0,1-8.4-17.81,46.15,46.15,0,0,1-.672-11.761c.672-8.4,4.032-15.122,10.753-20.162A20.917,20.917,0,0,1,50.418,1.051C60.5.379,68.228,4.411,73.6,12.476a23.476,23.476,0,0,1,4.032,11.761,37.365,37.365,0,0,1-1.68,16.13,46.137,46.137,0,0,1-7.729,15.122c-.672.672-1.344,1.68-2.016,2.352.336,0,.336.336.672.336,2.352,1.68,5.041,2.688,7.729,4.032l13.105,6.049a43.047,43.047,0,0,1,6.721,3.7,20.909,20.909,0,0,1,8.065,9.073,27.162,27.162,0,0,1,2.352,7.393c.336,3.024.336,6.049-1.008,8.737a8.215,8.215,0,0,1-3.024,3.7,22.4,22.4,0,0,1-7.057,3.024,55.577,55.577,0,0,1-10.753,2.352c-3.36.672-6.721,1.008-10.081,1.344-3.7.336-7.057.672-10.753.672-4.032.336-8.4.336-12.433.336-3.7,0-7.729-.336-11.425-.336a115.882,115.882,0,0,1-18.482-2.352,49.048,49.048,0,0,1-11.425-3.36,11.856,11.856,0,0,1-4.368-2.688A4.639,4.639,0,0,1,3.037,98.5c-.336-.336-.336-1.008-.672-1.344-.336-1.344-.672-2.352-1.008-3.7a17.95,17.95,0,0,1,.336-8.4A28.5,28.5,0,0,1,6.734,75.65a14.878,14.878,0,0,1,5.041-4.032,65.933,65.933,0,0,1,10.753-5.713c4.032-1.68,7.729-3.36,11.761-5.377,2.016-1.008,3.7-2.016,5.377-3.024Z" transform="translate(327.391 161.427)" fill="#007fa3" opacity="0.042"/>
    </g>
  </g>
</svg>
