<svg xmlns="http://www.w3.org/2000/svg" width="37" height="37" viewBox="0 0 37 37">
  <g id="Report_home" transform="translate(-948 -509)">
    <path id="Path_1227" data-name="Path 1227" d="M24.984,16.044a1.541,1.541,0,0,1-1.232-2.467l5.553-7.4a1.541,1.541,0,1,1,2.465,1.85l-5.553,7.4A1.534,1.534,0,0,1,24.984,16.044Zm-4.426.746a1.535,1.535,0,0,1-.854-.259l-4.119-2.746A1.542,1.542,0,1,1,17.3,11.22l4.119,2.746a1.542,1.542,0,0,1-.857,2.824ZM4.625,37a1.541,1.541,0,0,1-1.542-1.542V30.833a1.542,1.542,0,0,1,3.083,0v4.625A1.541,1.541,0,0,1,4.625,37Zm18.5,0a1.54,1.54,0,0,1-1.542-1.542V24.667a1.542,1.542,0,0,1,3.083,0V35.458A1.54,1.54,0,0,1,23.125,37Zm-9.25,0a1.541,1.541,0,0,1-1.542-1.542V18.5a1.542,1.542,0,1,1,3.083,0V35.458A1.541,1.541,0,0,1,13.875,37Zm-9.25-9.25A4.625,4.625,0,1,1,9.25,23.125,4.631,4.631,0,0,1,4.625,27.75Zm0-6.167a1.542,1.542,0,1,0,1.542,1.542A1.543,1.543,0,0,0,4.625,21.583ZM32.375,37a1.54,1.54,0,0,1-1.542-1.542V12.333a1.542,1.542,0,1,1,3.083,0V35.458A1.54,1.54,0,0,1,32.375,37Zm-9.25-15.417a4.625,4.625,0,1,1,4.625-4.625A4.631,4.631,0,0,1,23.125,21.583Zm0-6.167a1.542,1.542,0,1,0,1.542,1.542A1.543,1.543,0,0,0,23.125,15.417Zm-9.25,0A4.625,4.625,0,1,1,18.5,10.792,4.631,4.631,0,0,1,13.875,15.417Zm0-6.167a1.542,1.542,0,1,0,1.542,1.542A1.544,1.544,0,0,0,13.875,9.25Zm18.5,0A4.625,4.625,0,1,1,37,4.625,4.631,4.631,0,0,1,32.375,9.25Zm0-6.167a1.542,1.542,0,1,0,1.542,1.542A1.543,1.543,0,0,0,32.375,3.083ZM35.458,37H1.542a1.542,1.542,0,0,1,0-3.083H35.458a1.542,1.542,0,1,1,0,3.083ZM6.936,21.583A1.542,1.542,0,0,1,5.7,19.117l4.625-6.167A1.542,1.542,0,0,1,12.8,14.8L8.171,20.967a1.539,1.539,0,0,1-1.235.617Z" transform="translate(948 509)" fill="#fff"/>
  </g>
</svg>
