<svg xmlns="http://www.w3.org/2000/svg" width="30.833" height="37" viewBox="0 0 30.833 37"><defs><style>.a{fill:#fff;}</style></defs><g transform="translate(-951 -509)"><g transform="translate(-123.434 -14.116)"><g transform="translate(1079.259 529.54)"><path class="a" d="M20.851,18.638h5.308a.818.818,0,0,0,0-1.637H20.851a.818.818,0,1,0,0,1.637Z" transform="translate(-19.518 -17.001)"/><path class="a" d="M20.851,29.831h8.837a.818.818,0,0,0,0-1.636H20.851a.818.818,0,1,0,0,1.636Z" transform="translate(-19.518 -23.842)"/><path class="a" d="M52.181,29.831h6.353a.818.818,0,0,0,0-1.636H52.181a.818.818,0,1,0,0,1.636Z" transform="translate(-38.665 -23.842)"/><path class="a" d="M61.339,41.894a.818.818,0,0,0-.818-.819H55.214a.819.819,0,1,0,0,1.637h5.307A.818.818,0,0,0,61.339,41.894Z" transform="translate(-40.518 -31.713)"/><path class="a" d="M42.148,18.638h1.588a.818.818,0,1,0,0-1.637H42.148a.818.818,0,0,0,0,1.637Z" transform="translate(-32.534 -17.001)"/><path class="a" d="M24.955,36.72a.819.819,0,0,0-.818.819V37.9a4.534,4.534,0,1,0,5.276,5.276h.361a.818.818,0,0,0,.818-.819A5.644,5.644,0,0,0,24.955,36.72Zm.818,1.722a4.012,4.012,0,0,1,3.1,3.1h-3.1v-3.1Zm-.818,6.816a2.9,2.9,0,0,1-.818-5.681v2.781a.818.818,0,0,0,.818.819h2.781A2.906,2.906,0,0,1,24.955,45.258Z" transform="translate(-19.755 -29.052)"/><path class="a" d="M37.752,56.984H34.369a.818.818,0,0,0,0,1.637h1.485l-5.348,4.69-3.921-2.68a.82.82,0,0,0-1.105.17l-2.839,3.6-2.517-2.651a.818.818,0,1,0-1.186,1.127L22.1,66.218a.819.819,0,0,0,.594.256h.037a.822.822,0,0,0,.605-.311l2.952-3.747,3.815,2.607a.818.818,0,0,0,1-.061l5.825-5.11v1.335a.818.818,0,1,0,1.637,0V57.8A.819.819,0,0,0,37.752,56.984Z" transform="translate(-18.711 -41.435)"/></g></g><g transform="translate(951 509)"><path class="a" d="M26.251,37H4.582A4.587,4.587,0,0,1,0,32.418V4.582A4.587,4.587,0,0,1,4.582,0H26.253a4.586,4.586,0,0,1,4.58,4.582V32.42A4.586,4.586,0,0,1,26.251,37ZM4.582,3.083a1.5,1.5,0,0,0-1.5,1.5V32.42a1.5,1.5,0,0,0,1.5,1.5H26.253a1.5,1.5,0,0,0,1.5-1.5V4.582a1.5,1.5,0,0,0-1.5-1.5Z" transform="translate(0 0)"/></g></g></svg>